  0
SECTION
  2
HEADER
  9
$ACADVER
  1
AC1024
  9
$ACADMAINTVER
 70
     6
  9
$DWGCODEPAGE
  3
ANSI_1252
  9
$INSBASE
 10
0.0
 20
0.0
 30
0.0
  9
$EXTMIN
 10
1.000000000000000E+20
 20
1.000000000000000E+20
 30
1.000000000000000E+20
  9
$EXTMAX
 10
-1.000000000000000E+20
 20
-1.000000000000000E+20
 30
-1.000000000000000E+20
  9
$LIMMIN
 10
0.0
 20
0.0
  9
$LIMMAX
 10
12.0
 20
9.0
  9
$ORTHOMODE
 70
     0
  9
$REGENMODE
 70
     1
  9
$FILLMODE
 70
     1
  9
$QTEXTMODE
 70
     0
  9
$MIRRTEXT
 70
     1
  9
$LTSCALE
 40
1.0
  9
$ATTMODE
 70
     1
  9
$TEXTSIZE
 40
0.2
  9
$TRACEWID
 40
0.05
  9
$TEXTSTYLE
  7
Standard
  9
$CLAYER
  8
0
  9
$CELTYPE
  6
ByLayer
  9
$CECOLOR
 62
   256
  9
$CELTSCALE
 40
1.0
  9
$DISPSILH
 70
     0
  9
$DIMSCALE
 40
1.0
  9
$DIMASZ
 40
0.18
  9
$DIMEXO
 40
0.0625
  9
$DIMDLI
 40
0.38
  9
$DIMRND
 40
0.0
  9
$DIMDLE
 40
0.0
  9
$DIMEXE
 40
0.18
  9
$DIMTP
 40
0.0
  9
$DIMTM
 40
0.0
  9
$DIMTXT
 40
0.18
  9
$DIMCEN
 40
0.09
  9
$DIMTSZ
 40
0.0
  9
$DIMTOL
 70
     0
  9
$DIMLIM
 70
     0
  9
$DIMTIH
 70
     1
  9
$DIMTOH
 70
     1
  9
$DIMSE1
 70
     0
  9
$DIMSE2
 70
     0
  9
$DIMTAD
 70
     0
  9
$DIMZIN
 70
     0
  9
$DIMBLK
  1

  9
$DIMASO
 70
     1
  9
$DIMSHO
 70
     1
  9
$DIMPOST
  1

  9
$DIMAPOST
  1

  9
$DIMALT
 70
     0
  9
$DIMALTD
 70
     2
  9
$DIMALTF
 40
25.4
  9
$DIMLFAC
 40
1.0
  9
$DIMTOFL
 70
     0
  9
$DIMTVP
 40
0.0
  9
$DIMTIX
 70
     0
  9
$DIMSOXD
 70
     0
  9
$DIMSAH
 70
     0
  9
$DIMBLK1
  1

  9
$DIMBLK2
  1

  9
$DIMSTYLE
  2
Standard
  9
$DIMCLRD
 70
     0
  9
$DIMCLRE
 70
     0
  9
$DIMCLRT
 70
     0
  9
$DIMTFAC
 40
1.0
  9
$DIMGAP
 40
0.09
  9
$DIMJUST
 70
     0
  9
$DIMSD1
 70
     0
  9
$DIMSD2
 70
     0
  9
$DIMTOLJ
 70
     1
  9
$DIMTZIN
 70
     0
  9
$DIMALTZ
 70
     0
  9
$DIMALTTZ
 70
     0
  9
$DIMUPT
 70
     0
  9
$DIMDEC
 70
     4
  9
$DIMTDEC
 70
     4
  9
$DIMALTU
 70
     2
  9
$DIMALTTD
 70
     2
  9
$DIMTXSTY
  7
Standard
  9
$DIMAUNIT
 70
     0
  9
$DIMADEC
 70
     0
  9
$DIMALTRND
 40
0.0
  9
$DIMAZIN
 70
     0
  9
$DIMDSEP
 70
    46
  9
$DIMATFIT
 70
     3
  9
$DIMFRAC
 70
     0
  9
$DIMLDRBLK
  1

  9
$DIMLUNIT
 70
     2
  9
$DIMLWD
 70
    -2
  9
$DIMLWE
 70
    -2
  9
$DIMTMOVE
 70
     0
  9
$DIMFXL
 40
1.0
  9
$DIMFXLON
 70
     0
  9
$DIMJOGANG
 40
0.7853981633974483
  9
$DIMTFILL
 70
     0
  9
$DIMTFILLCLR
 70
     0
  9
$DIMARCSYM
 70
     0
  9
$DIMLTYPE
  6

  9
$DIMLTEX1
  6

  9
$DIMLTEX2
  6

  9
$DIMTXTDIRECTION
 70
     0
  9
$LUNITS
 70
     2
  9
$LUPREC
 70
     4
  9
$SKETCHINC
 40
0.1
  9
$FILLETRAD
 40
0.5
  9
$AUNITS
 70
     0
  9
$AUPREC
 70
     0
  9
$MENU
  1
.
  9
$ELEVATION
 40
0.0
  9
$PELEVATION
 40
0.0
  9
$THICKNESS
 40
0.0
  9
$LIMCHECK
 70
     0
  9
$CHAMFERA
 40
0.5
  9
$CHAMFERB
 40
0.5
  9
$CHAMFERC
 40
1.0
  9
$CHAMFERD
 40
0.0
  9
$SKPOLY
 70
     0
  9
$TDCREATE
 40
2457745.380305694
  9
$TDUCREATE
 40
2457745.588639028
  9
$TDUPDATE
 40
2457745.380305833
  9
$TDUUPDATE
 40
2457745.588639167
  9
$TDINDWG
 40
0.0000000116
  9
$TDUSRTIMER
 40
0.0000000116
  9
$USRTIMER
 70
     1
  9
$ANGBASE
 50
0.0
  9
$ANGDIR
 70
     0
  9
$PDMODE
 70
     0
  9
$PDSIZE
 40
0.0
  9
$PLINEWID
 40
0.0
  9
$SPLFRAME
 70
     0
  9
$SPLINETYPE
 70
     6
  9
$SPLINESEGS
 70
     8
  9
$HANDSEED
  5
AC
  9
$SURFTAB1
 70
     6
  9
$SURFTAB2
 70
     6
  9
$SURFTYPE
 70
     6
  9
$SURFU
 70
     6
  9
$SURFV
 70
     6
  9
$UCSBASE
  2

  9
$UCSNAME
  2

  9
$UCSORG
 10
0.0
 20
0.0
 30
0.0
  9
$UCSXDIR
 10
1.0
 20
0.0
 30
0.0
  9
$UCSYDIR
 10
0.0
 20
1.0
 30
0.0
  9
$UCSORTHOREF
  2

  9
$UCSORTHOVIEW
 70
     0
  9
$UCSORGTOP
 10
0.0
 20
0.0
 30
0.0
  9
$UCSORGBOTTOM
 10
0.0
 20
0.0
 30
0.0
  9
$UCSORGLEFT
 10
0.0
 20
0.0
 30
0.0
  9
$UCSORGRIGHT
 10
0.0
 20
0.0
 30
0.0
  9
$UCSORGFRONT
 10
0.0
 20
0.0
 30
0.0
  9
$UCSORGBACK
 10
0.0
 20
0.0
 30
0.0
  9
$PUCSBASE
  2

  9
$PUCSNAME
  2

  9
$PUCSORG
 10
0.0
 20
0.0
 30
0.0
  9
$PUCSXDIR
 10
1.0
 20
0.0
 30
0.0
  9
$PUCSYDIR
 10
0.0
 20
1.0
 30
0.0
  9
$PUCSORTHOREF
  2

  9
$PUCSORTHOVIEW
 70
     0
  9
$PUCSORGTOP
 10
0.0
 20
0.0
 30
0.0
  9
$PUCSORGBOTTOM
 10
0.0
 20
0.0
 30
0.0
  9
$PUCSORGLEFT
 10
0.0
 20
0.0
 30
0.0
  9
$PUCSORGRIGHT
 10
0.0
 20
0.0
 30
0.0
  9
$PUCSORGFRONT
 10
0.0
 20
0.0
 30
0.0
  9
$PUCSORGBACK
 10
0.0
 20
0.0
 30
0.0
  9
$USERI1
 70
     0
  9
$USERI2
 70
     0
  9
$USERI3
 70
     0
  9
$USERI4
 70
     0
  9
$USERI5
 70
     0
  9
$USERR1
 40
0.0
  9
$USERR2
 40
0.0
  9
$USERR3
 40
0.0
  9
$USERR4
 40
0.0
  9
$USERR5
 40
0.0
  9
$WORLDVIEW
 70
     1
  9
$SHADEDGE
 70
     3
  9
$SHADEDIF
 70
    70
  9
$TILEMODE
 70
     1
  9
$MAXACTVP
 70
    64
  9
$PINSBASE
 10
0.0
 20
0.0
 30
0.0
  9
$PLIMCHECK
 70
     0
  9
$PEXTMIN
 10
1.000000000000000E+20
 20
1.000000000000000E+20
 30
1.000000000000000E+20
  9
$PEXTMAX
 10
-1.000000000000000E+20
 20
-1.000000000000000E+20
 30
-1.000000000000000E+20
  9
$PLIMMIN
 10
0.0
 20
0.0
  9
$PLIMMAX
 10
12.0
 20
9.0
  9
$UNITMODE
 70
     0
  9
$VISRETAIN
 70
     1
  9
$PLINEGEN
 70
     0
  9
$PSLTSCALE
 70
     1
  9
$TREEDEPTH
 70
  3020
  9
$CMLSTYLE
  2
Standard
  9
$CMLJUST
 70
     0
  9
$CMLSCALE
 40
1.0
  9
$PROXYGRAPHICS
 70
     1
  9
$MEASUREMENT
 70
     0
  9
$CELWEIGHT
370
    -1
  9
$ENDCAPS
280
     0
  9
$JOINSTYLE
280
     0
  9
$LWDISPLAY
290
     1
  9
$INSUNITS
 70
     1
  9
$HYPERLINKBASE
  1

  9
$STYLESHEET
  1

  9
$XEDIT
290
     1
  9
$CEPSNTYPE
380
     0
  9
$PSTYLEMODE
290
     1
  9
$FINGERPRINTGUID
  2
{39ACBB67-A605-4ABA-92A0-93969B9B6327}
  9
$VERSIONGUID
  2
{FAEB1C32-E019-11D5-929B-00C0DF256EC4}
  9
$EXTNAMES
290
     1
  9
$PSVPSCALE
 40
0.0
  9
$OLESTARTUP
290
     0
  9
$SORTENTS
280
   127
  9
$INDEXCTL
280
     0
  9
$HIDETEXT
280
     1
  9
$XCLIPFRAME
280
     2
  9
$HALOGAP
280
     0
  9
$OBSCOLOR
 70
   257
  9
$OBSLTYPE
280
     0
  9
$INTERSECTIONDISPLAY
280
     0
  9
$INTERSECTIONCOLOR
 70
   257
  9
$DIMASSOC
280
     2
  9
$PROJECTNAME
  1

  9
$CAMERADISPLAY
290
     0
  9
$LENSLENGTH
 40
50.0
  9
$CAMERAHEIGHT
 40
0.0
  9
$STEPSPERSEC
 40
2.0
  9
$STEPSIZE
 40
6.0
  9
$3DDWFPREC
 40
2.0
  9
$PSOLWIDTH
 40
0.25
  9
$PSOLHEIGHT
 40
4.0
  9
$LOFTANG1
 40
1.570796326794897
  9
$LOFTANG2
 40
1.570796326794897
  9
$LOFTMAG1
 40
0.0
  9
$LOFTMAG2
 40
0.0
  9
$LOFTPARAM
 70
     7
  9
$LOFTNORMALS
280
     1
  9
$LATITUDE
 40
37.795
  9
$LONGITUDE
 40
-122.394
  9
$NORTHDIRECTION
 40
0.0
  9
$TIMEZONE
 70
 -8000
  9
$LIGHTGLYPHDISPLAY
280
     1
  9
$TILEMODELIGHTSYNCH
280
     1
  9
$CMATERIAL
347
3C
  9
$SOLIDHIST
280
     1
  9
$SHOWHIST
280
     1
  9
$DWFFRAME
280
     2
  9
$DGNFRAME
280
     2
  9
$REALWORLDSCALE
290
     1
  9
$INTERFERECOLOR
 62
   256
  9
$CSHADOW
280
     0
  9
$SHADOWPLANELOCATION
 40
0.0
  0
ENDSEC
  0
SECTION
  2
CLASSES
  0
CLASS
  1
ACDBDICTIONARYWDFLT
  2
AcDbDictionaryWithDefault
  3
ObjectDBX Classes
 90
        0
 91
        4
280
     0
281
     0
  0
CLASS
  1
VISUALSTYLE
  2
AcDbVisualStyle
  3
ObjectDBX Classes
 90
     4095
 91
        4
280
     0
281
     0
  0
CLASS
  1
MATERIAL
  2
AcDbMaterial
  3
ObjectDBX Classes
 90
     1153
 91
        4
280
     0
281
     0
  0
CLASS
  1
SUN
  2
AcDbSun
  3
SCENEOE
 90
     1024
 91
        4
280
     0
281
     0
  0
ENDSEC
  0
SECTION
  2
TABLES
  0
TABLE
  2
VPORT
  5
8
330
0
100
AcDbSymbolTable
 70
     1
  0
VPORT
  5
29
330
8
100
AcDbSymbolTableRecord
100
AcDbViewportTableRecord
  2
*Active
 70
     0
 10
0.0
 20
0.0
 11
1.0
 21
1.0
 12
0.0
 22
0.0
 13
0.0
 23
0.0
 14
0.5
 24
0.5
 15
0.5
 25
0.5
 16
0.0
 26
0.0
 36
1.0
 17
4.25
 27
-5.5
 37
0.0
 40
11.0
 41
0.7727272727272727
 42
50.0
 43
0.0
 44
0.0
 50
0.0
 51
0.0
 71
     0
 72
   100
 73
     1
 74
     3
 75
     0
 76
     0
 77
     0
 78
     0
281
     0
 65
     1
110
0.0
120
0.0
130
0.0
111
1.0
121
0.0
131
0.0
112
0.0
122
1.0
132
0.0
 79
     0
146
0.0
 60
     3
 61
     5
292
     1
282
     1
141
0.0
142
0.0
 63
   250
361
3F
  0
ENDTAB
  0
TABLE
  2
LTYPE
  5
5
330
0
100
AcDbSymbolTable
 70
     1
  0
LTYPE
  5
14
330
5
100
AcDbSymbolTableRecord
100
AcDbLinetypeTableRecord
  2
ByBlock
 70
     0
  3

 72
    65
 73
     0
 40
0.0
  0
LTYPE
  5
15
330
5
100
AcDbSymbolTableRecord
100
AcDbLinetypeTableRecord
  2
ByLayer
 70
     0
  3

 72
    65
 73
     0
 40
0.0
  0
LTYPE
  5
16
330
5
100
AcDbSymbolTableRecord
100
AcDbLinetypeTableRecord
  2
Continuous
 70
     0
  3
Solid line
 72
    65
 73
     0
 40
0.0
  0
ENDTAB
  0
TABLE
  2
LAYER
  5
2
330
0
100
AcDbSymbolTable
 70
     3
  0
LAYER
  5
10
330
2
100
AcDbSymbolTableRecord
100
AcDbLayerTableRecord
  2
0
 70
     0
 62
     7
  6
Continuous
370
    -3
390
F
347
3E
  0
LAYER
  5
40
330
2
100
AcDbSymbolTableRecord
100
AcDbLayerTableRecord
  2
ThermoDefender
 70
     0
 62
     7
  6
Continuous
370
    -3
390
F
347
3E
  0
LAYER
  5
92
330
2
100
AcDbSymbolTableRecord
100
AcDbLayerTableRecord
  2
Shield
 70
     0
 62
     7
  6
Continuous
370
    -3
390
F
347
3E
  0
ENDTAB
  0
TABLE
  2
STYLE
  5
3
330
0
100
AcDbSymbolTable
 70
     1
  0
STYLE
  5
11
330
3
100
AcDbSymbolTableRecord
100
AcDbTextStyleTableRecord
  2
Standard
 70
     0
 40
0.0
 41
1.0
 50
0.0
 71
     0
 42
0.2
  3
txt
  4

  0
ENDTAB
  0
TABLE
  2
VIEW
  5
6
330
0
100
AcDbSymbolTable
 70
     0
  0
ENDTAB
  0
TABLE
  2
UCS
  5
7
330
0
100
AcDbSymbolTable
 70
     0
  0
ENDTAB
  0
TABLE
  2
APPID
  5
9
330
0
100
AcDbSymbolTable
 70
     1
  0
APPID
  5
12
330
9
100
AcDbSymbolTableRecord
100
AcDbRegAppTableRecord
  2
ACAD
 70
     0
  0
ENDTAB
  0
TABLE
  2
DIMSTYLE
  5
A
330
0
100
AcDbSymbolTable
 70
     1
100
AcDbDimStyleTable
  0
DIMSTYLE
105
27
330
A
100
AcDbSymbolTableRecord
100
AcDbDimStyleTableRecord
  2
Standard
 70
     0
178
     0
340
11
  0
ENDTAB
  0
TABLE
  2
BLOCK_RECORD
  5
1
330
0
100
AcDbSymbolTable
 70
     5
  0
BLOCK_RECORD
  5
1F
330
1
100
AcDbSymbolTableRecord
100
AcDbBlockTableRecord
  2
*Model_Space
340
22
 70
     0
280
     1
281
     0
  0
BLOCK_RECORD
  5
1B
330
1
100
AcDbSymbolTableRecord
100
AcDbBlockTableRecord
  2
*Paper_Space
340
1E
 70
     0
280
     1
281
     0
  0
BLOCK_RECORD
  5
23
330
1
100
AcDbSymbolTableRecord
100
AcDbBlockTableRecord
  2
*Paper_Space0
340
26
 70
     0
280
     1
281
     0
  0
BLOCK_RECORD
  5
41
330
1
100
AcDbSymbolTableRecord
100
AcDbBlockTableRecord
  2
block 2
340
0
102
{BLKREFS
331
42
102
}
 70
     0
280
     1
281
     0
  0
BLOCK_RECORD
  5
76
330
1
100
AcDbSymbolTableRecord
100
AcDbBlockTableRecord
  2
block 3
340
0
102
{BLKREFS
331
77
102
}
 70
     0
280
     1
281
     0
  0
BLOCK_RECORD
  5
98
330
1
100
AcDbSymbolTableRecord
100
AcDbBlockTableRecord
  2
block 4
340
0
102
{BLKREFS
331
99
102
}
 70
     0
280
     1
281
     0
  0
BLOCK_RECORD
  5
A0
330
1
100
AcDbSymbolTableRecord
100
AcDbBlockTableRecord
  2
block 5
340
0
102
{BLKREFS
331
A1
102
}
 70
     0
280
     1
281
     0
  0
ENDTAB
  0
ENDSEC
  0
SECTION
  2
BLOCKS
  0
BLOCK
  5
20
330
1F
100
AcDbEntity
  8
0
100
AcDbBlockBegin
  2
*Model_Space
 70
     0
 10
0.0
 20
0.0
 30
0.0
  3
*Model_Space
  1

  0
ENDBLK
  5
21
330
1F
100
AcDbEntity
  8
0
100
AcDbBlockEnd
  0
BLOCK
  5
1C
330
1B
100
AcDbEntity
 67
     1
  8
0
100
AcDbBlockBegin
  2
*Paper_Space
 70
     0
 10
0.0
 20
0.0
 30
0.0
  3
*Paper_Space
  1

  0
ENDBLK
  5
1D
330
1B
100
AcDbEntity
 67
     1
  8
0
100
AcDbBlockEnd
  0
BLOCK
  5
24
330
23
100
AcDbEntity
  8
0
100
AcDbBlockBegin
  2
*Paper_Space0
 70
     0
 10
0.0
 20
0.0
 30
0.0
  3
*Paper_Space0
  1

  0
ENDBLK
  5
25
330
23
100
AcDbEntity
  8
0
100
AcDbBlockEnd
  0
BLOCK
  5
43
330
41
100
AcDbEntity
  8
0
100
AcDbBlockBegin
  2
block 2
 70
     0
 10
0.0
 20
0.0
 30
0.0
  3
block 2
  1

  0
POLYLINE
  5
45
330
41
100
AcDbEntity
  8
ThermoDefender
370
     0
100
AcDb2dPolyline
 66
     1
 10
0.0
 20
0.0
 30
0.0
  0
VERTEX
  5
46
330
45
100
AcDbEntity
  8
ThermoDefender
370
     0
100
AcDbVertex
100
AcDb2dVertex
 10
3.305993839168094
 20
-6.135731104245981
 30
0.0
  0
VERTEX
  5
47
330
45
100
AcDbEntity
  8
ThermoDefender
370
     0
100
AcDbVertex
100
AcDb2dVertex
 10
3.305993839168094
 20
-6.217162262721659
 30
0.0
  0
VERTEX
  5
48
330
45
100
AcDbEntity
  8
ThermoDefender
370
     0
100
AcDbVertex
100
AcDb2dVertex
 10
3.387314395051614
 20
-6.217162262721659
 30
0.0
  0
VERTEX
  5
49
330
45
100
AcDbEntity
  8
ThermoDefender
370
     0
100
AcDbVertex
100
AcDb2dVertex
 10
3.387314395051614
 20
-6.65672461460205
 30
0.0
  0
VERTEX
  5
4A
330
45
100
AcDbEntity
  8
ThermoDefender
370
     0
100
AcDbVertex
100
AcDb2dVertex
 10
3.505216429933575
 20
-6.65672461460205
 30
0.0
  0
VERTEX
  5
4B
330
45
100
AcDbEntity
  8
ThermoDefender
370
     0
100
AcDbVertex
100
AcDb2dVertex
 10
3.505216429933575
 20
-6.217162262721659
 30
0.0
  0
VERTEX
  5
4C
330
45
100
AcDbEntity
  8
ThermoDefender
370
     0
100
AcDbVertex
100
AcDb2dVertex
 10
3.585928999917731
 20
-6.217162262721659
 30
0.0
  0
VERTEX
  5
4D
330
45
100
AcDbEntity
  8
ThermoDefender
370
     0
100
AcDbVertex
100
AcDb2dVertex
 10
3.585928999917731
 20
-6.135731104245981
 30
0.0
  0
VERTEX
  5
4E
330
45
100
AcDbEntity
  8
ThermoDefender
370
     0
100
AcDbVertex
100
AcDb2dVertex
 10
3.305993839168094
 20
-6.135731104245981
 30
0.0
  0
SEQEND
  5
50
330
45
100
AcDbEntity
  8
ThermoDefender
370
     0
  0
HATCH
  5
4F
330
41
100
AcDbEntity
  8
ThermoDefender
 62
     7
420
 16777215
100
AcDbHatch
 10
0.0
 20
0.0
 30
0.0
210
0.0
220
0.0
230
1.0
  2
SOLID
 70
     1
 71
     0
 91
        1
 92
        1
 93
        8
 72
     1
 10
3.305993839168094
 20
-6.135731104245981
 11
3.305993839168094
 21
-6.217162262721659
 72
     1
 10
3.305993839168094
 20
-6.217162262721659
 11
3.387314395051614
 21
-6.217162262721659
 72
     1
 10
3.387314395051614
 20
-6.217162262721659
 11
3.387314395051614
 21
-6.65672461460205
 72
     1
 10
3.387314395051614
 20
-6.65672461460205
 11
3.505216429933575
 21
-6.65672461460205
 72
     1
 10
3.505216429933575
 20
-6.65672461460205
 11
3.505216429933575
 21
-6.217162262721659
 72
     1
 10
3.505216429933575
 20
-6.217162262721659
 11
3.585928999917731
 21
-6.217162262721659
 72
     1
 10
3.585928999917731
 20
-6.217162262721659
 11
3.585928999917731
 21
-6.135731104245981
 72
     1
 10
3.585928999917731
 20
-6.135731104245981
 11
3.305993839168094
 21
-6.135731104245981
 97
        0
 75
     2
 76
     1
 98
        0
  0
POLYLINE
  5
51
330
41
100
AcDbEntity
  8
ThermoDefender
370
     0
100
AcDb2dPolyline
 66
     1
 10
0.0
 20
0.0
 30
0.0
  0
VERTEX
  5
52
330
51
100
AcDbEntity
  8
ThermoDefender
370
     0
100
AcDbVertex
100
AcDb2dVertex
 10
3.766543032910299
 20
-6.135731104245981
 30
0.0
  0
VERTEX
  5
53
330
51
100
AcDbEntity
  8
ThermoDefender
370
     0
100
AcDbVertex
100
AcDb2dVertex
 10
3.766543032910299
 20
-6.32826256654347
 30
0.0
  0
VERTEX
  5
54
330
51
100
AcDbEntity
  8
ThermoDefender
370
     0
100
AcDbVertex
100
AcDb2dVertex
 10
3.726587846493531
 20
-6.32826256654347
 30
0.0
  0
VERTEX
  5
55
330
51
100
AcDbEntity
  8
ThermoDefender
370
     0
100
AcDbVertex
100
AcDb2dVertex
 10
3.726587846493531
 20
-6.135731104245981
 30
0.0
  0
VERTEX
  5
56
330
51
100
AcDbEntity
  8
ThermoDefender
370
     0
100
AcDbVertex
100
AcDb2dVertex
 10
3.608685483254071
 20
-6.135731104245981
 30
0.0
  0
VERTEX
  5
57
330
51
100
AcDbEntity
  8
ThermoDefender
370
     0
100
AcDbVertex
100
AcDb2dVertex
 10
3.608685483254071
 20
-6.65672461460205
 30
0.0
  0
VERTEX
  5
58
330
51
100
AcDbEntity
  8
ThermoDefender
370
     0
100
AcDbVertex
100
AcDb2dVertex
 10
3.726587846493531
 20
-6.65672461460205
 30
0.0
  0
VERTEX
  5
59
330
51
100
AcDbEntity
  8
ThermoDefender
370
     0
100
AcDbVertex
100
AcDb2dVertex
 10
3.726587846493531
 20
-6.414643191018158
 30
0.0
  0
VERTEX
  5
5A
330
51
100
AcDbEntity
  8
ThermoDefender
370
     0
100
AcDbVertex
100
AcDb2dVertex
 10
3.766543032910299
 20
-6.414643191018158
 30
0.0
  0
VERTEX
  5
5B
330
51
100
AcDbEntity
  8
ThermoDefender
370
     0
100
AcDbVertex
100
AcDb2dVertex
 10
3.766543032910299
 20
-6.65672461460205
 30
0.0
  0
VERTEX
  5
5C
330
51
100
AcDbEntity
  8
ThermoDefender
370
     0
100
AcDbVertex
100
AcDb2dVertex
 10
3.883864732540966
 20
-6.65672461460205
 30
0.0
  0
VERTEX
  5
5D
330
51
100
AcDbEntity
  8
ThermoDefender
370
     0
100
AcDbVertex
100
AcDb2dVertex
 10
3.883864732540966
 20
-6.135731104245981
 30
0.0
  0
VERTEX
  5
5E
330
51
100
AcDbEntity
  8
ThermoDefender
370
     0
100
AcDbVertex
100
AcDb2dVertex
 10
3.766543032910299
 20
-6.135731104245981
 30
0.0
  0
SEQEND
  5
60
330
51
100
AcDbEntity
  8
ThermoDefender
370
     0
  0
HATCH
  5
5F
330
41
100
AcDbEntity
  8
ThermoDefender
 62
     7
420
 16777215
100
AcDbHatch
 10
0.0
 20
0.0
 30
0.0
210
0.0
220
0.0
230
1.0
  2
SOLID
 70
     1
 71
     0
 91
        1
 92
        1
 93
       12
 72
     1
 10
3.766543032910299
 20
-6.135731104245981
 11
3.766543032910299
 21
-6.32826256654347
 72
     1
 10
3.766543032910299
 20
-6.32826256654347
 11
3.726587846493531
 21
-6.32826256654347
 72
     1
 10
3.726587846493531
 20
-6.32826256654347
 11
3.726587846493531
 21
-6.135731104245981
 72
     1
 10
3.726587846493531
 20
-6.135731104245981
 11
3.608685483254071
 21
-6.135731104245981
 72
     1
 10
3.608685483254071
 20
-6.135731104245981
 11
3.608685483254071
 21
-6.65672461460205
 72
     1
 10
3.608685483254071
 20
-6.65672461460205
 11
3.726587846493531
 21
-6.65672461460205
 72
     1
 10
3.726587846493531
 20
-6.65672461460205
 11
3.726587846493531
 21
-6.414643191018158
 72
     1
 10
3.726587846493531
 20
-6.414643191018158
 11
3.766543032910299
 21
-6.414643191018158
 72
     1
 10
3.766543032910299
 20
-6.414643191018158
 11
3.766543032910299
 21
-6.65672461460205
 72
     1
 10
3.766543032910299
 20
-6.65672461460205
 11
3.883864732540966
 21
-6.65672461460205
 72
     1
 10
3.883864732540966
 20
-6.65672461460205
 11
3.883864732540966
 21
-6.135731104245981
 72
     1
 10
3.883864732540966
 20
-6.135731104245981
 11
3.766543032910299
 21
-6.135731104245981
 97
        0
 75
     2
 76
     1
 98
        0
  0
POLYLINE
  5
61
330
41
100
AcDbEntity
  8
ThermoDefender
370
     0
100
AcDb2dPolyline
 66
     1
 10
0.0
 20
0.0
 30
0.0
  0
VERTEX
  5
62
330
61
100
AcDbEntity
  8
ThermoDefender
370
     0
100
AcDbVertex
100
AcDb2dVertex
 10
4.035528537036397
 20
-6.570316339479278
 30
0.0
  0
VERTEX
  5
63
330
61
100
AcDbEntity
  8
ThermoDefender
370
     0
100
AcDbVertex
100
AcDb2dVertex
 10
4.035528537036397
 20
-6.414643191018158
 30
0.0
  0
VERTEX
  5
64
330
61
100
AcDbEntity
  8
ThermoDefender
370
     0
100
AcDbVertex
100
AcDb2dVertex
 10
4.153624454812163
 20
-6.414643191018158
 30
0.0
  0
VERTEX
  5
65
330
61
100
AcDbEntity
  8
ThermoDefender
370
     0
100
AcDbVertex
100
AcDb2dVertex
 10
4.153624454812163
 20
-6.331082932643489
 30
0.0
  0
VERTEX
  5
66
330
61
100
AcDbEntity
  8
ThermoDefender
370
     0
100
AcDbVertex
100
AcDb2dVertex
 10
4.035528537036397
 20
-6.331082932643489
 30
0.0
  0
VERTEX
  5
67
330
61
100
AcDbEntity
  8
ThermoDefender
370
     0
100
AcDbVertex
100
AcDb2dVertex
 10
4.035528537036397
 20
-6.22142046251972
 30
0.0
  0
VERTEX
  5
68
330
61
100
AcDbEntity
  8
ThermoDefender
370
     0
100
AcDbVertex
100
AcDb2dVertex
 10
4.157191388409236
 20
-6.22142046251972
 30
0.0
  0
VERTEX
  5
69
330
61
100
AcDbEntity
  8
ThermoDefender
370
     0
100
AcDbVertex
100
AcDb2dVertex
 10
4.157191388409236
 20
-6.135731104245981
 30
0.0
  0
VERTEX
  5
6A
330
61
100
AcDbEntity
  8
ThermoDefender
370
     0
100
AcDbVertex
100
AcDb2dVertex
 10
3.917626173796912
 20
-6.135731104245981
 30
0.0
  0
VERTEX
  5
6B
330
61
100
AcDbEntity
  8
ThermoDefender
370
     0
100
AcDbVertex
100
AcDb2dVertex
 10
3.917626173796912
 20
-6.65672461460205
 30
0.0
  0
VERTEX
  5
6C
330
61
100
AcDbEntity
  8
ThermoDefender
370
     0
100
AcDbVertex
100
AcDb2dVertex
 10
4.157799702666087
 20
-6.65672461460205
 30
0.0
  0
VERTEX
  5
6D
330
61
100
AcDbEntity
  8
ThermoDefender
370
     0
100
AcDbVertex
100
AcDb2dVertex
 10
4.157799702666087
 20
-6.570316339479278
 30
0.0
  0
VERTEX
  5
6E
330
61
100
AcDbEntity
  8
ThermoDefender
370
     0
100
AcDbVertex
100
AcDb2dVertex
 10
4.035528537036397
 20
-6.570316339479278
 30
0.0
  0
SEQEND
  5
70
330
61
100
AcDbEntity
  8
ThermoDefender
370
     0
  0
HATCH
  5
6F
330
41
100
AcDbEntity
  8
ThermoDefender
 62
     7
420
 16777215
100
AcDbHatch
 10
0.0
 20
0.0
 30
0.0
210
0.0
220
0.0
230
1.0
  2
SOLID
 70
     1
 71
     0
 91
        1
 92
        1
 93
       12
 72
     1
 10
4.035528537036397
 20
-6.570316339479278
 11
4.035528537036397
 21
-6.414643191018158
 72
     1
 10
4.035528537036397
 20
-6.414643191018158
 11
4.153624454812163
 21
-6.414643191018158
 72
     1
 10
4.153624454812163
 20
-6.414643191018158
 11
4.153624454812163
 21
-6.331082932643489
 72
     1
 10
4.153624454812163
 20
-6.331082932643489
 11
4.035528537036397
 21
-6.331082932643489
 72
     1
 10
4.035528537036397
 20
-6.331082932643489
 11
4.035528537036397
 21
-6.22142046251972
 72
     1
 10
4.035528537036397
 20
-6.22142046251972
 11
4.157191388409236
 21
-6.22142046251972
 72
     1
 10
4.157191388409236
 20
-6.22142046251972
 11
4.157191388409236
 21
-6.135731104245981
 72
     1
 10
4.157191388409236
 20
-6.135731104245981
 11
3.917626173796912
 21
-6.135731104245981
 72
     1
 10
3.917626173796912
 20
-6.135731104245981
 11
3.917626173796912
 21
-6.65672461460205
 72
     1
 10
3.917626173796912
 20
-6.65672461460205
 11
4.157799702666087
 21
-6.65672461460205
 72
     1
 10
4.157799702666087
 20
-6.65672461460205
 11
4.157799702666087
 21
-6.570316339479278
 72
     1
 10
4.157799702666087
 20
-6.570316339479278
 11
4.035528537036397
 21
-6.570316339479278
 97
        0
 75
     2
 76
     1
 98
        0
  0
SPLINE
  5
71
330
41
100
AcDbEntity
  8
ThermoDefender
370
     0
100
AcDbSpline
210
0.0
220
0.0
230
1.0
 70
    11
 71
     3
 72
    65
 73
    61
 74
     0
 42
0.0000000001
 43
0.0000000001
 12
1.0
 22
0.0
 32
0.0
 13
1.0
 23
0.0
 33
0.0
 40
0.0
 40
0.0
 40
0.0
 40
0.0
 40
1.0
 40
1.0
 40
1.0
 40
2.0
 40
2.0
 40
2.0
 40
3.0
 40
3.0
 40
3.0
 40
4.0
 40
4.0
 40
4.0
 40
5.0
 40
5.0
 40
5.0
 40
6.0
 40
6.0
 40
6.0
 40
7.0
 40
7.0
 40
7.0
 40
8.0
 40
8.0
 40
8.0
 40
9.0
 40
9.0
 40
9.0
 40
10.0
 40
10.0
 40
10.0
 40
11.0
 40
11.0
 40
11.0
 40
12.0
 40
12.0
 40
12.0
 40
13.0
 40
13.0
 40
13.0
 40
14.0
 40
14.0
 40
14.0
 40
15.0
 40
15.0
 40
15.0
 40
16.0
 40
16.0
 40
16.0
 40
17.0
 40
17.0
 40
17.0
 40
18.0
 40
18.0
 40
18.0
 40
19.0
 40
19.0
 40
19.0
 40
20.0
 40
20.0
 40
20.0
 40
20.0
 10
4.440472277571618
 20
-6.411242161309347
 30
0.0
 10
4.433863772690251
 20
-6.40504841614855
 30
0.0
 10
4.42548562633432
 20
-6.399988347557357
 30
0.0
 10
4.415393139799991
 20
-6.396089606183826
 30
0.0
 10
4.425347373094129
 20
-6.391776105089674
 30
0.0
 10
4.43344901296963
 20
-6.385997119649472
 30
0.0
 10
4.439615107482394
 20
-6.378752649863195
 30
0.0
 10
4.452002597803989
 20
-6.364263710290591
 30
0.0
 10
4.45827929490891
 20
-6.34371927879743
 30
0.0
 10
4.45827929490891
 20
-6.317672368344422
 30
0.0
 10
4.45827929490891
 20
-6.317672368344422
 30
0.0
 10
4.45827929490891
 20
-6.235549943667769
 30
0.0
 10
4.45827929490891
 20
-6.235549943667769
 30
0.0
 10
4.45827929490891
 20
-6.214120691437352
 30
0.0
 10
4.454933566496164
 20
-6.195898914379439
 30
0.0
 10
4.448297410966739
 20
-6.18140997480686
 30
0.0
 10
4.441578303493189
 20
-6.166699830049967
 30
0.0
 10
4.432011179271614
 20
-6.154644147504819
 30
0.0
 10
4.419844894134308
 20
-6.145547084299929
 30
0.0
 10
4.407816862237243
 20
-6.136615924983213
 30
0.0
 10
4.393576427697655
 20
-6.130173323990069
 30
0.0
 10
4.377539402634207
 20
-6.126385185208695
 30
0.0
 10
4.345962362573396
 20
-6.118947160886137
 30
0.0
 10
4.304735246346783
 20
-6.119140715422392
 30
0.0
 10
4.271996879068309
 20
-6.126357534560687
 30
0.0
 10
4.254991730524162
 20
-6.130118022694003
 30
0.0
 10
4.240005079286864
 20
-6.136394719798949
 30
0.0
 10
4.227451685077047
 20
-6.145021721987177
 30
0.0
 10
4.214621784386812
 20
-6.153842278711712
 30
0.0
 10
4.204391044612268
 20
-6.165897961256809
 30
0.0
 10
4.197063622881867
 20
-6.180829311198017
 30
0.0
 10
4.189763851799474
 20
-6.195594757251026
 30
0.0
 10
4.18608631561027
 20
-6.213761233012847
 30
0.0
 10
4.18608631561027
 20
-6.234858677466819
 30
0.0
 10
4.18608631561027
 20
-6.234858677466819
 30
0.0
 10
4.18608631561027
 20
-6.65672461460205
 30
0.0
 10
4.18608631561027
 20
-6.65672461460205
 30
0.0
 10
4.18608631561027
 20
-6.65672461460205
 30
0.0
 10
4.304596993106593
 20
-6.65672461460205
 30
0.0
 10
4.304596993106593
 20
-6.65672461460205
 30
0.0
 10
4.304596993106593
 20
-6.65672461460205
 30
0.0
 10
4.304596993106593
 20
-6.434468705662336
 30
0.0
 10
4.304596993106593
 20
-6.434468705662336
 30
0.0
 10
4.304596993106593
 20
-6.434468705662336
 30
0.0
 10
4.318035208053693
 20
-6.434468705662336
 30
0.0
 10
4.318035208053693
 20
-6.434468705662336
 30
0.0
 10
4.331473423000792
 20
-6.434468705662336
 30
0.0
 10
4.346902484606718
 20
-6.438975761292745
 30
0.0
 10
4.346902484606718
 20
-6.474092084302633
 30
0.0
 10
4.346902484606718
 20
-6.474092084302633
 30
0.0
 10
4.346902484606718
 20
-6.65672461460205
 30
0.0
 10
4.346902484606718
 20
-6.65672461460205
 30
0.0
 10
4.346902484606718
 20
-6.65672461460205
 30
0.0
 10
4.461237914249119
 20
-6.65672461460205
 30
0.0
 10
4.461237914249119
 20
-6.65672461460205
 30
0.0
 10
4.461237914249119
 20
-6.65672461460205
 30
0.0
 10
4.461237914249119
 20
-6.464165501656528
 30
0.0
 10
4.461237914249119
 20
-6.464165501656528
 30
0.0
 10
4.461237914249119
 20
-6.442017332577052
 30
0.0
 10
4.454242300295164
 20
-6.424210315239734
 30
0.0
 10
4.440472277571618
 20
-6.411242161309347
 30
0.0
  0
SPLINE
  5
72
330
41
100
AcDbEntity
  8
ThermoDefender
370
     0
100
AcDbSpline
210
0.0
220
0.0
230
1.0
 70
    11
 71
     3
 72
    26
 73
    22
 74
     0
 42
0.0000000001
 43
0.0000000001
 12
1.0
 22
0.0
 32
0.0
 13
1.0
 23
0.0
 33
0.0
 40
0.0
 40
0.0
 40
0.0
 40
0.0
 40
1.0
 40
1.0
 40
1.0
 40
2.0
 40
2.0
 40
2.0
 40
3.0
 40
3.0
 40
3.0
 40
4.0
 40
4.0
 40
4.0
 40
5.0
 40
5.0
 40
5.0
 40
6.0
 40
6.0
 40
6.0
 40
7.0
 40
7.0
 40
7.0
 40
7.0
 10
4.318035208053693
 20
-6.360807379285689
 30
0.0
 10
4.318035208053693
 20
-6.360807379285689
 30
0.0
 10
4.304596993106593
 20
-6.360807379285689
 30
0.0
 10
4.304596993106593
 20
-6.360807379285689
 30
0.0
 10
4.304596993106593
 20
-6.360807379285689
 30
0.0
 10
4.304596993106593
 20
-6.224932094820688
 30
0.0
 10
4.304596993106593
 20
-6.224932094820688
 30
0.0
 10
4.304596993106593
 20
-6.208369356645158
 30
0.0
 10
4.31073543697135
 20
-6.201594947875517
 30
0.0
 10
4.325749738856656
 20
-6.201594947875517
 30
0.0
 10
4.340764040741962
 20
-6.201594947875517
 30
0.0
 10
4.346902484606718
 20
-6.208369356645158
 30
0.0
 10
4.346902484606718
 20
-6.224932094820688
 30
0.0
 10
4.346902484606718
 20
-6.224932094820688
 30
0.0
 10
4.346902484606718
 20
-6.324032017393442
 30
0.0
 10
4.346902484606718
 20
-6.324032017393442
 30
0.0
 10
4.346902484606718
 20
-6.338023245301327
 30
0.0
 10
4.344330974339047
 20
-6.348088081187623
 30
0.0
 10
4.339464460284136
 20
-6.353203451074907
 30
0.0
 10
4.334597946229223
 20
-6.358318820962166
 30
0.0
 10
4.327574681627261
 20
-6.360807379285689
 30
0.0
 10
4.318035208053693
 20
-6.360807379285689
 30
0.0
  0
HATCH
  5
73
330
41
100
AcDbEntity
  8
ThermoDefender
 62
     7
420
 16777215
100
AcDbHatch
 10
0.0
 20
0.0
 30
0.0
210
0.0
220
0.0
230
1.0
  2
SOLID
 70
     1
 71
     0
 91
        2
 92
        1
 93
        1
 72
     4
 94
        3
 73
     0
 74
     1
 95
       65
 96
       61
 40
0.0
 40
0.0
 40
0.0
 40
0.0
 40
1.0
 40
1.0
 40
1.0
 40
2.0
 40
2.0
 40
2.0
 40
3.0
 40
3.0
 40
3.0
 40
4.0
 40
4.0
 40
4.0
 40
5.0
 40
5.0
 40
5.0
 40
6.0
 40
6.0
 40
6.0
 40
7.0
 40
7.0
 40
7.0
 40
8.0
 40
8.0
 40
8.0
 40
9.0
 40
9.0
 40
9.0
 40
10.0
 40
10.0
 40
10.0
 40
11.0
 40
11.0
 40
11.0
 40
12.0
 40
12.0
 40
12.0
 40
13.0
 40
13.0
 40
13.0
 40
14.0
 40
14.0
 40
14.0
 40
15.0
 40
15.0
 40
15.0
 40
16.0
 40
16.0
 40
16.0
 40
17.0
 40
17.0
 40
17.0
 40
18.0
 40
18.0
 40
18.0
 40
19.0
 40
19.0
 40
19.0
 40
20.0
 40
20.0
 40
20.0
 40
20.0
 10
4.440472277571618
 20
-6.411242161309347
 10
4.433863772690251
 20
-6.40504841614855
 10
4.42548562633432
 20
-6.399988347557357
 10
4.415393139799991
 20
-6.396089606183826
 10
4.425347373094129
 20
-6.391776105089674
 10
4.43344901296963
 20
-6.385997119649472
 10
4.439615107482394
 20
-6.378752649863195
 10
4.452002597803989
 20
-6.364263710290591
 10
4.45827929490891
 20
-6.34371927879743
 10
4.45827929490891
 20
-6.317672368344422
 10
4.45827929490891
 20
-6.317672368344422
 10
4.45827929490891
 20
-6.235549943667769
 10
4.45827929490891
 20
-6.235549943667769
 10
4.45827929490891
 20
-6.214120691437352
 10
4.454933566496164
 20
-6.195898914379439
 10
4.448297410966739
 20
-6.18140997480686
 10
4.441578303493189
 20
-6.166699830049967
 10
4.432011179271614
 20
-6.154644147504819
 10
4.419844894134308
 20
-6.145547084299929
 10
4.407816862237243
 20
-6.136615924983213
 10
4.393576427697655
 20
-6.130173323990069
 10
4.377539402634207
 20
-6.126385185208695
 10
4.345962362573396
 20
-6.118947160886137
 10
4.304735246346783
 20
-6.119140715422392
 10
4.271996879068309
 20
-6.126357534560687
 10
4.254991730524162
 20
-6.130118022694003
 10
4.240005079286864
 20
-6.136394719798949
 10
4.227451685077047
 20
-6.145021721987177
 10
4.214621784386812
 20
-6.153842278711712
 10
4.204391044612268
 20
-6.165897961256809
 10
4.197063622881867
 20
-6.180829311198017
 10
4.189763851799474
 20
-6.195594757251026
 10
4.18608631561027
 20
-6.213761233012847
 10
4.18608631561027
 20
-6.234858677466819
 10
4.18608631561027
 20
-6.234858677466819
 10
4.18608631561027
 20
-6.65672461460205
 10
4.18608631561027
 20
-6.65672461460205
 10
4.18608631561027
 20
-6.65672461460205
 10
4.304596993106593
 20
-6.65672461460205
 10
4.304596993106593
 20
-6.65672461460205
 10
4.304596993106593
 20
-6.65672461460205
 10
4.304596993106593
 20
-6.434468705662336
 10
4.304596993106593
 20
-6.434468705662336
 10
4.304596993106593
 20
-6.434468705662336
 10
4.318035208053693
 20
-6.434468705662336
 10
4.318035208053693
 20
-6.434468705662336
 10
4.331473423000792
 20
-6.434468705662336
 10
4.346902484606718
 20
-6.438975761292745
 10
4.346902484606718
 20
-6.474092084302633
 10
4.346902484606718
 20
-6.474092084302633
 10
4.346902484606718
 20
-6.65672461460205
 10
4.346902484606718
 20
-6.65672461460205
 10
4.346902484606718
 20
-6.65672461460205
 10
4.461237914249119
 20
-6.65672461460205
 10
4.461237914249119
 20
-6.65672461460205
 10
4.461237914249119
 20
-6.65672461460205
 10
4.461237914249119
 20
-6.464165501656528
 10
4.461237914249119
 20
-6.464165501656528
 10
4.461237914249119
 20
-6.442017332577052
 10
4.454242300295164
 20
-6.424210315239734
 10
4.440472277571618
 20
-6.411242161309347
 97
        0
 97
        0
 92
        1
 93
        1
 72
     4
 94
        3
 73
     0
 74
     1
 95
       26
 96
       22
 40
0.0
 40
0.0
 40
0.0
 40
0.0
 40
1.0
 40
1.0
 40
1.0
 40
2.0
 40
2.0
 40
2.0
 40
3.0
 40
3.0
 40
3.0
 40
4.0
 40
4.0
 40
4.0
 40
5.0
 40
5.0
 40
5.0
 40
6.0
 40
6.0
 40
6.0
 40
7.0
 40
7.0
 40
7.0
 40
7.0
 10
4.318035208053693
 20
-6.360807379285689
 10
4.318035208053693
 20
-6.360807379285689
 10
4.304596993106593
 20
-6.360807379285689
 10
4.304596993106593
 20
-6.360807379285689
 10
4.304596993106593
 20
-6.360807379285689
 10
4.304596993106593
 20
-6.224932094820688
 10
4.304596993106593
 20
-6.224932094820688
 10
4.304596993106593
 20
-6.208369356645158
 10
4.31073543697135
 20
-6.201594947875517
 10
4.325749738856656
 20
-6.201594947875517
 10
4.340764040741962
 20
-6.201594947875517
 10
4.346902484606718
 20
-6.208369356645158
 10
4.346902484606718
 20
-6.224932094820688
 10
4.346902484606718
 20
-6.224932094820688
 10
4.346902484606718
 20
-6.324032017393442
 10
4.346902484606718
 20
-6.324032017393442
 10
4.346902484606718
 20
-6.338023245301327
 10
4.344330974339047
 20
-6.348088081187623
 10
4.339464460284136
 20
-6.353203451074907
 10
4.334597946229223
 20
-6.358318820962166
 10
4.327574681627261
 20
-6.360807379285689
 10
4.318035208053693
 20
-6.360807379285689
 97
        0
 97
        0
 75
     2
 76
     1
 98
        0
  0
SPLINE
  5
74
330
41
100
AcDbEntity
  8
ThermoDefender
370
     0
100
AcDbSpline
210
0.0
220
0.0
230
1.0
 70
    11
 71
     3
 72
    77
 73
    73
 74
     0
 42
0.0000000001
 43
0.0000000001
 12
1.0
 22
0.0
 32
0.0
 13
1.0
 23
0.0
 33
0.0
 40
0.0
 40
0.0
 40
0.0
 40
0.0
 40
1.0
 40
1.0
 40
1.0
 40
2.0
 40
2.0
 40
2.0
 40
3.0
 40
3.0
 40
3.0
 40
4.0
 40
4.0
 40
4.0
 40
5.0
 40
5.0
 40
5.0
 40
6.0
 40
6.0
 40
6.0
 40
7.0
 40
7.0
 40
7.0
 40
8.0
 40
8.0
 40
8.0
 40
9.0
 40
9.0
 40
9.0
 40
10.0
 40
10.0
 40
10.0
 40
11.0
 40
11.0
 40
11.0
 40
12.0
 40
12.0
 40
12.0
 40
13.0
 40
13.0
 40
13.0
 40
14.0
 40
14.0
 40
14.0
 40
15.0
 40
15.0
 40
15.0
 40
16.0
 40
16.0
 40
16.0
 40
17.0
 40
17.0
 40
17.0
 40
18.0
 40
18.0
 40
18.0
 40
19.0
 40
19.0
 40
19.0
 40
20.0
 40
20.0
 40
20.0
 40
21.0
 40
21.0
 40
21.0
 40
22.0
 40
22.0
 40
22.0
 40
23.0
 40
23.0
 40
23.0
 40
24.0
 40
24.0
 40
24.0
 40
24.0
 10
4.919187947075645
 20
-6.181244070918638
 30
0.0
 10
4.91163932016093
 20
-6.167391096250918
 30
0.0
 10
4.90149153233051
 20
-6.155833125370539
 30
0.0
 10
4.889076028044125
 20
-6.146901966053847
 30
0.0
 10
4.876799503631446
 20
-6.138053758681281
 30
0.0
 10
4.862393516002966
 20
-6.13141760315188
 30
0.0
 10
4.846190236251965
 20
-6.127159403353819
 30
0.0
 10
4.830291113629376
 20
-6.122984155499883
 30
0.0
 10
4.813285965085192
 20
-6.12085505560084
 30
0.0
 10
4.795672502284181
 20
-6.12085505560084
 30
0.0
 10
4.763238292134095
 20
-6.12085505560084
 30
0.0
 10
4.735006980485978
 20
-6.129565009733242
 30
0.0
 10
4.711614532244791
 20
-6.146736062165624
 30
0.0
 10
4.689853472237852
 20
-6.129565009733242
 30
0.0
 10
4.662064570958389
 20
-6.12085505560084
 30
0.0
 10
4.62891144395932
 20
-6.12085505560084
 30
0.0
 10
4.61129798115831
 20
-6.12085505560084
 30
0.0
 10
4.594209880670001
 20
-6.122984155499883
 30
0.0
 10
4.578144854159214
 20
-6.127159403353819
 30
0.0
 10
4.56177567051994
 20
-6.13141760315188
 30
0.0
 10
4.54709317641108
 20
-6.138026108033247
 30
0.0
 10
4.534484480905172
 20
-6.146819014109698
 30
0.0
 10
4.521543977622792
 20
-6.155777824074473
 30
0.0
 10
4.511174984608033
 20
-6.16736344560291
 30
0.0
 10
4.503626357693343
 20
-6.181244070918638
 30
0.0
 10
4.496077730778577
 20
-6.195152346882373
 30
0.0
 10
4.492234290701163
 20
-6.211770386353995
 30
0.0
 10
4.492234290701163
 20
-6.230600477668759
 30
0.0
 10
4.492234290701163
 20
-6.230600477668759
 30
0.0
 10
4.492234290701163
 20
-6.65672461460205
 30
0.0
 10
4.492234290701163
 20
-6.65672461460205
 30
0.0
 10
4.492234290701163
 20
-6.65672461460205
 30
0.0
 10
4.610744968197499
 20
-6.65672461460205
 30
0.0
 10
4.610744968197499
 20
-6.65672461460205
 30
0.0
 10
4.610744968197499
 20
-6.65672461460205
 30
0.0
 10
4.610744968197499
 20
-6.22778011156874
 30
0.0
 10
4.610744968197499
 20
-6.22778011156874
 30
0.0
 10
4.610744968197499
 20
-6.211217373393183
 30
0.0
 10
4.616883412062204
 20
-6.204442964623594
 30
0.0
 10
4.631897713947561
 20
-6.204442964623594
 30
0.0
 10
4.636570673466192
 20
-6.204442964623594
 30
0.0
 10
4.6410777290966
 20
-6.206323208690239
 30
0.0
 10
4.645667736671107
 20
-6.210194299415762
 30
0.0
 10
4.649898285821109
 20
-6.213761233012847
 30
0.0
 10
4.651861481831904
 20
-6.218019432810883
 30
0.0
 10
4.651861481831904
 20
-6.223521911770679
 30
0.0
 10
4.651861481831904
 20
-6.223521911770679
 30
0.0
 10
4.651861481831904
 20
-6.65672461460205
 30
0.0
 10
4.651861481831904
 20
-6.65672461460205
 30
0.0
 10
4.651861481831904
 20
-6.65672461460205
 30
0.0
 10
4.77037215932824
 20
-6.65672461460205
 30
0.0
 10
4.77037215932824
 20
-6.65672461460205
 30
0.0
 10
4.77037215932824
 20
-6.65672461460205
 30
0.0
 10
4.77037215932824
 20
-6.230600477668759
 30
0.0
 10
4.77037215932824
 20
-6.230600477668759
 30
0.0
 10
4.77037215932824
 20
-6.207539837203992
 30
0.0
 10
4.780768802991006
 20
-6.204442964623594
 30
0.0
 10
4.790916590821451
 20
-6.204442964623594
 30
0.0
 10
4.806373303075386
 20
-6.204442964623594
 30
0.0
 10
4.812677650828365
 20
-6.211217373393183
 30
0.0
 10
4.812677650828365
 20
-6.22778011156874
 30
0.0
 10
4.812677650828365
 20
-6.22778011156874
 30
0.0
 10
4.812677650828365
 20
-6.65672461460205
 30
0.0
 10
4.812677650828365
 20
-6.65672461460205
 30
0.0
 10
4.812677650828365
 20
-6.65672461460205
 30
0.0
 10
4.930580014067851
 20
-6.65672461460205
 30
0.0
 10
4.930580014067851
 20
-6.65672461460205
 30
0.0
 10
4.930580014067851
 20
-6.65672461460205
 30
0.0
 10
4.930580014067851
 20
-6.230600477668759
 30
0.0
 10
4.930580014067851
 20
-6.230600477668759
 30
0.0
 10
4.930580014067851
 20
-6.211770386353995
 30
0.0
 10
4.926736573990334
 20
-6.195152346882373
 30
0.0
 10
4.919187947075645
 20
-6.181244070918638
 30
0.0
  0
HATCH
  5
75
330
41
100
AcDbEntity
  8
ThermoDefender
 62
     7
420
 16777215
100
AcDbHatch
 10
0.0
 20
0.0
 30
0.0
210
0.0
220
0.0
230
1.0
  2
SOLID
 70
     1
 71
     0
 91
        1
 92
        1
 93
        1
 72
     4
 94
        3
 73
     0
 74
     1
 95
       77
 96
       73
 40
0.0
 40
0.0
 40
0.0
 40
0.0
 40
1.0
 40
1.0
 40
1.0
 40
2.0
 40
2.0
 40
2.0
 40
3.0
 40
3.0
 40
3.0
 40
4.0
 40
4.0
 40
4.0
 40
5.0
 40
5.0
 40
5.0
 40
6.0
 40
6.0
 40
6.0
 40
7.0
 40
7.0
 40
7.0
 40
8.0
 40
8.0
 40
8.0
 40
9.0
 40
9.0
 40
9.0
 40
10.0
 40
10.0
 40
10.0
 40
11.0
 40
11.0
 40
11.0
 40
12.0
 40
12.0
 40
12.0
 40
13.0
 40
13.0
 40
13.0
 40
14.0
 40
14.0
 40
14.0
 40
15.0
 40
15.0
 40
15.0
 40
16.0
 40
16.0
 40
16.0
 40
17.0
 40
17.0
 40
17.0
 40
18.0
 40
18.0
 40
18.0
 40
19.0
 40
19.0
 40
19.0
 40
20.0
 40
20.0
 40
20.0
 40
21.0
 40
21.0
 40
21.0
 40
22.0
 40
22.0
 40
22.0
 40
23.0
 40
23.0
 40
23.0
 40
24.0
 40
24.0
 40
24.0
 40
24.0
 10
4.919187947075645
 20
-6.181244070918638
 10
4.91163932016093
 20
-6.167391096250918
 10
4.90149153233051
 20
-6.155833125370539
 10
4.889076028044125
 20
-6.146901966053847
 10
4.876799503631446
 20
-6.138053758681281
 10
4.862393516002966
 20
-6.13141760315188
 10
4.846190236251965
 20
-6.127159403353819
 10
4.830291113629376
 20
-6.122984155499883
 10
4.813285965085192
 20
-6.12085505560084
 10
4.795672502284181
 20
-6.12085505560084
 10
4.763238292134095
 20
-6.12085505560084
 10
4.735006980485978
 20
-6.129565009733242
 10
4.711614532244791
 20
-6.146736062165624
 10
4.689853472237852
 20
-6.129565009733242
 10
4.662064570958389
 20
-6.12085505560084
 10
4.62891144395932
 20
-6.12085505560084
 10
4.61129798115831
 20
-6.12085505560084
 10
4.594209880670001
 20
-6.122984155499883
 10
4.578144854159214
 20
-6.127159403353819
 10
4.56177567051994
 20
-6.13141760315188
 10
4.54709317641108
 20
-6.138026108033247
 10
4.534484480905172
 20
-6.146819014109698
 10
4.521543977622792
 20
-6.155777824074473
 10
4.511174984608033
 20
-6.16736344560291
 10
4.503626357693343
 20
-6.181244070918638
 10
4.496077730778577
 20
-6.195152346882373
 10
4.492234290701163
 20
-6.211770386353995
 10
4.492234290701163
 20
-6.230600477668759
 10
4.492234290701163
 20
-6.230600477668759
 10
4.492234290701163
 20
-6.65672461460205
 10
4.492234290701163
 20
-6.65672461460205
 10
4.492234290701163
 20
-6.65672461460205
 10
4.610744968197499
 20
-6.65672461460205
 10
4.610744968197499
 20
-6.65672461460205
 10
4.610744968197499
 20
-6.65672461460205
 10
4.610744968197499
 20
-6.22778011156874
 10
4.610744968197499
 20
-6.22778011156874
 10
4.610744968197499
 20
-6.211217373393183
 10
4.616883412062204
 20
-6.204442964623594
 10
4.631897713947561
 20
-6.204442964623594
 10
4.636570673466192
 20
-6.204442964623594
 10
4.6410777290966
 20
-6.206323208690239
 10
4.645667736671107
 20
-6.210194299415762
 10
4.649898285821109
 20
-6.213761233012847
 10
4.651861481831904
 20
-6.218019432810883
 10
4.651861481831904
 20
-6.223521911770679
 10
4.651861481831904
 20
-6.223521911770679
 10
4.651861481831904
 20
-6.65672461460205
 10
4.651861481831904
 20
-6.65672461460205
 10
4.651861481831904
 20
-6.65672461460205
 10
4.77037215932824
 20
-6.65672461460205
 10
4.77037215932824
 20
-6.65672461460205
 10
4.77037215932824
 20
-6.65672461460205
 10
4.77037215932824
 20
-6.230600477668759
 10
4.77037215932824
 20
-6.230600477668759
 10
4.77037215932824
 20
-6.207539837203992
 10
4.780768802991006
 20
-6.204442964623594
 10
4.790916590821451
 20
-6.204442964623594
 10
4.806373303075386
 20
-6.204442964623594
 10
4.812677650828365
 20
-6.211217373393183
 10
4.812677650828365
 20
-6.22778011156874
 10
4.812677650828365
 20
-6.22778011156874
 10
4.812677650828365
 20
-6.65672461460205
 10
4.812677650828365
 20
-6.65672461460205
 10
4.812677650828365
 20
-6.65672461460205
 10
4.930580014067851
 20
-6.65672461460205
 10
4.930580014067851
 20
-6.65672461460205
 10
4.930580014067851
 20
-6.65672461460205
 10
4.930580014067851
 20
-6.230600477668759
 10
4.930580014067851
 20
-6.230600477668759
 10
4.930580014067851
 20
-6.211770386353995
 10
4.926736573990334
 20
-6.195152346882373
 10
4.919187947075645
 20
-6.181244070918638
 97
        0
 97
        0
 75
     2
 76
     1
 98
        0
  0
INSERT
  5
77
330
41
100
AcDbEntity
  8
ThermoDefender
100
AcDbBlockReference
  2
block 3
 10
0.0
 20
0.0
 30
0.0
  0
SPLINE
  5
8D
330
41
100
AcDbEntity
  8
ThermoDefender
370
     0
100
AcDbSpline
210
0.0
220
0.0
230
1.0
 70
    11
 71
     3
 72
    59
 73
    55
 74
     0
 42
0.0000000001
 43
0.0000000001
 12
1.0
 22
0.0
 32
0.0
 13
1.0
 23
0.0
 33
0.0
 40
0.0
 40
0.0
 40
0.0
 40
0.0
 40
1.0
 40
1.0
 40
1.0
 40
2.0
 40
2.0
 40
2.0
 40
3.0
 40
3.0
 40
3.0
 40
4.0
 40
4.0
 40
4.0
 40
5.0
 40
5.0
 40
5.0
 40
6.0
 40
6.0
 40
6.0
 40
7.0
 40
7.0
 40
7.0
 40
8.0
 40
8.0
 40
8.0
 40
9.0
 40
9.0
 40
9.0
 40
10.0
 40
10.0
 40
10.0
 40
11.0
 40
11.0
 40
11.0
 40
12.0
 40
12.0
 40
12.0
 40
13.0
 40
13.0
 40
13.0
 40
14.0
 40
14.0
 40
14.0
 40
15.0
 40
15.0
 40
15.0
 40
16.0
 40
16.0
 40
16.0
 40
17.0
 40
17.0
 40
17.0
 40
18.0
 40
18.0
 40
18.0
 40
18.0
 10
5.220193162490432
 20
-6.184948933715632
 30
0.0
 10
5.213473693426295
 20
-6.171510650634066
 30
0.0
 10
5.20426635698982
 20
-6.160644080902657
 30
0.0
 10
5.19259735504905
 20
-6.152376736482816
 30
0.0
 10
5.180929008154963
 20
-6.14413690402446
 30
0.0
 10
5.167186783403874
 20
-6.138219212123001
 30
0.0
 10
5.151342513787666
 20
-6.134679994794699
 30
0.0
 10
5.135526411179575
 20
-6.131140777466448
 30
0.0
 10
5.118521398808247
 20
-6.129371496325626
 30
0.0
 10
5.100327476673707
 20
-6.129371496325626
 30
0.0
 10
5.081718254930365
 20
-6.129371496325626
 30
0.0
 10
5.064409300889539
 20
-6.131140777466448
 30
0.0
 10
5.048399304457815
 20
-6.134679994794699
 30
0.0
 10
5.032361796064631
 20
-6.138219212123001
 30
0.0
 10
5.018508868421021
 20
-6.144026201131939
 30
0.0
 10
5.006868033488394
 20
-6.152044627805177
 30
0.0
 10
4.995172174632873
 20
-6.160063709525098
 30
0.0
 10
4.985991695111124
 20
-6.170902767295072
 30
0.0
 10
4.979272881093695
 20
-6.184589313076509
 30
0.0
 10
4.972525900068098
 20
-6.198276513904653
 30
0.0
 10
4.969180576563454
 20
-6.215033263576085
 30
0.0
 10
4.969180576563454
 20
-6.234858251997442
 30
0.0
 10
4.969180576563454
 20
-6.234858251997442
 30
0.0
 10
4.969180576563454
 20
-6.55831572787843
 30
0.0
 10
4.969180576563454
 20
-6.55831572787843
 30
0.0
 10
4.969180576563454
 20
-6.578141371346444
 30
0.0
 10
4.972525900068098
 20
-6.594897465971194
 30
0.0
 10
4.979272881093695
 20
-6.608557154837879
 30
0.0
 10
4.985991695111124
 20
-6.622271867627508
 30
0.0
 10
4.995172174632873
 20
-6.633110925397457
 30
0.0
 10
5.006868033488394
 20
-6.641129352070695
 30
0.0
 10
5.018508868421021
 20
-6.649148433790641
 30
0.0
 10
5.032361796064631
 20
-6.654927255791411
 30
0.0
 10
5.048399304457815
 20
-6.658466473119713
 30
0.0
 10
5.064409300889539
 20
-6.66200569044799
 30
0.0
 10
5.081718254930365
 20
-6.66377562663547
 30
0.0
 10
5.100327476673707
 20
-6.66377562663547
 30
0.0
 10
5.118521398808247
 20
-6.66377562663547
 30
0.0
 10
5.135526411179575
 20
-6.66200569044799
 30
0.0
 10
5.151342513787666
 20
-6.658466473119713
 30
0.0
 10
5.167186783403874
 20
-6.654927255791411
 30
0.0
 10
5.180929008154963
 20
-6.649037730898094
 30
0.0
 10
5.19259735504905
 20
-6.64076973143157
 30
0.0
 10
5.20426635698982
 20
-6.632529898973214
 30
0.0
 10
5.213473693426295
 20
-6.621663329241805
 30
0.0
 10
5.220193162490432
 20
-6.608225046160239
 30
0.0
 10
5.226911976507861
 20
-6.594759251117188
 30
0.0
 10
5.230285467020672
 20
-6.577892453599916
 30
0.0
 10
5.230285467020672
 20
-6.557597141646864
 30
0.0
 10
5.230285467020672
 20
-6.557597141646864
 30
0.0
 10
5.230285467020672
 20
-6.235549981314256
 30
0.0
 10
5.230285467020672
 20
-6.235549981314256
 30
0.0
 10
5.230285467020672
 20
-6.215282181322664
 30
0.0
 10
5.226911976507861
 20
-6.198387216797224
 30
0.0
 10
5.220193162490432
 20
-6.184948933715632
 30
0.0
  0
SPLINE
  5
8E
330
41
100
AcDbEntity
  8
ThermoDefender
370
     0
100
AcDbSpline
210
0.0
220
0.0
230
1.0
 70
    11
 71
     3
 72
    53
 73
    49
 74
     0
 42
0.0000000001
 43
0.0000000001
 12
1.0
 22
0.0
 32
0.0
 13
1.0
 23
0.0
 33
0.0
 40
0.0
 40
0.0
 40
0.0
 40
0.0
 40
1.0
 40
1.0
 40
1.0
 40
2.0
 40
2.0
 40
2.0
 40
3.0
 40
3.0
 40
3.0
 40
4.0
 40
4.0
 40
4.0
 40
5.0
 40
5.0
 40
5.0
 40
6.0
 40
6.0
 40
6.0
 40
7.0
 40
7.0
 40
7.0
 40
8.0
 40
8.0
 40
8.0
 40
9.0
 40
9.0
 40
9.0
 40
10.0
 40
10.0
 40
10.0
 40
11.0
 40
11.0
 40
11.0
 40
12.0
 40
12.0
 40
12.0
 40
13.0
 40
13.0
 40
13.0
 40
14.0
 40
14.0
 40
14.0
 40
15.0
 40
15.0
 40
15.0
 40
16.0
 40
16.0
 40
16.0
 40
16.0
 10
5.115471501365997
 20
-6.48429545060728
 30
0.0
 10
5.115471501365997
 20
-6.48429545060728
 30
0.0
 10
5.112606982140278
 20
-6.468052257549819
 30
0.0
 10
5.112606982140278
 20
-6.468052257549819
 30
0.0
 10
5.10410971632824
 20
-6.471732309918934
 30
0.0
 10
5.094498871123632
 20
-6.471885590847099
 30
0.0
 10
5.085888282232215
 20
-6.468478692952531
 30
0.0
 10
5.085888282232215
 20
-6.468478692952531
 30
0.0
 10
5.083098438330429
 20
-6.484302001074284
 30
0.0
 10
5.083098438330429
 20
-6.484302001074284
 30
0.0
 10
5.04646364145487
 20
-6.47758646229037
 30
0.0
 10
5.017792902376262
 20
-6.448926859005698
 30
0.0
 10
5.01106360761158
 20
-6.412295337363578
 30
0.0
 10
5.01106360761158
 20
-6.412295337363578
 30
0.0
 10
5.027306800669066
 20
-6.409430818137884
 30
0.0
 10
5.027306800669066
 20
-6.409430818137884
 30
0.0
 10
5.023626748299951
 20
-6.400933552325821
 30
0.0
 10
5.023473467371787
 20
-6.391322707121212
 30
0.0
 10
5.026880365266353
 20
-6.382712118229796
 30
0.0
 10
5.026880365266353
 20
-6.382712118229796
 30
0.0
 10
5.0110570571446
 20
-6.379922274328059
 30
0.0
 10
5.0110570571446
 20
-6.379922274328059
 30
0.0
 10
5.017772595928514
 20
-6.343287477452425
 30
0.0
 10
5.046432199213162
 20
-6.314616738373868
 30
0.0
 10
5.083063720855281
 20
-6.307887443609211
 30
0.0
 10
5.083063720855281
 20
-6.307887443609211
 30
0.0
 10
5.085928240080976
 20
-6.324130636666673
 30
0.0
 10
5.085928240080976
 20
-6.324130636666673
 30
0.0
 10
5.094425505893014
 20
-6.320450584297557
 30
0.0
 10
5.104036351097673
 20
-6.320297303369393
 30
0.0
 10
5.112646939989089
 20
-6.323704201263959
 30
0.0
 10
5.112646939989089
 20
-6.323704201263959
 30
0.0
 10
5.1154367838908
 20
-6.307880893142156
 30
0.0
 10
5.1154367838908
 20
-6.307880893142156
 30
0.0
 10
5.152070925719727
 20
-6.314596431926096
 30
0.0
 10
5.180742319845042
 20
-6.343256035210768
 30
0.0
 10
5.187471614609674
 20
-6.379887556852863
 30
0.0
 10
5.187471614609674
 20
-6.379887556852863
 30
0.0
 10
5.171228421552238
 20
-6.382752076078582
 30
0.0
 10
5.171228421552238
 20
-6.382752076078582
 30
0.0
 10
5.174908473921353
 20
-6.391249341890645
 30
0.0
 10
5.175061754849493
 20
-6.400860187095254
 30
0.0
 10
5.171654856954925
 20
-6.409470775986669
 30
0.0
 10
5.171654856954925
 20
-6.409470775986669
 30
0.0
 10
5.187478165076704
 20
-6.412260619888431
 30
0.0
 10
5.187478165076704
 20
-6.412260619888431
 30
0.0
 10
5.180762626292764
 20
-6.44889541676404
 30
0.0
 10
5.152103023008092
 20
-6.477566155842624
 30
0.0
 10
5.115471501365997
 20
-6.48429545060728
 30
0.0
  0
HATCH
  5
8F
330
41
100
AcDbEntity
  8
ThermoDefender
 62
     7
420
 16777215
100
AcDbHatch
 10
0.0
 20
0.0
 30
0.0
210
0.0
220
0.0
230
1.0
  2
SOLID
 70
     1
 71
     0
 91
        2
 92
        1
 93
        1
 72
     4
 94
        3
 73
     0
 74
     1
 95
       59
 96
       55
 40
0.0
 40
0.0
 40
0.0
 40
0.0
 40
1.0
 40
1.0
 40
1.0
 40
2.0
 40
2.0
 40
2.0
 40
3.0
 40
3.0
 40
3.0
 40
4.0
 40
4.0
 40
4.0
 40
5.0
 40
5.0
 40
5.0
 40
6.0
 40
6.0
 40
6.0
 40
7.0
 40
7.0
 40
7.0
 40
8.0
 40
8.0
 40
8.0
 40
9.0
 40
9.0
 40
9.0
 40
10.0
 40
10.0
 40
10.0
 40
11.0
 40
11.0
 40
11.0
 40
12.0
 40
12.0
 40
12.0
 40
13.0
 40
13.0
 40
13.0
 40
14.0
 40
14.0
 40
14.0
 40
15.0
 40
15.0
 40
15.0
 40
16.0
 40
16.0
 40
16.0
 40
17.0
 40
17.0
 40
17.0
 40
18.0
 40
18.0
 40
18.0
 40
18.0
 10
5.220193162490432
 20
-6.184948933715632
 10
5.213473693426295
 20
-6.171510650634066
 10
5.20426635698982
 20
-6.160644080902657
 10
5.19259735504905
 20
-6.152376736482816
 10
5.180929008154963
 20
-6.14413690402446
 10
5.167186783403874
 20
-6.138219212123001
 10
5.151342513787666
 20
-6.134679994794699
 10
5.135526411179575
 20
-6.131140777466448
 10
5.118521398808247
 20
-6.129371496325626
 10
5.100327476673707
 20
-6.129371496325626
 10
5.081718254930365
 20
-6.129371496325626
 10
5.064409300889539
 20
-6.131140777466448
 10
5.048399304457815
 20
-6.134679994794699
 10
5.032361796064631
 20
-6.138219212123001
 10
5.018508868421021
 20
-6.144026201131939
 10
5.006868033488394
 20
-6.152044627805177
 10
4.995172174632873
 20
-6.160063709525098
 10
4.985991695111124
 20
-6.170902767295072
 10
4.979272881093695
 20
-6.184589313076509
 10
4.972525900068098
 20
-6.198276513904653
 10
4.969180576563454
 20
-6.215033263576085
 10
4.969180576563454
 20
-6.234858251997442
 10
4.969180576563454
 20
-6.234858251997442
 10
4.969180576563454
 20
-6.55831572787843
 10
4.969180576563454
 20
-6.55831572787843
 10
4.969180576563454
 20
-6.578141371346444
 10
4.972525900068098
 20
-6.594897465971194
 10
4.979272881093695
 20
-6.608557154837879
 10
4.985991695111124
 20
-6.622271867627508
 10
4.995172174632873
 20
-6.633110925397457
 10
5.006868033488394
 20
-6.641129352070695
 10
5.018508868421021
 20
-6.649148433790641
 10
5.032361796064631
 20
-6.654927255791411
 10
5.048399304457815
 20
-6.658466473119713
 10
5.064409300889539
 20
-6.66200569044799
 10
5.081718254930365
 20
-6.66377562663547
 10
5.100327476673707
 20
-6.66377562663547
 10
5.118521398808247
 20
-6.66377562663547
 10
5.135526411179575
 20
-6.66200569044799
 10
5.151342513787666
 20
-6.658466473119713
 10
5.167186783403874
 20
-6.654927255791411
 10
5.180929008154963
 20
-6.649037730898094
 10
5.19259735504905
 20
-6.64076973143157
 10
5.20426635698982
 20
-6.632529898973214
 10
5.213473693426295
 20
-6.621663329241805
 10
5.220193162490432
 20
-6.608225046160239
 10
5.226911976507861
 20
-6.594759251117188
 10
5.230285467020672
 20
-6.577892453599916
 10
5.230285467020672
 20
-6.557597141646864
 10
5.230285467020672
 20
-6.557597141646864
 10
5.230285467020672
 20
-6.235549981314256
 10
5.230285467020672
 20
-6.235549981314256
 10
5.230285467020672
 20
-6.215282181322664
 10
5.226911976507861
 20
-6.198387216797224
 10
5.220193162490432
 20
-6.184948933715632
 97
        0
 97
        0
 92
        1
 93
        1
 72
     4
 94
        3
 73
     0
 74
     1
 95
       53
 96
       49
 40
0.0
 40
0.0
 40
0.0
 40
0.0
 40
1.0
 40
1.0
 40
1.0
 40
2.0
 40
2.0
 40
2.0
 40
3.0
 40
3.0
 40
3.0
 40
4.0
 40
4.0
 40
4.0
 40
5.0
 40
5.0
 40
5.0
 40
6.0
 40
6.0
 40
6.0
 40
7.0
 40
7.0
 40
7.0
 40
8.0
 40
8.0
 40
8.0
 40
9.0
 40
9.0
 40
9.0
 40
10.0
 40
10.0
 40
10.0
 40
11.0
 40
11.0
 40
11.0
 40
12.0
 40
12.0
 40
12.0
 40
13.0
 40
13.0
 40
13.0
 40
14.0
 40
14.0
 40
14.0
 40
15.0
 40
15.0
 40
15.0
 40
16.0
 40
16.0
 40
16.0
 40
16.0
 10
5.115471501365997
 20
-6.48429545060728
 10
5.115471501365997
 20
-6.48429545060728
 10
5.112606982140278
 20
-6.468052257549819
 10
5.112606982140278
 20
-6.468052257549819
 10
5.10410971632824
 20
-6.471732309918934
 10
5.094498871123632
 20
-6.471885590847099
 10
5.085888282232215
 20
-6.468478692952531
 10
5.085888282232215
 20
-6.468478692952531
 10
5.083098438330429
 20
-6.484302001074284
 10
5.083098438330429
 20
-6.484302001074284
 10
5.04646364145487
 20
-6.47758646229037
 10
5.017792902376262
 20
-6.448926859005698
 10
5.01106360761158
 20
-6.412295337363578
 10
5.01106360761158
 20
-6.412295337363578
 10
5.027306800669066
 20
-6.409430818137884
 10
5.027306800669066
 20
-6.409430818137884
 10
5.023626748299951
 20
-6.400933552325821
 10
5.023473467371787
 20
-6.391322707121212
 10
5.026880365266353
 20
-6.382712118229796
 10
5.026880365266353
 20
-6.382712118229796
 10
5.0110570571446
 20
-6.379922274328059
 10
5.0110570571446
 20
-6.379922274328059
 10
5.017772595928514
 20
-6.343287477452425
 10
5.046432199213162
 20
-6.314616738373868
 10
5.083063720855281
 20
-6.307887443609211
 10
5.083063720855281
 20
-6.307887443609211
 10
5.085928240080976
 20
-6.324130636666673
 10
5.085928240080976
 20
-6.324130636666673
 10
5.094425505893014
 20
-6.320450584297557
 10
5.104036351097673
 20
-6.320297303369393
 10
5.112646939989089
 20
-6.323704201263959
 10
5.112646939989089
 20
-6.323704201263959
 10
5.1154367838908
 20
-6.307880893142156
 10
5.1154367838908
 20
-6.307880893142156
 10
5.152070925719727
 20
-6.314596431926096
 10
5.180742319845042
 20
-6.343256035210768
 10
5.187471614609674
 20
-6.379887556852863
 10
5.187471614609674
 20
-6.379887556852863
 10
5.171228421552238
 20
-6.382752076078582
 10
5.171228421552238
 20
-6.382752076078582
 10
5.174908473921353
 20
-6.391249341890645
 10
5.175061754849493
 20
-6.400860187095254
 10
5.171654856954925
 20
-6.409470775986669
 10
5.171654856954925
 20
-6.409470775986669
 10
5.187478165076704
 20
-6.412260619888431
 10
5.187478165076704
 20
-6.412260619888431
 10
5.180762626292764
 20
-6.44889541676404
 10
5.152103023008092
 20
-6.477566155842624
 10
5.115471501365997
 20
-6.48429545060728
 97
        0
 97
        0
 75
     2
 76
     1
 98
        0
  0
SPLINE
  5
90
330
41
100
AcDbEntity
  8
ThermoDefender
370
     0
100
AcDbSpline
210
0.0
220
0.0
230
1.0
 70
    11
 71
     3
 72
    17
 73
    13
 74
     0
 42
0.0000000001
 43
0.0000000001
 12
1.0
 22
0.0
 32
0.0
 13
1.0
 23
0.0
 33
0.0
 40
0.0
 40
0.0
 40
0.0
 40
0.0
 40
1.0
 40
1.0
 40
1.0
 40
2.0
 40
2.0
 40
2.0
 40
3.0
 40
3.0
 40
3.0
 40
4.0
 40
4.0
 40
4.0
 40
4.0
 10
5.079223182044315
 20
-6.376047018041895
 30
0.0
 10
5.068152892788677
 20
-6.387117307297482
 30
0.0
 10
5.068152892788677
 20
-6.405065586918984
 30
0.0
 10
5.079223182044315
 20
-6.416135876174571
 30
0.0
 10
5.090293471299876
 20
-6.427206165430182
 30
0.0
 10
5.108241750921352
 20
-6.427206165430182
 30
0.0
 10
5.11931204017699
 20
-6.416135876174571
 30
0.0
 10
5.130382329432601
 20
-6.405065586918984
 30
0.0
 10
5.130382329432601
 20
-6.387117307297482
 30
0.0
 10
5.11931204017699
 20
-6.376047018041895
 30
0.0
 10
5.108241750921352
 20
-6.364976728786283
 30
0.0
 10
5.090293471299876
 20
-6.364976728786283
 30
0.0
 10
5.079223182044315
 20
-6.376047018041895
 30
0.0
  0
HATCH
  5
91
330
41
100
AcDbEntity
  8
ThermoDefender
 62
     7
420
 16777215
100
AcDbHatch
 10
0.0
 20
0.0
 30
0.0
210
0.0
220
0.0
230
1.0
  2
SOLID
 70
     1
 71
     0
 91
        1
 92
        1
 93
        1
 72
     4
 94
        3
 73
     0
 74
     1
 95
       17
 96
       13
 40
0.0
 40
0.0
 40
0.0
 40
0.0
 40
1.0
 40
1.0
 40
1.0
 40
2.0
 40
2.0
 40
2.0
 40
3.0
 40
3.0
 40
3.0
 40
4.0
 40
4.0
 40
4.0
 40
4.0
 10
5.079223182044315
 20
-6.376047018041895
 10
5.068152892788677
 20
-6.387117307297482
 10
5.068152892788677
 20
-6.405065586918984
 10
5.079223182044315
 20
-6.416135876174571
 10
5.090293471299876
 20
-6.427206165430182
 10
5.108241750921352
 20
-6.427206165430182
 10
5.11931204017699
 20
-6.416135876174571
 10
5.130382329432601
 20
-6.405065586918984
 10
5.130382329432601
 20
-6.387117307297482
 10
5.11931204017699
 20
-6.376047018041895
 10
5.108241750921352
 20
-6.364976728786283
 10
5.090293471299876
 20
-6.364976728786283
 10
5.079223182044315
 20
-6.376047018041895
 97
        0
 97
        0
 75
     2
 76
     1
 98
        0
  0
ENDBLK
  5
44
330
41
100
AcDbEntity
  8
0
100
AcDbBlockEnd
  0
BLOCK
  5
78
330
76
100
AcDbEntity
  8
0
100
AcDbBlockBegin
  2
block 3
 70
     0
 10
0.0
 20
0.0
 30
0.0
  3
block 3
  1

  0
SPLINE
  5
7A
330
76
100
AcDbEntity
  8
ThermoDefender
370
     0
100
AcDbSpline
210
0.0
220
0.0
230
1.0
 70
    11
 71
     3
 72
    23
 73
    19
 74
     0
 42
0.0000000001
 43
0.0000000001
 12
1.0
 22
0.0
 32
0.0
 13
1.0
 23
0.0
 33
0.0
 40
0.0
 40
0.0
 40
0.0
 40
0.0
 40
1.0
 40
1.0
 40
1.0
 40
2.0
 40
2.0
 40
2.0
 40
3.0
 40
3.0
 40
3.0
 40
4.0
 40
4.0
 40
4.0
 40
5.0
 40
5.0
 40
5.0
 40
6.0
 40
6.0
 40
6.0
 40
6.0
 10
3.409145707571017
 20
-6.704921604567921
 30
0.0
 10
3.494058971396587
 20
-6.704921604567921
 30
0.0
 10
3.536515603309378
 20
-6.751282608418655
 30
0.0
 10
3.536515603309378
 20
-6.909996692861796
 30
0.0
 10
3.536515603309378
 20
-7.102020803628774
 30
0.0
 10
3.489472016951986
 20
-7.162115367513049
 30
0.0
 10
3.409145707571017
 20
-7.162115367513049
 30
0.0
 10
3.409145707571017
 20
-7.162115367513049
 30
0.0
 10
3.327508839777276
 20
-7.162115367513049
 30
0.0
 10
3.327508839777276
 20
-7.162115367513049
 30
0.0
 10
3.327508839777276
 20
-7.162115367513049
 30
0.0
 10
3.327508839777276
 20
-6.717317302888406
 30
0.0
 10
3.327508839777276
 20
-6.717317302888406
 30
0.0
 10
3.327508839777276
 20
-6.709481255712262
 30
0.0
 10
3.331413211715231
 20
-6.704921604567921
 30
0.0
 10
3.345119468448489
 20
-6.704921604567921
 30
0.0
 10
3.345119468448489
 20
-6.704921604567921
 30
0.0
 10
3.409145707571017
 20
-6.704921604567921
 30
0.0
 10
3.409145707571017
 20
-6.704921604567921
 30
0.0
  0
SPLINE
  5
7B
330
76
100
AcDbEntity
  8
ThermoDefender
370
     0
100
AcDbSpline
210
0.0
220
0.0
230
1.0
 70
    11
 71
     3
 72
    20
 73
    16
 74
     0
 42
0.0000000001
 43
0.0000000001
 12
1.0
 22
0.0
 32
0.0
 13
1.0
 23
0.0
 33
0.0
 40
0.0
 40
0.0
 40
0.0
 40
0.0
 40
1.0
 40
1.0
 40
1.0
 40
2.0
 40
2.0
 40
2.0
 40
3.0
 40
3.0
 40
3.0
 40
4.0
 40
4.0
 40
4.0
 40
5.0
 40
5.0
 40
5.0
 40
5.0
 10
3.410456265983738
 20
-7.111822688424076
 30
0.0
 10
3.444421571513986
 20
-7.111822688424076
 30
0.0
 10
3.477076318631475
 20
-7.086348709276408
 30
0.0
 10
3.477076318631475
 20
-6.904781762511068
 30
0.0
 10
3.477076318631475
 20
-6.783937355536156
 30
0.0
 10
3.45485143221539
 20
-6.753248446037762
 30
0.0
 10
3.410456265983738
 20
-6.753248446037762
 30
0.0
 10
3.410456265983738
 20
-6.753248446037762
 30
0.0
 10
3.380395011248829
 20
-6.753248446037762
 30
0.0
 10
3.380395011248829
 20
-6.753248446037762
 30
0.0
 10
3.380395011248829
 20
-6.753248446037762
 30
0.0
 10
3.380395011248829
 20
-7.111822688424076
 30
0.0
 10
3.380395011248829
 20
-7.111822688424076
 30
0.0
 10
3.380395011248829
 20
-7.111822688424076
 30
0.0
 10
3.410456265983738
 20
-7.111822688424076
 30
0.0
 10
3.410456265983738
 20
-7.111822688424076
 30
0.0
  0
HATCH
  5
7C
330
76
100
AcDbEntity
  8
ThermoDefender
 62
     7
420
 16777215
100
AcDbHatch
 10
0.0
 20
0.0
 30
0.0
210
0.0
220
0.0
230
1.0
  2
SOLID
 70
     1
 71
     0
 91
        2
 92
        1
 93
        1
 72
     4
 94
        3
 73
     0
 74
     1
 95
       23
 96
       19
 40
0.0
 40
0.0
 40
0.0
 40
0.0
 40
1.0
 40
1.0
 40
1.0
 40
2.0
 40
2.0
 40
2.0
 40
3.0
 40
3.0
 40
3.0
 40
4.0
 40
4.0
 40
4.0
 40
5.0
 40
5.0
 40
5.0
 40
6.0
 40
6.0
 40
6.0
 40
6.0
 10
3.409145707571017
 20
-6.704921604567921
 10
3.494058971396587
 20
-6.704921604567921
 10
3.536515603309378
 20
-6.751282608418655
 10
3.536515603309378
 20
-6.909996692861796
 10
3.536515603309378
 20
-7.102020803628774
 10
3.489472016951986
 20
-7.162115367513049
 10
3.409145707571017
 20
-7.162115367513049
 10
3.409145707571017
 20
-7.162115367513049
 10
3.327508839777276
 20
-7.162115367513049
 10
3.327508839777276
 20
-7.162115367513049
 10
3.327508839777276
 20
-7.162115367513049
 10
3.327508839777276
 20
-6.717317302888406
 10
3.327508839777276
 20
-6.717317302888406
 10
3.327508839777276
 20
-6.709481255712262
 10
3.331413211715231
 20
-6.704921604567921
 10
3.345119468448489
 20
-6.704921604567921
 10
3.345119468448489
 20
-6.704921604567921
 10
3.409145707571017
 20
-6.704921604567921
 10
3.409145707571017
 20
-6.704921604567921
 97
        0
 97
        0
 92
        1
 93
        1
 72
     4
 94
        3
 73
     0
 74
     1
 95
       20
 96
       16
 40
0.0
 40
0.0
 40
0.0
 40
0.0
 40
1.0
 40
1.0
 40
1.0
 40
2.0
 40
2.0
 40
2.0
 40
3.0
 40
3.0
 40
3.0
 40
4.0
 40
4.0
 40
4.0
 40
5.0
 40
5.0
 40
5.0
 40
5.0
 10
3.410456265983738
 20
-7.111822688424076
 10
3.444421571513986
 20
-7.111822688424076
 10
3.477076318631475
 20
-7.086348709276408
 10
3.477076318631475
 20
-6.904781762511068
 10
3.477076318631475
 20
-6.783937355536156
 10
3.45485143221539
 20
-6.753248446037762
 10
3.410456265983738
 20
-6.753248446037762
 10
3.410456265983738
 20
-6.753248446037762
 10
3.380395011248829
 20
-6.753248446037762
 10
3.380395011248829
 20
-6.753248446037762
 10
3.380395011248829
 20
-6.753248446037762
 10
3.380395011248829
 20
-7.111822688424076
 10
3.380395011248829
 20
-7.111822688424076
 10
3.380395011248829
 20
-7.111822688424076
 10
3.410456265983738
 20
-7.111822688424076
 10
3.410456265983738
 20
-7.111822688424076
 97
        0
 97
        0
 75
     2
 76
     1
 98
        0
  0
SPLINE
  5
7D
330
76
100
AcDbEntity
  8
ThermoDefender
370
     0
100
AcDbSpline
210
0.0
220
0.0
230
1.0
 70
    11
 71
     3
 72
    44
 73
    40
 74
     0
 42
0.0000000001
 43
0.0000000001
 12
1.0
 22
0.0
 32
0.0
 13
1.0
 23
0.0
 33
0.0
 40
0.0
 40
0.0
 40
0.0
 40
0.0
 40
1.0
 40
1.0
 40
1.0
 40
2.0
 40
2.0
 40
2.0
 40
3.0
 40
3.0
 40
3.0
 40
4.0
 40
4.0
 40
4.0
 40
5.0
 40
5.0
 40
5.0
 40
6.0
 40
6.0
 40
6.0
 40
7.0
 40
7.0
 40
7.0
 40
8.0
 40
8.0
 40
8.0
 40
9.0
 40
9.0
 40
9.0
 40
10.0
 40
10.0
 40
10.0
 40
11.0
 40
11.0
 40
11.0
 40
12.0
 40
12.0
 40
12.0
 40
13.0
 40
13.0
 40
13.0
 40
13.0
 10
3.756962449652709
 20
-7.114443805249569
 30
0.0
 10
3.756962449652709
 20
-7.158838971481195
 30
0.0
 10
3.756962449652709
 20
-7.162115367513049
 30
0.0
 10
3.746505285651033
 20
-7.162115367513049
 30
0.0
 10
3.746505285651033
 20
-7.162115367513049
 30
0.0
 10
3.592350852352246
 20
-7.162115367513049
 30
0.0
 10
3.592350852352246
 20
-7.162115367513049
 30
0.0
 10
3.592350852352246
 20
-7.162115367513049
 30
0.0
 10
3.592350852352246
 20
-6.715351465269324
 30
0.0
 10
3.592350852352246
 20
-6.715351465269324
 30
0.0
 10
3.592350852352246
 20
-6.715351465269324
 30
0.0
 10
3.592350852352246
 20
-6.704921604567921
 30
0.0
 10
3.602808016353922
 20
-6.704921604567921
 30
0.0
 10
3.602808016353922
 20
-6.704921604567921
 30
0.0
 10
3.759556263177943
 20
-6.704921604567921
 30
0.0
 10
3.759556263177943
 20
-6.704921604567921
 30
0.0
 10
3.759556263177943
 20
-6.747378236480699
 30
0.0
 10
3.759556263177943
 20
-6.752593166831401
 30
0.0
 10
3.749781681682887
 20
-6.752593166831401
 30
0.0
 10
3.749781681682887
 20
-6.752593166831401
 30
0.0
 10
3.644609369060352
 20
-6.752593166831401
 30
0.0
 10
3.644609369060352
 20
-6.752593166831401
 30
0.0
 10
3.644609369060352
 20
-6.752593166831401
 30
0.0
 10
3.644609369060352
 20
-6.889109668158703
 30
0.0
 10
3.644609369060352
 20
-6.889109668158703
 30
0.0
 10
3.644609369060352
 20
-6.889109668158703
 30
0.0
 10
3.743228889619179
 20
-6.889109668158703
 30
0.0
 10
3.743228889619179
 20
-6.889109668158703
 30
0.0
 10
3.743228889619179
 20
-6.928945183246014
 30
0.0
 10
3.743228889619179
 20
-6.937436509628595
 30
0.0
 10
3.733454308124161
 20
-6.937436509628595
 30
0.0
 10
3.733454308124161
 20
-6.937436509628595
 30
0.0
 10
3.644609369060352
 20
-6.937436509628595
 30
0.0
 10
3.644609369060352
 20
-6.937436509628595
 30
0.0
 10
3.644609369060352
 20
-6.937436509628595
 30
0.0
 10
3.644609369060352
 20
-7.114443805249569
 30
0.0
 10
3.644609369060352
 20
-7.114443805249569
 30
0.0
 10
3.644609369060352
 20
-7.114443805249569
 30
0.0
 10
3.756962449652709
 20
-7.114443805249569
 30
0.0
 10
3.756962449652709
 20
-7.114443805249569
 30
0.0
  0
HATCH
  5
7E
330
76
100
AcDbEntity
  8
ThermoDefender
 62
     7
420
 16777215
100
AcDbHatch
 10
0.0
 20
0.0
 30
0.0
210
0.0
220
0.0
230
1.0
  2
SOLID
 70
     1
 71
     0
 91
        1
 92
        1
 93
        1
 72
     4
 94
        3
 73
     0
 74
     1
 95
       44
 96
       40
 40
0.0
 40
0.0
 40
0.0
 40
0.0
 40
1.0
 40
1.0
 40
1.0
 40
2.0
 40
2.0
 40
2.0
 40
3.0
 40
3.0
 40
3.0
 40
4.0
 40
4.0
 40
4.0
 40
5.0
 40
5.0
 40
5.0
 40
6.0
 40
6.0
 40
6.0
 40
7.0
 40
7.0
 40
7.0
 40
8.0
 40
8.0
 40
8.0
 40
9.0
 40
9.0
 40
9.0
 40
10.0
 40
10.0
 40
10.0
 40
11.0
 40
11.0
 40
11.0
 40
12.0
 40
12.0
 40
12.0
 40
13.0
 40
13.0
 40
13.0
 40
13.0
 10
3.756962449652709
 20
-7.114443805249569
 10
3.756962449652709
 20
-7.158838971481195
 10
3.756962449652709
 20
-7.162115367513049
 10
3.746505285651033
 20
-7.162115367513049
 10
3.746505285651033
 20
-7.162115367513049
 10
3.592350852352246
 20
-7.162115367513049
 10
3.592350852352246
 20
-7.162115367513049
 10
3.592350852352246
 20
-7.162115367513049
 10
3.592350852352246
 20
-6.715351465269324
 10
3.592350852352246
 20
-6.715351465269324
 10
3.592350852352246
 20
-6.715351465269324
 10
3.592350852352246
 20
-6.704921604567921
 10
3.602808016353922
 20
-6.704921604567921
 10
3.602808016353922
 20
-6.704921604567921
 10
3.759556263177943
 20
-6.704921604567921
 10
3.759556263177943
 20
-6.704921604567921
 10
3.759556263177943
 20
-6.747378236480699
 10
3.759556263177943
 20
-6.752593166831401
 10
3.749781681682887
 20
-6.752593166831401
 10
3.749781681682887
 20
-6.752593166831401
 10
3.644609369060352
 20
-6.752593166831401
 10
3.644609369060352
 20
-6.752593166831401
 10
3.644609369060352
 20
-6.752593166831401
 10
3.644609369060352
 20
-6.889109668158703
 10
3.644609369060352
 20
-6.889109668158703
 10
3.644609369060352
 20
-6.889109668158703
 10
3.743228889619179
 20
-6.889109668158703
 10
3.743228889619179
 20
-6.889109668158703
 10
3.743228889619179
 20
-6.928945183246014
 10
3.743228889619179
 20
-6.937436509628595
 10
3.733454308124161
 20
-6.937436509628595
 10
3.733454308124161
 20
-6.937436509628595
 10
3.644609369060352
 20
-6.937436509628595
 10
3.644609369060352
 20
-6.937436509628595
 10
3.644609369060352
 20
-6.937436509628595
 10
3.644609369060352
 20
-7.114443805249569
 10
3.644609369060352
 20
-7.114443805249569
 10
3.644609369060352
 20
-7.114443805249569
 10
3.756962449652709
 20
-7.114443805249569
 10
3.756962449652709
 20
-7.114443805249569
 97
        0
 97
        0
 75
     2
 76
     1
 98
        0
  0
SPLINE
  5
7F
330
76
100
AcDbEntity
  8
ThermoDefender
370
     0
100
AcDbSpline
210
0.0
220
0.0
230
1.0
 70
    11
 71
     3
 72
    41
 73
    37
 74
     0
 42
0.0000000001
 43
0.0000000001
 12
1.0
 22
0.0
 32
0.0
 13
1.0
 23
0.0
 33
0.0
 40
0.0
 40
0.0
 40
0.0
 40
0.0
 40
1.0
 40
1.0
 40
1.0
 40
2.0
 40
2.0
 40
2.0
 40
3.0
 40
3.0
 40
3.0
 40
4.0
 40
4.0
 40
4.0
 40
5.0
 40
5.0
 40
5.0
 40
6.0
 40
6.0
 40
6.0
 40
7.0
 40
7.0
 40
7.0
 40
8.0
 40
8.0
 40
8.0
 40
9.0
 40
9.0
 40
9.0
 40
10.0
 40
10.0
 40
10.0
 40
11.0
 40
11.0
 40
11.0
 40
12.0
 40
12.0
 40
12.0
 40
12.0
 10
3.978173788403473
 20
-6.704921604567921
 30
0.0
 10
3.978173788403473
 20
-6.747378236480699
 30
0.0
 10
3.978173788403473
 20
-6.749972050005933
 30
0.0
 10
3.968399206908442
 20
-6.749972050005933
 30
0.0
 10
3.968399206908442
 20
-6.749972050005933
 30
0.0
 10
3.863226894285869
 20
-6.749972050005933
 30
0.0
 10
3.863226894285869
 20
-6.749972050005933
 30
0.0
 10
3.863226894285869
 20
-6.749972050005933
 30
0.0
 10
3.863226894285869
 20
-6.889109668158703
 30
0.0
 10
3.863226894285869
 20
-6.889109668158703
 30
0.0
 10
3.863226894285869
 20
-6.889109668158703
 30
0.0
 10
3.961846414844722
 20
-6.889109668158703
 30
0.0
 10
3.961846414844722
 20
-6.889109668158703
 30
0.0
 10
3.961846414844722
 20
-6.928945183246014
 30
0.0
 10
3.961846414844722
 20
-6.937436509628595
 30
0.0
 10
3.952071833349692
 20
-6.937436509628595
 30
0.0
 10
3.952071833349692
 20
-6.937436509628595
 30
0.0
 10
3.863226894285869
 20
-6.937436509628595
 30
0.0
 10
3.863226894285869
 20
-6.937436509628595
 30
0.0
 10
3.863226894285869
 20
-6.937436509628595
 30
0.0
 10
3.863226894285869
 20
-7.151658203511387
 30
0.0
 10
3.863226894285869
 20
-7.151658203511387
 30
0.0
 10
3.863226894285869
 20
-7.154279320336855
 30
0.0
 10
3.862571615079509
 20
-7.162115367513049
 30
0.0
 10
3.85342500949058
 20
-7.162115367513049
 30
0.0
 10
3.85342500949058
 20
-7.162115367513049
 30
0.0
 10
3.810968377577789
 20
-7.162115367513049
 30
0.0
 10
3.810968377577789
 20
-7.162115367513049
 30
0.0
 10
3.810968377577789
 20
-7.162115367513049
 30
0.0
 10
3.810968377577789
 20
-6.715351465269324
 30
0.0
 10
3.810968377577789
 20
-6.715351465269324
 30
0.0
 10
3.810968377577789
 20
-6.715351465269324
 30
0.0
 10
3.810968377577789
 20
-6.704921604567921
 30
0.0
 10
3.821425541579452
 20
-6.704921604567921
 30
0.0
 10
3.821425541579452
 20
-6.704921604567921
 30
0.0
 10
3.978173788403473
 20
-6.704921604567921
 30
0.0
 10
3.978173788403473
 20
-6.704921604567921
 30
0.0
  0
HATCH
  5
80
330
76
100
AcDbEntity
  8
ThermoDefender
 62
     7
420
 16777215
100
AcDbHatch
 10
0.0
 20
0.0
 30
0.0
210
0.0
220
0.0
230
1.0
  2
SOLID
 70
     1
 71
     0
 91
        1
 92
        1
 93
        1
 72
     4
 94
        3
 73
     0
 74
     1
 95
       41
 96
       37
 40
0.0
 40
0.0
 40
0.0
 40
0.0
 40
1.0
 40
1.0
 40
1.0
 40
2.0
 40
2.0
 40
2.0
 40
3.0
 40
3.0
 40
3.0
 40
4.0
 40
4.0
 40
4.0
 40
5.0
 40
5.0
 40
5.0
 40
6.0
 40
6.0
 40
6.0
 40
7.0
 40
7.0
 40
7.0
 40
8.0
 40
8.0
 40
8.0
 40
9.0
 40
9.0
 40
9.0
 40
10.0
 40
10.0
 40
10.0
 40
11.0
 40
11.0
 40
11.0
 40
12.0
 40
12.0
 40
12.0
 40
12.0
 10
3.978173788403473
 20
-6.704921604567921
 10
3.978173788403473
 20
-6.747378236480699
 10
3.978173788403473
 20
-6.749972050005933
 10
3.968399206908442
 20
-6.749972050005933
 10
3.968399206908442
 20
-6.749972050005933
 10
3.863226894285869
 20
-6.749972050005933
 10
3.863226894285869
 20
-6.749972050005933
 10
3.863226894285869
 20
-6.749972050005933
 10
3.863226894285869
 20
-6.889109668158703
 10
3.863226894285869
 20
-6.889109668158703
 10
3.863226894285869
 20
-6.889109668158703
 10
3.961846414844722
 20
-6.889109668158703
 10
3.961846414844722
 20
-6.889109668158703
 10
3.961846414844722
 20
-6.928945183246014
 10
3.961846414844722
 20
-6.937436509628595
 10
3.952071833349692
 20
-6.937436509628595
 10
3.952071833349692
 20
-6.937436509628595
 10
3.863226894285869
 20
-6.937436509628595
 10
3.863226894285869
 20
-6.937436509628595
 10
3.863226894285869
 20
-6.937436509628595
 10
3.863226894285869
 20
-7.151658203511387
 10
3.863226894285869
 20
-7.151658203511387
 10
3.863226894285869
 20
-7.154279320336855
 10
3.862571615079509
 20
-7.162115367513049
 10
3.85342500949058
 20
-7.162115367513049
 10
3.85342500949058
 20
-7.162115367513049
 10
3.810968377577789
 20
-7.162115367513049
 10
3.810968377577789
 20
-7.162115367513049
 10
3.810968377577789
 20
-7.162115367513049
 10
3.810968377577789
 20
-6.715351465269324
 10
3.810968377577789
 20
-6.715351465269324
 10
3.810968377577789
 20
-6.715351465269324
 10
3.810968377577789
 20
-6.704921604567921
 10
3.821425541579452
 20
-6.704921604567921
 10
3.821425541579452
 20
-6.704921604567921
 10
3.978173788403473
 20
-6.704921604567921
 10
3.978173788403473
 20
-6.704921604567921
 97
        0
 97
        0
 75
     2
 76
     1
 98
        0
  0
SPLINE
  5
81
330
76
100
AcDbEntity
  8
ThermoDefender
370
     0
100
AcDbSpline
210
0.0
220
0.0
230
1.0
 70
    11
 71
     3
 72
    44
 73
    40
 74
     0
 42
0.0000000001
 43
0.0000000001
 12
1.0
 22
0.0
 32
0.0
 13
1.0
 23
0.0
 33
0.0
 40
0.0
 40
0.0
 40
0.0
 40
0.0
 40
1.0
 40
1.0
 40
1.0
 40
2.0
 40
2.0
 40
2.0
 40
3.0
 40
3.0
 40
3.0
 40
4.0
 40
4.0
 40
4.0
 40
5.0
 40
5.0
 40
5.0
 40
6.0
 40
6.0
 40
6.0
 40
7.0
 40
7.0
 40
7.0
 40
8.0
 40
8.0
 40
8.0
 40
9.0
 40
9.0
 40
9.0
 40
10.0
 40
10.0
 40
10.0
 40
11.0
 40
11.0
 40
11.0
 40
12.0
 40
12.0
 40
12.0
 40
13.0
 40
13.0
 40
13.0
 40
13.0
 10
4.191931326181778
 20
-7.114443805249569
 30
0.0
 10
4.191931326181778
 20
-7.158838971481195
 30
0.0
 10
4.191931326181778
 20
-7.162115367513049
 30
0.0
 10
4.181474162180103
 20
-7.162115367513049
 30
0.0
 10
4.181474162180103
 20
-7.162115367513049
 30
0.0
 10
4.027319728881303
 20
-7.162115367513049
 30
0.0
 10
4.027319728881303
 20
-7.162115367513049
 30
0.0
 10
4.027319728881303
 20
-7.162115367513049
 30
0.0
 10
4.027319728881303
 20
-6.715351465269324
 30
0.0
 10
4.027319728881303
 20
-6.715351465269324
 30
0.0
 10
4.027319728881303
 20
-6.715351465269324
 30
0.0
 10
4.027319728881303
 20
-6.704921604567921
 30
0.0
 10
4.037776892882978
 20
-6.704921604567921
 30
0.0
 10
4.037776892882978
 20
-6.704921604567921
 30
0.0
 10
4.194525139706974
 20
-6.704921604567921
 30
0.0
 10
4.194525139706974
 20
-6.704921604567921
 30
0.0
 10
4.194525139706974
 20
-6.747378236480699
 30
0.0
 10
4.194525139706974
 20
-6.752593166831401
 30
0.0
 10
4.184750558211968
 20
-6.752593166831401
 30
0.0
 10
4.184750558211968
 20
-6.752593166831401
 30
0.0
 10
4.079578245589397
 20
-6.752593166831401
 30
0.0
 10
4.079578245589397
 20
-6.752593166831401
 30
0.0
 10
4.079578245589397
 20
-6.752593166831401
 30
0.0
 10
4.079578245589397
 20
-6.889109668158703
 30
0.0
 10
4.079578245589397
 20
-6.889109668158703
 30
0.0
 10
4.079578245589397
 20
-6.889109668158703
 30
0.0
 10
4.178197766148236
 20
-6.889109668158703
 30
0.0
 10
4.178197766148236
 20
-6.889109668158703
 30
0.0
 10
4.178197766148236
 20
-6.928945183246014
 30
0.0
 10
4.178197766148236
 20
-6.937436509628595
 30
0.0
 10
4.168423184653218
 20
-6.937436509628595
 30
0.0
 10
4.168423184653218
 20
-6.937436509628595
 30
0.0
 10
4.079578245589397
 20
-6.937436509628595
 30
0.0
 10
4.079578245589397
 20
-6.937436509628595
 30
0.0
 10
4.079578245589397
 20
-6.937436509628595
 30
0.0
 10
4.079578245589397
 20
-7.114443805249569
 30
0.0
 10
4.079578245589397
 20
-7.114443805249569
 30
0.0
 10
4.079578245589397
 20
-7.114443805249569
 30
0.0
 10
4.191931326181778
 20
-7.114443805249569
 30
0.0
 10
4.191931326181778
 20
-7.114443805249569
 30
0.0
  0
HATCH
  5
82
330
76
100
AcDbEntity
  8
ThermoDefender
 62
     7
420
 16777215
100
AcDbHatch
 10
0.0
 20
0.0
 30
0.0
210
0.0
220
0.0
230
1.0
  2
SOLID
 70
     1
 71
     0
 91
        1
 92
        1
 93
        1
 72
     4
 94
        3
 73
     0
 74
     1
 95
       44
 96
       40
 40
0.0
 40
0.0
 40
0.0
 40
0.0
 40
1.0
 40
1.0
 40
1.0
 40
2.0
 40
2.0
 40
2.0
 40
3.0
 40
3.0
 40
3.0
 40
4.0
 40
4.0
 40
4.0
 40
5.0
 40
5.0
 40
5.0
 40
6.0
 40
6.0
 40
6.0
 40
7.0
 40
7.0
 40
7.0
 40
8.0
 40
8.0
 40
8.0
 40
9.0
 40
9.0
 40
9.0
 40
10.0
 40
10.0
 40
10.0
 40
11.0
 40
11.0
 40
11.0
 40
12.0
 40
12.0
 40
12.0
 40
13.0
 40
13.0
 40
13.0
 40
13.0
 10
4.191931326181778
 20
-7.114443805249569
 10
4.191931326181778
 20
-7.158838971481195
 10
4.191931326181778
 20
-7.162115367513049
 10
4.181474162180103
 20
-7.162115367513049
 10
4.181474162180103
 20
-7.162115367513049
 10
4.027319728881303
 20
-7.162115367513049
 10
4.027319728881303
 20
-7.162115367513049
 10
4.027319728881303
 20
-7.162115367513049
 10
4.027319728881303
 20
-6.715351465269324
 10
4.027319728881303
 20
-6.715351465269324
 10
4.027319728881303
 20
-6.715351465269324
 10
4.027319728881303
 20
-6.704921604567921
 10
4.037776892882978
 20
-6.704921604567921
 10
4.037776892882978
 20
-6.704921604567921
 10
4.194525139706974
 20
-6.704921604567921
 10
4.194525139706974
 20
-6.704921604567921
 10
4.194525139706974
 20
-6.747378236480699
 10
4.194525139706974
 20
-6.752593166831401
 10
4.184750558211968
 20
-6.752593166831401
 10
4.184750558211968
 20
-6.752593166831401
 10
4.079578245589397
 20
-6.752593166831401
 10
4.079578245589397
 20
-6.752593166831401
 10
4.079578245589397
 20
-6.752593166831401
 10
4.079578245589397
 20
-6.889109668158703
 10
4.079578245589397
 20
-6.889109668158703
 10
4.079578245589397
 20
-6.889109668158703
 10
4.178197766148236
 20
-6.889109668158703
 10
4.178197766148236
 20
-6.889109668158703
 10
4.178197766148236
 20
-6.928945183246014
 10
4.178197766148236
 20
-6.937436509628595
 10
4.168423184653218
 20
-6.937436509628595
 10
4.168423184653218
 20
-6.937436509628595
 10
4.079578245589397
 20
-6.937436509628595
 10
4.079578245589397
 20
-6.937436509628595
 10
4.079578245589397
 20
-6.937436509628595
 10
4.079578245589397
 20
-7.114443805249569
 10
4.079578245589397
 20
-7.114443805249569
 10
4.079578245589397
 20
-7.114443805249569
 10
4.191931326181778
 20
-7.114443805249569
 10
4.191931326181778
 20
-7.114443805249569
 97
        0
 97
        0
 75
     2
 76
     1
 98
        0
  0
SPLINE
  5
83
330
76
100
AcDbEntity
  8
ThermoDefender
370
     0
100
AcDbSpline
210
0.0
220
0.0
230
1.0
 70
    11
 71
     3
 72
    56
 73
    52
 74
     0
 42
0.0000000001
 43
0.0000000001
 12
1.0
 22
0.0
 32
0.0
 13
1.0
 23
0.0
 33
0.0
 40
0.0
 40
0.0
 40
0.0
 40
0.0
 40
1.0
 40
1.0
 40
1.0
 40
2.0
 40
2.0
 40
2.0
 40
3.0
 40
3.0
 40
3.0
 40
4.0
 40
4.0
 40
4.0
 40
5.0
 40
5.0
 40
5.0
 40
6.0
 40
6.0
 40
6.0
 40
7.0
 40
7.0
 40
7.0
 40
8.0
 40
8.0
 40
8.0
 40
9.0
 40
9.0
 40
9.0
 40
10.0
 40
10.0
 40
10.0
 40
11.0
 40
11.0
 40
11.0
 40
12.0
 40
12.0
 40
12.0
 40
13.0
 40
13.0
 40
13.0
 40
14.0
 40
14.0
 40
14.0
 40
15.0
 40
15.0
 40
15.0
 40
16.0
 40
16.0
 40
16.0
 40
17.0
 40
17.0
 40
17.0
 40
17.0
 10
4.425893306156492
 20
-6.715351465269324
 30
0.0
 10
4.425893306156492
 20
-6.704921604567921
 30
0.0
 10
4.427203864569239
 20
-6.704921604567921
 30
0.0
 10
4.478807102070959
 20
-6.704921604567921
 30
0.0
 10
4.478807102070959
 20
-6.704921604567921
 30
0.0
 10
4.478807102070959
 20
-7.151658203511387
 30
0.0
 10
4.478807102070959
 20
-7.151658203511387
 30
0.0
 10
4.478807102070959
 20
-7.15818369227481
 30
0.0
 10
4.474875426832719
 20
-7.162115367513049
 30
0.0
 10
4.467694658862911
 20
-7.162115367513049
 30
0.0
 10
4.467694658862911
 20
-7.162115367513049
 30
0.0
 10
4.428514422981985
 20
-7.162115367513049
 30
0.0
 10
4.428514422981985
 20
-7.162115367513049
 30
0.0
 10
4.428514422981985
 20
-7.162115367513049
 30
0.0
 10
4.353403043951706
 20
-6.982486955066583
 30
0.0
 10
4.353403043951706
 20
-6.982486955066583
 30
0.0
 10
4.342290600743683
 20
-6.953108603980935
 30
0.0
 10
4.307670016007048
 20
-6.847963594658646
 30
0.0
 10
4.291342642448297
 20
-6.797015636363312
 30
0.0
 10
4.295274317686562
 20
-6.839472268276116
 30
0.0
 10
4.297868131211746
 20
-6.96553160560173
 30
0.0
 10
4.297868131211746
 20
-6.99294411906827
 30
0.0
 10
4.297868131211746
 20
-6.99294411906827
 30
0.0
 10
4.297868131211746
 20
-7.151658203511387
 30
0.0
 10
4.297868131211746
 20
-7.151658203511387
 30
0.0
 10
4.297868131211746
 20
-7.162115367513049
 30
0.0
 10
4.297212852005385
 20
-7.162115367513049
 30
0.0
 10
4.245636917803924
 20
-7.162115367513049
 30
0.0
 10
4.245636917803924
 20
-7.162115367513049
 30
0.0
 10
4.245636917803924
 20
-6.715351465269324
 30
0.0
 10
4.245636917803924
 20
-6.715351465269324
 30
0.0
 10
4.245636917803924
 20
-6.708170697299515
 30
0.0
 10
4.248886010535519
 20
-6.704921604567921
 30
0.0
 10
4.256066778505353
 20
-6.704921604567921
 30
0.0
 10
4.256066778505353
 20
-6.704921604567921
 30
0.0
 10
4.295929596892898
 20
-6.704921604567921
 30
0.0
 10
4.295929596892898
 20
-6.704921604567921
 30
0.0
 10
4.295929596892898
 20
-6.704921604567921
 30
0.0
 10
4.369730417510456
 20
-6.881273620982533
 30
0.0
 10
4.369730417510456
 20
-6.881273620982533
 30
0.0
 10
4.382781395037354
 20
-6.914583647306396
 30
0.0
 10
4.41609142136119
 20
-7.017107539803192
 30
0.0
 10
4.432418794919942
 20
-7.066089660479443
 30
0.0
 10
4.432418794919942
 20
-7.066089660479443
 30
0.0
 10
4.432418794919942
 20
-7.064806405366956
 30
0.0
 10
4.432418794919942
 20
-7.064806405366956
 30
0.0
 10
4.4278591437756
 20
-7.026254145392133
 30
0.0
 10
4.425893306156492
 20
-6.899539528860108
 30
0.0
 10
4.425893306156492
 20
-6.869505898568124
 30
0.0
 10
4.425893306156492
 20
-6.869505898568124
 30
0.0
 10
4.425893306156492
 20
-6.715351465269324
 30
0.0
 10
4.425893306156492
 20
-6.715351465269324
 30
0.0
  0
HATCH
  5
84
330
76
100
AcDbEntity
  8
ThermoDefender
 62
     7
420
 16777215
100
AcDbHatch
 10
0.0
 20
0.0
 30
0.0
210
0.0
220
0.0
230
1.0
  2
SOLID
 70
     1
 71
     0
 91
        1
 92
        1
 93
        1
 72
     4
 94
        3
 73
     0
 74
     1
 95
       56
 96
       52
 40
0.0
 40
0.0
 40
0.0
 40
0.0
 40
1.0
 40
1.0
 40
1.0
 40
2.0
 40
2.0
 40
2.0
 40
3.0
 40
3.0
 40
3.0
 40
4.0
 40
4.0
 40
4.0
 40
5.0
 40
5.0
 40
5.0
 40
6.0
 40
6.0
 40
6.0
 40
7.0
 40
7.0
 40
7.0
 40
8.0
 40
8.0
 40
8.0
 40
9.0
 40
9.0
 40
9.0
 40
10.0
 40
10.0
 40
10.0
 40
11.0
 40
11.0
 40
11.0
 40
12.0
 40
12.0
 40
12.0
 40
13.0
 40
13.0
 40
13.0
 40
14.0
 40
14.0
 40
14.0
 40
15.0
 40
15.0
 40
15.0
 40
16.0
 40
16.0
 40
16.0
 40
17.0
 40
17.0
 40
17.0
 40
17.0
 10
4.425893306156492
 20
-6.715351465269324
 10
4.425893306156492
 20
-6.704921604567921
 10
4.427203864569239
 20
-6.704921604567921
 10
4.478807102070959
 20
-6.704921604567921
 10
4.478807102070959
 20
-6.704921604567921
 10
4.478807102070959
 20
-7.151658203511387
 10
4.478807102070959
 20
-7.151658203511387
 10
4.478807102070959
 20
-7.15818369227481
 10
4.474875426832719
 20
-7.162115367513049
 10
4.467694658862911
 20
-7.162115367513049
 10
4.467694658862911
 20
-7.162115367513049
 10
4.428514422981985
 20
-7.162115367513049
 10
4.428514422981985
 20
-7.162115367513049
 10
4.428514422981985
 20
-7.162115367513049
 10
4.353403043951706
 20
-6.982486955066583
 10
4.353403043951706
 20
-6.982486955066583
 10
4.342290600743683
 20
-6.953108603980935
 10
4.307670016007048
 20
-6.847963594658646
 10
4.291342642448297
 20
-6.797015636363312
 10
4.295274317686562
 20
-6.839472268276116
 10
4.297868131211746
 20
-6.96553160560173
 10
4.297868131211746
 20
-6.99294411906827
 10
4.297868131211746
 20
-6.99294411906827
 10
4.297868131211746
 20
-7.151658203511387
 10
4.297868131211746
 20
-7.151658203511387
 10
4.297868131211746
 20
-7.162115367513049
 10
4.297212852005385
 20
-7.162115367513049
 10
4.245636917803924
 20
-7.162115367513049
 10
4.245636917803924
 20
-7.162115367513049
 10
4.245636917803924
 20
-6.715351465269324
 10
4.245636917803924
 20
-6.715351465269324
 10
4.245636917803924
 20
-6.708170697299515
 10
4.248886010535519
 20
-6.704921604567921
 10
4.256066778505353
 20
-6.704921604567921
 10
4.256066778505353
 20
-6.704921604567921
 10
4.295929596892898
 20
-6.704921604567921
 10
4.295929596892898
 20
-6.704921604567921
 10
4.295929596892898
 20
-6.704921604567921
 10
4.369730417510456
 20
-6.881273620982533
 10
4.369730417510456
 20
-6.881273620982533
 10
4.382781395037354
 20
-6.914583647306396
 10
4.41609142136119
 20
-7.017107539803192
 10
4.432418794919942
 20
-7.066089660479443
 10
4.432418794919942
 20
-7.066089660479443
 10
4.432418794919942
 20
-7.064806405366956
 10
4.432418794919942
 20
-7.064806405366956
 10
4.4278591437756
 20
-7.026254145392133
 10
4.425893306156492
 20
-6.899539528860108
 10
4.425893306156492
 20
-6.869505898568124
 10
4.425893306156492
 20
-6.869505898568124
 10
4.425893306156492
 20
-6.715351465269324
 10
4.425893306156492
 20
-6.715351465269324
 97
        0
 97
        0
 75
     2
 76
     1
 98
        0
  0
SPLINE
  5
85
330
76
100
AcDbEntity
  8
ThermoDefender
370
     0
100
AcDbSpline
210
0.0
220
0.0
230
1.0
 70
    11
 71
     3
 72
    23
 73
    19
 74
     0
 42
0.0000000001
 43
0.0000000001
 12
1.0
 22
0.0
 32
0.0
 13
1.0
 23
0.0
 33
0.0
 40
0.0
 40
0.0
 40
0.0
 40
0.0
 40
1.0
 40
1.0
 40
1.0
 40
2.0
 40
2.0
 40
2.0
 40
3.0
 40
3.0
 40
3.0
 40
4.0
 40
4.0
 40
4.0
 40
5.0
 40
5.0
 40
5.0
 40
6.0
 40
6.0
 40
6.0
 40
6.0
 10
4.627746605019056
 20
-6.704921604567921
 30
0.0
 10
4.712659868844639
 20
-6.704921604567921
 30
0.0
 10
4.755116500757443
 20
-6.751282608418655
 30
0.0
 10
4.755116500757443
 20
-6.909996692861796
 30
0.0
 10
4.755116500757443
 20
-7.102020803628774
 30
0.0
 10
4.708072914400039
 20
-7.162115367513049
 30
0.0
 10
4.627746605019056
 20
-7.162115367513049
 30
0.0
 10
4.627746605019056
 20
-7.162115367513049
 30
0.0
 10
4.546109737225328
 20
-7.162115367513049
 30
0.0
 10
4.546109737225328
 20
-7.162115367513049
 30
0.0
 10
4.546109737225328
 20
-7.162115367513049
 30
0.0
 10
4.546109737225328
 20
-6.717317302888406
 30
0.0
 10
4.546109737225328
 20
-6.717317302888406
 30
0.0
 10
4.546109737225328
 20
-6.709481255712262
 30
0.0
 10
4.550014109163284
 20
-6.704921604567921
 30
0.0
 10
4.563720365896542
 20
-6.704921604567921
 30
0.0
 10
4.563720365896542
 20
-6.704921604567921
 30
0.0
 10
4.627746605019056
 20
-6.704921604567921
 30
0.0
 10
4.627746605019056
 20
-6.704921604567921
 30
0.0
  0
SPLINE
  5
86
330
76
100
AcDbEntity
  8
ThermoDefender
370
     0
100
AcDbSpline
210
0.0
220
0.0
230
1.0
 70
    11
 71
     3
 72
    20
 73
    16
 74
     0
 42
0.0000000001
 43
0.0000000001
 12
1.0
 22
0.0
 32
0.0
 13
1.0
 23
0.0
 33
0.0
 40
0.0
 40
0.0
 40
0.0
 40
0.0
 40
1.0
 40
1.0
 40
1.0
 40
2.0
 40
2.0
 40
2.0
 40
3.0
 40
3.0
 40
3.0
 40
4.0
 40
4.0
 40
4.0
 40
5.0
 40
5.0
 40
5.0
 40
5.0
 10
4.629057163431804
 20
-7.111822688424076
 30
0.0
 10
4.663022468962026
 20
-7.111822688424076
 30
0.0
 10
4.695677216079527
 20
-7.086348709276408
 30
0.0
 10
4.695677216079527
 20
-6.904781762511068
 30
0.0
 10
4.695677216079527
 20
-6.783937355536156
 30
0.0
 10
4.67345232966343
 20
-6.753248446037762
 30
0.0
 10
4.629057163431804
 20
-6.753248446037762
 30
0.0
 10
4.629057163431804
 20
-6.753248446037762
 30
0.0
 10
4.598996229839511
 20
-6.753248446037762
 30
0.0
 10
4.598996229839511
 20
-6.753248446037762
 30
0.0
 10
4.598996229839511
 20
-6.753248446037762
 30
0.0
 10
4.598996229839511
 20
-7.111822688424076
 30
0.0
 10
4.598996229839511
 20
-7.111822688424076
 30
0.0
 10
4.598996229839511
 20
-7.111822688424076
 30
0.0
 10
4.629057163431804
 20
-7.111822688424076
 30
0.0
 10
4.629057163431804
 20
-7.111822688424076
 30
0.0
  0
HATCH
  5
87
330
76
100
AcDbEntity
  8
ThermoDefender
 62
     7
420
 16777215
100
AcDbHatch
 10
0.0
 20
0.0
 30
0.0
210
0.0
220
0.0
230
1.0
  2
SOLID
 70
     1
 71
     0
 91
        2
 92
        1
 93
        1
 72
     4
 94
        3
 73
     0
 74
     1
 95
       23
 96
       19
 40
0.0
 40
0.0
 40
0.0
 40
0.0
 40
1.0
 40
1.0
 40
1.0
 40
2.0
 40
2.0
 40
2.0
 40
3.0
 40
3.0
 40
3.0
 40
4.0
 40
4.0
 40
4.0
 40
5.0
 40
5.0
 40
5.0
 40
6.0
 40
6.0
 40
6.0
 40
6.0
 10
4.627746605019056
 20
-6.704921604567921
 10
4.712659868844639
 20
-6.704921604567921
 10
4.755116500757443
 20
-6.751282608418655
 10
4.755116500757443
 20
-6.909996692861796
 10
4.755116500757443
 20
-7.102020803628774
 10
4.708072914400039
 20
-7.162115367513049
 10
4.627746605019056
 20
-7.162115367513049
 10
4.627746605019056
 20
-7.162115367513049
 10
4.546109737225328
 20
-7.162115367513049
 10
4.546109737225328
 20
-7.162115367513049
 10
4.546109737225328
 20
-7.162115367513049
 10
4.546109737225328
 20
-6.717317302888406
 10
4.546109737225328
 20
-6.717317302888406
 10
4.546109737225328
 20
-6.709481255712262
 10
4.550014109163284
 20
-6.704921604567921
 10
4.563720365896542
 20
-6.704921604567921
 10
4.563720365896542
 20
-6.704921604567921
 10
4.627746605019056
 20
-6.704921604567921
 10
4.627746605019056
 20
-6.704921604567921
 97
        0
 97
        0
 92
        1
 93
        1
 72
     4
 94
        3
 73
     0
 74
     1
 95
       20
 96
       16
 40
0.0
 40
0.0
 40
0.0
 40
0.0
 40
1.0
 40
1.0
 40
1.0
 40
2.0
 40
2.0
 40
2.0
 40
3.0
 40
3.0
 40
3.0
 40
4.0
 40
4.0
 40
4.0
 40
5.0
 40
5.0
 40
5.0
 40
5.0
 10
4.629057163431804
 20
-7.111822688424076
 10
4.663022468962026
 20
-7.111822688424076
 10
4.695677216079527
 20
-7.086348709276408
 10
4.695677216079527
 20
-6.904781762511068
 10
4.695677216079527
 20
-6.783937355536156
 10
4.67345232966343
 20
-6.753248446037762
 10
4.629057163431804
 20
-6.753248446037762
 10
4.629057163431804
 20
-6.753248446037762
 10
4.598996229839511
 20
-6.753248446037762
 10
4.598996229839511
 20
-6.753248446037762
 10
4.598996229839511
 20
-6.753248446037762
 10
4.598996229839511
 20
-7.111822688424076
 10
4.598996229839511
 20
-7.111822688424076
 10
4.598996229839511
 20
-7.111822688424076
 10
4.629057163431804
 20
-7.111822688424076
 10
4.629057163431804
 20
-7.111822688424076
 97
        0
 97
        0
 75
     2
 76
     1
 98
        0
  0
SPLINE
  5
88
330
76
100
AcDbEntity
  8
ThermoDefender
370
     0
100
AcDbSpline
210
0.0
220
0.0
230
1.0
 70
    11
 71
     3
 72
    44
 73
    40
 74
     0
 42
0.0000000001
 43
0.0000000001
 12
1.0
 22
0.0
 32
0.0
 13
1.0
 23
0.0
 33
0.0
 40
0.0
 40
0.0
 40
0.0
 40
0.0
 40
1.0
 40
1.0
 40
1.0
 40
2.0
 40
2.0
 40
2.0
 40
3.0
 40
3.0
 40
3.0
 40
4.0
 40
4.0
 40
4.0
 40
5.0
 40
5.0
 40
5.0
 40
6.0
 40
6.0
 40
6.0
 40
7.0
 40
7.0
 40
7.0
 40
8.0
 40
8.0
 40
8.0
 40
9.0
 40
9.0
 40
9.0
 40
10.0
 40
10.0
 40
10.0
 40
11.0
 40
11.0
 40
11.0
 40
12.0
 40
12.0
 40
12.0
 40
13.0
 40
13.0
 40
13.0
 40
13.0
 10
4.975563347100761
 20
-7.114443805249569
 30
0.0
 10
4.975563347100761
 20
-7.158838971481195
 30
0.0
 10
4.975563347100761
 20
-7.162115367513049
 30
0.0
 10
4.965106183099098
 20
-7.162115367513049
 30
0.0
 10
4.965106183099098
 20
-7.162115367513049
 30
0.0
 10
4.810951749800298
 20
-7.162115367513049
 30
0.0
 10
4.810951749800298
 20
-7.162115367513049
 30
0.0
 10
4.810951749800298
 20
-7.162115367513049
 30
0.0
 10
4.810951749800298
 20
-6.715351465269324
 30
0.0
 10
4.810951749800298
 20
-6.715351465269324
 30
0.0
 10
4.810951749800298
 20
-6.715351465269324
 30
0.0
 10
4.810951749800298
 20
-6.704921604567921
 30
0.0
 10
4.821408913801961
 20
-6.704921604567921
 30
0.0
 10
4.821408913801961
 20
-6.704921604567921
 30
0.0
 10
4.978157160625996
 20
-6.704921604567921
 30
0.0
 10
4.978157160625996
 20
-6.704921604567921
 30
0.0
 10
4.978157160625996
 20
-6.747378236480699
 30
0.0
 10
4.978157160625996
 20
-6.752593166831401
 30
0.0
 10
4.968382579130952
 20
-6.752593166831401
 30
0.0
 10
4.968382579130952
 20
-6.752593166831401
 30
0.0
 10
4.863210266508379
 20
-6.752593166831401
 30
0.0
 10
4.863210266508379
 20
-6.752593166831401
 30
0.0
 10
4.863210266508379
 20
-6.752593166831401
 30
0.0
 10
4.863210266508379
 20
-6.889109668158703
 30
0.0
 10
4.863210266508379
 20
-6.889109668158703
 30
0.0
 10
4.863210266508379
 20
-6.889109668158703
 30
0.0
 10
4.961829787067219
 20
-6.889109668158703
 30
0.0
 10
4.961829787067219
 20
-6.889109668158703
 30
0.0
 10
4.961829787067219
 20
-6.928945183246014
 30
0.0
 10
4.961829787067219
 20
-6.937436509628595
 30
0.0
 10
4.952055205572176
 20
-6.937436509628595
 30
0.0
 10
4.952055205572176
 20
-6.937436509628595
 30
0.0
 10
4.863210266508379
 20
-6.937436509628595
 30
0.0
 10
4.863210266508379
 20
-6.937436509628595
 30
0.0
 10
4.863210266508379
 20
-6.937436509628595
 30
0.0
 10
4.863210266508379
 20
-7.114443805249569
 30
0.0
 10
4.863210266508379
 20
-7.114443805249569
 30
0.0
 10
4.863210266508379
 20
-7.114443805249569
 30
0.0
 10
4.975563347100761
 20
-7.114443805249569
 30
0.0
 10
4.975563347100761
 20
-7.114443805249569
 30
0.0
  0
HATCH
  5
89
330
76
100
AcDbEntity
  8
ThermoDefender
 62
     7
420
 16777215
100
AcDbHatch
 10
0.0
 20
0.0
 30
0.0
210
0.0
220
0.0
230
1.0
  2
SOLID
 70
     1
 71
     0
 91
        1
 92
        1
 93
        1
 72
     4
 94
        3
 73
     0
 74
     1
 95
       44
 96
       40
 40
0.0
 40
0.0
 40
0.0
 40
0.0
 40
1.0
 40
1.0
 40
1.0
 40
2.0
 40
2.0
 40
2.0
 40
3.0
 40
3.0
 40
3.0
 40
4.0
 40
4.0
 40
4.0
 40
5.0
 40
5.0
 40
5.0
 40
6.0
 40
6.0
 40
6.0
 40
7.0
 40
7.0
 40
7.0
 40
8.0
 40
8.0
 40
8.0
 40
9.0
 40
9.0
 40
9.0
 40
10.0
 40
10.0
 40
10.0
 40
11.0
 40
11.0
 40
11.0
 40
12.0
 40
12.0
 40
12.0
 40
13.0
 40
13.0
 40
13.0
 40
13.0
 10
4.975563347100761
 20
-7.114443805249569
 10
4.975563347100761
 20
-7.158838971481195
 10
4.975563347100761
 20
-7.162115367513049
 10
4.965106183099098
 20
-7.162115367513049
 10
4.965106183099098
 20
-7.162115367513049
 10
4.810951749800298
 20
-7.162115367513049
 10
4.810951749800298
 20
-7.162115367513049
 10
4.810951749800298
 20
-7.162115367513049
 10
4.810951749800298
 20
-6.715351465269324
 10
4.810951749800298
 20
-6.715351465269324
 10
4.810951749800298
 20
-6.715351465269324
 10
4.810951749800298
 20
-6.704921604567921
 10
4.821408913801961
 20
-6.704921604567921
 10
4.821408913801961
 20
-6.704921604567921
 10
4.978157160625996
 20
-6.704921604567921
 10
4.978157160625996
 20
-6.704921604567921
 10
4.978157160625996
 20
-6.747378236480699
 10
4.978157160625996
 20
-6.752593166831401
 10
4.968382579130952
 20
-6.752593166831401
 10
4.968382579130952
 20
-6.752593166831401
 10
4.863210266508379
 20
-6.752593166831401
 10
4.863210266508379
 20
-6.752593166831401
 10
4.863210266508379
 20
-6.752593166831401
 10
4.863210266508379
 20
-6.889109668158703
 10
4.863210266508379
 20
-6.889109668158703
 10
4.863210266508379
 20
-6.889109668158703
 10
4.961829787067219
 20
-6.889109668158703
 10
4.961829787067219
 20
-6.889109668158703
 10
4.961829787067219
 20
-6.928945183246014
 10
4.961829787067219
 20
-6.937436509628595
 10
4.952055205572176
 20
-6.937436509628595
 10
4.952055205572176
 20
-6.937436509628595
 10
4.863210266508379
 20
-6.937436509628595
 10
4.863210266508379
 20
-6.937436509628595
 10
4.863210266508379
 20
-6.937436509628595
 10
4.863210266508379
 20
-7.114443805249569
 10
4.863210266508379
 20
-7.114443805249569
 10
4.863210266508379
 20
-7.114443805249569
 10
4.975563347100761
 20
-7.114443805249569
 10
4.975563347100761
 20
-7.114443805249569
 97
        0
 97
        0
 75
     2
 76
     1
 98
        0
  0
SPLINE
  5
8A
330
76
100
AcDbEntity
  8
ThermoDefender
370
     0
100
AcDbSpline
210
0.0
220
0.0
230
1.0
 70
    11
 71
     3
 72
    44
 73
    40
 74
     0
 42
0.0000000001
 43
0.0000000001
 12
1.0
 22
0.0
 32
0.0
 13
1.0
 23
0.0
 33
0.0
 40
0.0
 40
0.0
 40
0.0
 40
0.0
 40
1.0
 40
1.0
 40
1.0
 40
2.0
 40
2.0
 40
2.0
 40
3.0
 40
3.0
 40
3.0
 40
4.0
 40
4.0
 40
4.0
 40
5.0
 40
5.0
 40
5.0
 40
6.0
 40
6.0
 40
6.0
 40
7.0
 40
7.0
 40
7.0
 40
8.0
 40
8.0
 40
8.0
 40
9.0
 40
9.0
 40
9.0
 40
10.0
 40
10.0
 40
10.0
 40
11.0
 40
11.0
 40
11.0
 40
12.0
 40
12.0
 40
12.0
 40
13.0
 40
13.0
 40
13.0
 40
13.0
 10
5.104380317753212
 20
-6.704921604567921
 30
0.0
 10
5.186672464753276
 20
-6.704921604567921
 30
0.0
 10
5.224542142221505
 20
-6.743446561242485
 30
0.0
 10
5.224542142221505
 20
-6.833574755418769
 30
0.0
 10
5.224542142221505
 20
-6.903471204098347
 30
0.0
 10
5.201689279899306
 20
-6.942651439979297
 30
0.0
 10
5.167723974369058
 20
-6.961599930363516
 30
0.0
 10
5.18861099907215
 20
-6.98969502633665
 30
0.0
 10
5.222576304602373
 20
-7.049762286920693
 30
0.0
 10
5.22912909666608
 20
-7.15034764509864
 30
0.0
 10
5.22912909666608
 20
-7.160149529893943
 30
0.0
 10
5.227163259046973
 20
-7.163425925925796
 30
0.0
 10
5.202344559105667
 20
-7.163425925925796
 30
0.0
 10
5.193853232723111
 20
-7.163425925925796
 30
0.0
 10
5.183396068721448
 20
-7.16277064671941
 30
0.0
 10
5.171655649607297
 20
-7.162115367513049
 30
0.0
 10
5.16444757833723
 20
-7.0517281245398
 30
0.0
 10
5.133758668838835
 20
-6.996875794306511
 30
0.0
 10
5.11743129528011
 20
-6.975961466303134
 30
0.0
 10
5.11743129528011
 20
-6.975961466303134
 30
0.0
 10
5.105008293659314
 20
-6.976616745509495
 30
0.0
 10
5.105008293659314
 20
-6.976616745509495
 30
0.0
 10
5.105008293659314
 20
-6.976616745509495
 30
0.0
 10
5.081500152130754
 20
-6.976616745509495
 30
0.0
 10
5.081500152130754
 20
-6.976616745509495
 30
0.0
 10
5.081500152130754
 20
-6.976616745509495
 30
0.0
 10
5.081500152130754
 20
-7.151658203511387
 30
0.0
 10
5.081500152130754
 20
-7.151658203511387
 30
0.0
 10
5.081500152130754
 20
-7.162115367513049
 30
0.0
 10
5.080844872924368
 20
-7.162115367513049
 30
0.0
 10
5.029268938722907
 20
-7.162115367513049
 30
0.0
 10
5.029268938722907
 20
-7.162115367513049
 30
0.0
 10
5.029268938722907
 20
-6.715351465269324
 30
0.0
 10
5.029268938722907
 20
-6.715351465269324
 30
0.0
 10
5.029268938722907
 20
-6.715351465269324
 30
0.0
 10
5.029268938722907
 20
-6.704921604567921
 30
0.0
 10
5.039698799424311
 20
-6.704921604567921
 30
0.0
 10
5.039698799424311
 20
-6.704921604567921
 30
0.0
 10
5.104380317753212
 20
-6.704921604567921
 30
0.0
 10
5.104380317753212
 20
-6.704921604567921
 30
0.0
  0
SPLINE
  5
8B
330
76
100
AcDbEntity
  8
ThermoDefender
370
     0
100
AcDbSpline
210
0.0
220
0.0
230
1.0
 70
    11
 71
     3
 72
    20
 73
    16
 74
     0
 42
0.0000000001
 43
0.0000000001
 12
1.0
 22
0.0
 32
0.0
 13
1.0
 23
0.0
 33
0.0
 40
0.0
 40
0.0
 40
0.0
 40
0.0
 40
1.0
 40
1.0
 40
1.0
 40
2.0
 40
2.0
 40
2.0
 40
3.0
 40
3.0
 40
3.0
 40
4.0
 40
4.0
 40
4.0
 40
5.0
 40
5.0
 40
5.0
 40
5.0
 10
5.110250527310275
 20
-6.927634624833267
 30
0.0
 10
5.147464925572093
 20
-6.927634624833267
 30
0.0
 10
5.166413415956336
 20
-6.900850087272854
 30
0.0
 10
5.166413415956336
 20
-6.83163622109992
 30
0.0
 10
5.166413415956336
 20
-6.781343542010947
 30
0.0
 10
5.15336243842944
 20
-6.751282608418655
 30
0.0
 10
5.114154899248231
 20
-6.751282608418655
 30
0.0
 10
5.114154899248231
 20
-6.751282608418655
 30
0.0
 10
5.081500152130754
 20
-6.751282608418655
 30
0.0
 10
5.081500152130754
 20
-6.751282608418655
 30
0.0
 10
5.081500152130754
 20
-6.751282608418655
 30
0.0
 10
5.081500152130754
 20
-6.927634624833267
 30
0.0
 10
5.081500152130754
 20
-6.927634624833267
 30
0.0
 10
5.081500152130754
 20
-6.927634624833267
 30
0.0
 10
5.110250527310275
 20
-6.927634624833267
 30
0.0
 10
5.110250527310275
 20
-6.927634624833267
 30
0.0
  0
HATCH
  5
8C
330
76
100
AcDbEntity
  8
ThermoDefender
 62
     7
420
 16777215
100
AcDbHatch
 10
0.0
 20
0.0
 30
0.0
210
0.0
220
0.0
230
1.0
  2
SOLID
 70
     1
 71
     0
 91
        2
 92
        1
 93
        1
 72
     4
 94
        3
 73
     0
 74
     1
 95
       44
 96
       40
 40
0.0
 40
0.0
 40
0.0
 40
0.0
 40
1.0
 40
1.0
 40
1.0
 40
2.0
 40
2.0
 40
2.0
 40
3.0
 40
3.0
 40
3.0
 40
4.0
 40
4.0
 40
4.0
 40
5.0
 40
5.0
 40
5.0
 40
6.0
 40
6.0
 40
6.0
 40
7.0
 40
7.0
 40
7.0
 40
8.0
 40
8.0
 40
8.0
 40
9.0
 40
9.0
 40
9.0
 40
10.0
 40
10.0
 40
10.0
 40
11.0
 40
11.0
 40
11.0
 40
12.0
 40
12.0
 40
12.0
 40
13.0
 40
13.0
 40
13.0
 40
13.0
 10
5.104380317753212
 20
-6.704921604567921
 10
5.186672464753276
 20
-6.704921604567921
 10
5.224542142221505
 20
-6.743446561242485
 10
5.224542142221505
 20
-6.833574755418769
 10
5.224542142221505
 20
-6.903471204098347
 10
5.201689279899306
 20
-6.942651439979297
 10
5.167723974369058
 20
-6.961599930363516
 10
5.18861099907215
 20
-6.98969502633665
 10
5.222576304602373
 20
-7.049762286920693
 10
5.22912909666608
 20
-7.15034764509864
 10
5.22912909666608
 20
-7.160149529893943
 10
5.227163259046973
 20
-7.163425925925796
 10
5.202344559105667
 20
-7.163425925925796
 10
5.193853232723111
 20
-7.163425925925796
 10
5.183396068721448
 20
-7.16277064671941
 10
5.171655649607297
 20
-7.162115367513049
 10
5.16444757833723
 20
-7.0517281245398
 10
5.133758668838835
 20
-6.996875794306511
 10
5.11743129528011
 20
-6.975961466303134
 10
5.11743129528011
 20
-6.975961466303134
 10
5.105008293659314
 20
-6.976616745509495
 10
5.105008293659314
 20
-6.976616745509495
 10
5.105008293659314
 20
-6.976616745509495
 10
5.081500152130754
 20
-6.976616745509495
 10
5.081500152130754
 20
-6.976616745509495
 10
5.081500152130754
 20
-6.976616745509495
 10
5.081500152130754
 20
-7.151658203511387
 10
5.081500152130754
 20
-7.151658203511387
 10
5.081500152130754
 20
-7.162115367513049
 10
5.080844872924368
 20
-7.162115367513049
 10
5.029268938722907
 20
-7.162115367513049
 10
5.029268938722907
 20
-7.162115367513049
 10
5.029268938722907
 20
-6.715351465269324
 10
5.029268938722907
 20
-6.715351465269324
 10
5.029268938722907
 20
-6.715351465269324
 10
5.029268938722907
 20
-6.704921604567921
 10
5.039698799424311
 20
-6.704921604567921
 10
5.039698799424311
 20
-6.704921604567921
 10
5.104380317753212
 20
-6.704921604567921
 10
5.104380317753212
 20
-6.704921604567921
 97
        0
 97
        0
 92
        1
 93
        1
 72
     4
 94
        3
 73
     0
 74
     1
 95
       20
 96
       16
 40
0.0
 40
0.0
 40
0.0
 40
0.0
 40
1.0
 40
1.0
 40
1.0
 40
2.0
 40
2.0
 40
2.0
 40
3.0
 40
3.0
 40
3.0
 40
4.0
 40
4.0
 40
4.0
 40
5.0
 40
5.0
 40
5.0
 40
5.0
 10
5.110250527310275
 20
-6.927634624833267
 10
5.147464925572093
 20
-6.927634624833267
 10
5.166413415956336
 20
-6.900850087272854
 10
5.166413415956336
 20
-6.83163622109992
 10
5.166413415956336
 20
-6.781343542010947
 10
5.15336243842944
 20
-6.751282608418655
 10
5.114154899248231
 20
-6.751282608418655
 10
5.114154899248231
 20
-6.751282608418655
 10
5.081500152130754
 20
-6.751282608418655
 10
5.081500152130754
 20
-6.751282608418655
 10
5.081500152130754
 20
-6.751282608418655
 10
5.081500152130754
 20
-6.927634624833267
 10
5.081500152130754
 20
-6.927634624833267
 10
5.081500152130754
 20
-6.927634624833267
 10
5.110250527310275
 20
-6.927634624833267
 10
5.110250527310275
 20
-6.927634624833267
 97
        0
 97
        0
 75
     2
 76
     1
 98
        0
  0
ENDBLK
  5
79
330
76
100
AcDbEntity
  8
0
100
AcDbBlockEnd
  0
BLOCK
  5
9A
330
98
100
AcDbEntity
  8
0
100
AcDbBlockBegin
  2
block 4
 70
     0
 10
0.0
 20
0.0
 30
0.0
  3
block 4
  1

  0
SPLINE
  5
9C
330
98
100
AcDbEntity
  8
Shield
370
     0
100
AcDbSpline
210
0.0
220
0.0
230
1.0
 70
    11
 71
     3
 72
    20
 73
    16
 74
     0
 42
0.0000000001
 43
0.0000000001
 12
1.0
 22
0.0
 32
0.0
 13
1.0
 23
0.0
 33
0.0
 40
0.0
 40
0.0
 40
0.0
 40
0.0
 40
1.0
 40
1.0
 40
1.0
 40
2.0
 40
2.0
 40
2.0
 40
3.0
 40
3.0
 40
3.0
 40
4.0
 40
4.0
 40
4.0
 40
5.0
 40
5.0
 40
5.0
 40
5.0
 10
5.063950432671441
 20
-4.724703470865885
 30
0.0
 10
5.063950432671441
 20
-4.724703470865885
 30
0.0
 10
5.063950432671441
 20
-4.511166042751736
 30
0.0
 10
5.063950432671441
 20
-4.511166042751736
 30
0.0
 10
4.611605326334635
 20
-4.556371900770399
 30
0.0
 10
4.159261915418837
 20
-5.030760023329005
 30
0.0
 10
3.706916809082031
 20
-5.261888292100694
 30
0.0
 10
3.73818800184463
 20
-5.299504597981783
 30
0.0
 10
3.771110534667969
 20
-5.335138108995225
 30
0.0
 10
3.804951137966579
 20
-5.368630303276922
 30
0.0
 10
4.222573174370672
 20
-5.162362840440538
 30
0.0
 10
4.640195210774739
 20
-4.79014417860243
 30
0.0
 10
5.057817247178819
 20
-4.78118896484375
 30
0.0
 10
5.060462951660156
 20
-4.762570699055989
 30
0.0
 10
5.062649197048611
 20
-4.743787977430555
 30
0.0
 10
5.063950432671441
 20
-4.724703470865885
 30
0.0
  0
HATCH
  5
9D
330
98
100
AcDbEntity
  8
Shield
 62
   217
420
  9185936
100
AcDbHatch
 10
0.0
 20
0.0
 30
0.0
210
0.0
220
0.0
230
1.0
  2
SOLID
 70
     1
 71
     0
 91
        1
 92
        1
 93
        1
 72
     4
 94
        3
 73
     0
 74
     1
 95
       20
 96
       16
 40
0.0
 40
0.0
 40
0.0
 40
0.0
 40
1.0
 40
1.0
 40
1.0
 40
2.0
 40
2.0
 40
2.0
 40
3.0
 40
3.0
 40
3.0
 40
4.0
 40
4.0
 40
4.0
 40
5.0
 40
5.0
 40
5.0
 40
5.0
 10
5.063950432671441
 20
-4.724703470865885
 10
5.063950432671441
 20
-4.724703470865885
 10
5.063950432671441
 20
-4.511166042751736
 10
5.063950432671441
 20
-4.511166042751736
 10
4.611605326334635
 20
-4.556371900770399
 10
4.159261915418837
 20
-5.030760023329005
 10
3.706916809082031
 20
-5.261888292100694
 10
3.73818800184463
 20
-5.299504597981783
 10
3.771110534667969
 20
-5.335138108995225
 10
3.804951137966579
 20
-5.368630303276922
 10
4.222573174370672
 20
-5.162362840440538
 10
4.640195210774739
 20
-4.79014417860243
 10
5.057817247178819
 20
-4.78118896484375
 10
5.060462951660156
 20
-4.762570699055989
 10
5.062649197048611
 20
-4.743787977430555
 10
5.063950432671441
 20
-4.724703470865885
 97
        0
 97
        0
 75
     2
 76
     1
 98
        0
  0
SPLINE
  5
9E
330
98
100
AcDbEntity
  8
Shield
370
     0
100
AcDbSpline
210
0.0
220
0.0
230
1.0
 70
    11
 71
     3
 72
    17
 73
    13
 74
     0
 42
0.0000000001
 43
0.0000000001
 12
1.0
 22
0.0
 32
0.0
 13
1.0
 23
0.0
 33
0.0
 40
0.0
 40
0.0
 40
0.0
 40
0.0
 40
1.0
 40
1.0
 40
1.0
 40
2.0
 40
2.0
 40
2.0
 40
3.0
 40
3.0
 40
3.0
 40
4.0
 40
4.0
 40
4.0
 40
4.0
 10
4.401390075683594
 20
-3.93955993652345
 30
0.0
 10
4.095470852322061
 20
-4.253888448079427
 30
0.0
 10
3.789549933539496
 20
-4.614279005262587
 30
0.0
 10
3.483630710177964
 20
-4.812769571940117
 30
0.0
 10
3.490882873535156
 20
-4.8522186279297
 30
0.0
 10
3.501070658365885
 20
-4.890536838107638
 30
0.0
 10
3.513689676920573
 20
-4.927764044867621
 30
0.0
 10
3.877906799316406
 20
-4.710784064398871
 30
0.0
 10
4.242122226291232
 20
-4.273984273274739
 30
0.0
 10
4.606339348687066
 20
-3.968348185221366
 30
0.0
 10
4.606339348687066
 20
-3.968348185221366
 30
0.0
 10
4.401390075683594
 20
-3.93955993652345
 30
0.0
 10
4.401390075683594
 20
-3.93955993652345
 30
0.0
  0
HATCH
  5
9F
330
98
100
AcDbEntity
  8
Shield
 62
   217
420
  9185936
100
AcDbHatch
 10
0.0
 20
0.0
 30
0.0
210
0.0
220
0.0
230
1.0
  2
SOLID
 70
     1
 71
     0
 91
        1
 92
        1
 93
        1
 72
     4
 94
        3
 73
     0
 74
     1
 95
       17
 96
       13
 40
0.0
 40
0.0
 40
0.0
 40
0.0
 40
1.0
 40
1.0
 40
1.0
 40
2.0
 40
2.0
 40
2.0
 40
3.0
 40
3.0
 40
3.0
 40
4.0
 40
4.0
 40
4.0
 40
4.0
 10
4.401390075683594
 20
-3.93955993652345
 10
4.095470852322061
 20
-4.253888448079427
 10
3.789549933539496
 20
-4.614279005262587
 10
3.483630710177964
 20
-4.812769571940117
 10
3.490882873535156
 20
-4.8522186279297
 10
3.501070658365885
 20
-4.890536838107638
 10
3.513689676920573
 20
-4.927764044867621
 10
3.877906799316406
 20
-4.710784064398871
 10
4.242122226291232
 20
-4.273984273274739
 10
4.606339348687066
 20
-3.968348185221366
 10
4.606339348687066
 20
-3.968348185221366
 10
4.401390075683594
 20
-3.93955993652345
 10
4.401390075683594
 20
-3.93955993652345
 97
        0
 97
        0
 75
     2
 76
     1
 98
        0
  0
ENDBLK
  5
9B
330
98
100
AcDbEntity
  8
0
100
AcDbBlockEnd
  0
BLOCK
  5
A2
330
A0
100
AcDbEntity
  8
0
100
AcDbBlockBegin
  2
block 5
 70
     0
 10
0.0
 20
0.0
 30
0.0
  3
block 5
  1

  0
SPLINE
  5
A4
330
A0
100
AcDbEntity
  8
Shield
370
     0
100
AcDbSpline
210
0.0
220
0.0
230
1.0
 70
    11
 71
     3
 72
    17
 73
    13
 74
     0
 42
0.0000000001
 43
0.0000000001
 12
1.0
 22
0.0
 32
0.0
 13
1.0
 23
0.0
 33
0.0
 40
0.0
 40
0.0
 40
0.0
 40
0.0
 40
1.0
 40
1.0
 40
1.0
 40
2.0
 40
2.0
 40
2.0
 40
3.0
 40
3.0
 40
3.0
 40
4.0
 40
4.0
 40
4.0
 40
4.0
 10
5.063950432671441
 20
-4.268944634331597
 30
0.0
 10
4.587420993381076
 20
-4.353781806098103
 30
0.0
 10
4.110891554090712
 20
-4.914903428819444
 30
0.0
 10
3.634362114800347
 20
-5.166154649522569
 30
0.0
 10
3.657041761610255
 20
-5.199428134494357
 30
0.0
 10
3.68145921495227
 20
-5.231265597873263
 30
0.0
 10
3.706916809082031
 20
-5.261888292100694
 30
0.0
 10
4.159261915418837
 20
-5.030760023329005
 30
0.0
 10
4.611605326334635
 20
-4.556371900770399
 30
0.0
 10
5.063950432671441
 20
-4.511166042751736
 30
0.0
 10
5.063950432671441
 20
-4.511166042751736
 30
0.0
 10
5.063950432671441
 20
-4.268944634331597
 30
0.0
 10
5.063950432671441
 20
-4.268944634331597
 30
0.0
  0
HATCH
  5
A5
330
A0
100
AcDbEntity
  8
Shield
 62
   242
420
 14293297
100
AcDbHatch
 10
0.0
 20
0.0
 30
0.0
210
0.0
220
0.0
230
1.0
  2
SOLID
 70
     1
 71
     0
 91
        1
 92
        1
 93
        1
 72
     4
 94
        3
 73
     0
 74
     1
 95
       17
 96
       13
 40
0.0
 40
0.0
 40
0.0
 40
0.0
 40
1.0
 40
1.0
 40
1.0
 40
2.0
 40
2.0
 40
2.0
 40
3.0
 40
3.0
 40
3.0
 40
4.0
 40
4.0
 40
4.0
 40
4.0
 10
5.063950432671441
 20
-4.268944634331597
 10
4.587420993381076
 20
-4.353781806098103
 10
4.110891554090712
 20
-4.914903428819444
 10
3.634362114800347
 20
-5.166154649522569
 10
3.657041761610255
 20
-5.199428134494357
 10
3.68145921495227
 20
-5.231265597873263
 10
3.706916809082031
 20
-5.261888292100694
 10
4.159261915418837
 20
-5.030760023329005
 10
4.611605326334635
 20
-4.556371900770399
 10
5.063950432671441
 20
-4.511166042751736
 10
5.063950432671441
 20
-4.511166042751736
 10
5.063950432671441
 20
-4.268944634331597
 10
5.063950432671441
 20
-4.268944634331597
 97
        0
 97
        0
 75
     2
 76
     1
 98
        0
  0
SPLINE
  5
A6
330
A0
100
AcDbEntity
  8
Shield
370
     0
100
AcDbSpline
210
0.0
220
0.0
230
1.0
 70
    11
 71
     3
 72
    17
 73
    13
 74
     0
 42
0.0000000001
 43
0.0000000001
 12
1.0
 22
0.0
 32
0.0
 13
1.0
 23
0.0
 33
0.0
 40
0.0
 40
0.0
 40
0.0
 40
0.0
 40
1.0
 40
1.0
 40
1.0
 40
2.0
 40
2.0
 40
2.0
 40
3.0
 40
3.0
 40
3.0
 40
4.0
 40
4.0
 40
4.0
 40
4.0
 10
4.606339348687066
 20
-3.968348185221366
 30
0.0
 10
4.242122226291232
 20
-4.273984273274739
 30
0.0
 10
3.877906799316406
 20
-4.710784064398871
 30
0.0
 10
3.513689676920573
 20
-4.927764044867621
 30
0.0
 10
3.52523210313585
 20
-4.961815728081597
 30
0.0
 10
3.538837009006089
 20
-4.994904412163629
 30
0.0
 10
3.554189893934462
 20
-5.027046203613281
 30
0.0
 10
3.991147359212239
 20
-4.781873914930555
 30
0.0
 10
4.428105672200521
 20
-4.239039103190117
 30
0.0
 10
4.865063137478298
 20
-4.004690382215712
 30
0.0
 10
4.865063137478298
 20
-4.004690382215712
 30
0.0
 10
4.606339348687066
 20
-3.968348185221366
 30
0.0
 10
4.606339348687066
 20
-3.968348185221366
 30
0.0
  0
HATCH
  5
A7
330
A0
100
AcDbEntity
  8
Shield
 62
   242
420
 14293297
100
AcDbHatch
 10
0.0
 20
0.0
 30
0.0
210
0.0
220
0.0
230
1.0
  2
SOLID
 70
     1
 71
     0
 91
        1
 92
        1
 93
        1
 72
     4
 94
        3
 73
     0
 74
     1
 95
       17
 96
       13
 40
0.0
 40
0.0
 40
0.0
 40
0.0
 40
1.0
 40
1.0
 40
1.0
 40
2.0
 40
2.0
 40
2.0
 40
3.0
 40
3.0
 40
3.0
 40
4.0
 40
4.0
 40
4.0
 40
4.0
 10
4.606339348687066
 20
-3.968348185221366
 10
4.242122226291232
 20
-4.273984273274739
 10
3.877906799316406
 20
-4.710784064398871
 10
3.513689676920573
 20
-4.927764044867621
 10
3.52523210313585
 20
-4.961815728081597
 10
3.538837009006089
 20
-4.994904412163629
 10
3.554189893934462
 20
-5.027046203613281
 10
3.991147359212239
 20
-4.781873914930555
 10
4.428105672200521
 20
-4.239039103190117
 10
4.865063137478298
 20
-4.004690382215712
 10
4.865063137478298
 20
-4.004690382215712
 10
4.606339348687066
 20
-3.968348185221366
 10
4.606339348687066
 20
-3.968348185221366
 97
        0
 97
        0
 75
     2
 76
     1
 98
        0
  0
ENDBLK
  5
A3
330
A0
100
AcDbEntity
  8
0
100
AcDbBlockEnd
  0
ENDSEC
  0
SECTION
  2
ENTITIES
  0
INSERT
  5
42
330
1F
100
AcDbEntity
  8
ThermoDefender
100
AcDbBlockReference
  2
block 2
 10
0.0
 20
0.0
 30
0.0
  0
SPLINE
  5
93
330
1F
100
AcDbEntity
  8
Shield
370
     0
100
AcDbSpline
210
0.0
220
0.0
230
1.0
 70
    11
 71
     3
 72
    23
 73
    19
 74
     0
 42
0.0000000001
 43
0.0000000001
 12
1.0
 22
0.0
 32
0.0
 13
1.0
 23
0.0
 33
0.0
 40
0.0
 40
0.0
 40
0.0
 40
0.0
 40
1.0
 40
1.0
 40
1.0
 40
2.0
 40
2.0
 40
2.0
 40
3.0
 40
3.0
 40
3.0
 40
4.0
 40
4.0
 40
4.0
 40
5.0
 40
5.0
 40
5.0
 40
6.0
 40
6.0
 40
6.0
 40
6.0
 10
3.472328568674432
 20
-4.032626880073217
 30
0.0
 10
3.472328568674432
 20
-4.032626880073217
 30
0.0
 10
3.472328568674432
 20
-4.724702425666591
 30
0.0
 10
3.472328568674432
 20
-4.724702425666591
 30
0.0
 10
3.508312641722139
 20
-5.25236202006642
 30
0.0
 10
4.074441076323511
 20
-5.602938807631871
 30
0.0
 10
4.268139335836091
 20
-5.707889763078153
 30
0.0
 10
4.461840133415206
 20
-5.602937538598604
 30
0.0
 10
5.027966664466703
 20
-5.25236202006642
 30
0.0
 10
5.06395073751441
 20
-4.724703694699807
 30
0.0
 10
5.06395073751441
 20
-4.724703694699807
 30
0.0
 10
5.06395073751441
 20
-4.032626880073217
 30
0.0
 10
5.06395073751441
 20
-4.032626880073217
 30
0.0
 10
5.06395073751441
 20
-4.032626880073217
 30
0.0
 10
4.268139335836091
 20
-3.920843449470719
 30
0.0
 10
4.268139335836091
 20
-3.920843449470719
 30
0.0
 10
4.268139335836091
 20
-3.920843449470719
 30
0.0
 10
3.472328568674432
 20
-4.032626880073217
 30
0.0
 10
3.472328568674432
 20
-4.032626880073217
 30
0.0
  0
HATCH
  5
94
330
1F
100
AcDbEntity
  8
Shield
 62
   177
420
  3225749
100
AcDbHatch
 10
0.0
 20
0.0
 30
0.0
210
0.0
220
0.0
230
1.0
  2
SOLID
 70
     1
 71
     0
 91
        1
 92
        1
 93
        1
 72
     4
 94
        3
 73
     0
 74
     1
 95
       23
 96
       19
 40
0.0
 40
0.0
 40
0.0
 40
0.0
 40
1.0
 40
1.0
 40
1.0
 40
2.0
 40
2.0
 40
2.0
 40
3.0
 40
3.0
 40
3.0
 40
4.0
 40
4.0
 40
4.0
 40
5.0
 40
5.0
 40
5.0
 40
6.0
 40
6.0
 40
6.0
 40
6.0
 10
3.472328568674432
 20
-4.032626880073217
 10
3.472328568674432
 20
-4.032626880073217
 10
3.472328568674432
 20
-4.724702425666591
 10
3.472328568674432
 20
-4.724702425666591
 10
3.508312641722139
 20
-5.25236202006642
 10
4.074441076323511
 20
-5.602938807631871
 10
4.268139335836091
 20
-5.707889763078153
 10
4.461840133415206
 20
-5.602937538598604
 10
5.027966664466703
 20
-5.25236202006642
 10
5.06395073751441
 20
-4.724703694699807
 10
5.06395073751441
 20
-4.724703694699807
 10
5.06395073751441
 20
-4.032626880073217
 10
5.06395073751441
 20
-4.032626880073217
 10
5.06395073751441
 20
-4.032626880073217
 10
4.268139335836091
 20
-3.920843449470719
 10
4.268139335836091
 20
-3.920843449470719
 10
4.268139335836091
 20
-3.920843449470719
 10
3.472328568674432
 20
-4.032626880073217
 10
3.472328568674432
 20
-4.032626880073217
 97
        0
 97
        0
 75
     2
 76
     1
 98
        0
  0
SPLINE
  5
95
330
1F
100
AcDbEntity
  8
Shield
370
     0
100
AcDbSpline
210
0.0
220
0.0
230
1.0
 70
    11
 71
     3
 72
    59
 73
    55
 74
     0
 42
0.0000000001
 43
0.0000000001
 12
1.0
 22
0.0
 32
0.0
 13
1.0
 23
0.0
 33
0.0
 40
0.0
 40
0.0
 40
0.0
 40
0.0
 40
1.0
 40
1.0
 40
1.0
 40
2.0
 40
2.0
 40
2.0
 40
3.0
 40
3.0
 40
3.0
 40
4.0
 40
4.0
 40
4.0
 40
5.0
 40
5.0
 40
5.0
 40
6.0
 40
6.0
 40
6.0
 40
7.0
 40
7.0
 40
7.0
 40
8.0
 40
8.0
 40
8.0
 40
9.0
 40
9.0
 40
9.0
 40
10.0
 40
10.0
 40
10.0
 40
11.0
 40
11.0
 40
11.0
 40
12.0
 40
12.0
 40
12.0
 40
13.0
 40
13.0
 40
13.0
 40
14.0
 40
14.0
 40
14.0
 40
15.0
 40
15.0
 40
15.0
 40
16.0
 40
16.0
 40
16.0
 40
17.0
 40
17.0
 40
17.0
 40
18.0
 40
18.0
 40
18.0
 40
18.0
 10
5.159999424532089
 20
-3.878150632011208
 30
0.0
 10
5.159999424532089
 20
-3.878150632011208
 30
0.0
 10
4.278322058839952
 20
-3.754305674640262
 30
0.0
 10
4.278322058839952
 20
-3.754305674640262
 30
0.0
 10
4.274941988710225
 20
-3.75383105619518
 30
0.0
 10
4.271540979531437
 20
-3.753593746972633
 30
0.0
 10
4.268139970352751
 20
-3.753593746972633
 30
0.0
 10
4.264738961173963
 20
-3.753593746972633
 30
0.0
 10
4.261337951995162
 20
-3.75383105619518
 30
0.0
 10
4.257957247348953
 20
-3.754305674640262
 30
0.0
 10
4.257957247348953
 20
-3.754305674640262
 30
0.0
 10
3.376279881656703
 20
-3.878150632011208
 30
0.0
 10
3.376279881656703
 20
-3.878150632011208
 30
0.0
 10
3.336100384599717
 20
-3.883794022987963
 30
0.0
 10
3.305993839168094
 20
-3.921442433176783
 30
0.0
 10
3.305993839168094
 20
-3.966042607649594
 30
0.0
 10
3.305993839168094
 20
-3.966042607649594
 30
0.0
 10
3.305993839168094
 20
-4.726475899669367
 30
0.0
 10
3.305993839168094
 20
-4.726475899669367
 30
0.0
 10
3.305993839168094
 20
-4.728885793859781
 30
0.0
 10
3.306066808581376
 20
-4.731307743866371
 30
0.0
 10
3.306224803224243
 20
-4.733711292890385
 30
0.0
 10
3.31318989235769
 20
-4.839659708491454
 30
0.0
 10
3.337635914863249
 20
-4.938882247731461
 30
0.0
 10
3.374340798811557
 20
-5.031219646934574
 30
0.0
 10
3.533547368408487
 20
-5.431730355830319
 30
0.0
 10
3.924573322602037
 20
-5.701982413179975
 30
0.0
 10
4.132700490458697
 20
-5.82263702089593
 30
0.0
 10
4.175578586776535
 20
-5.847494210182782
 30
0.0
 10
4.21072827044553
 20
-5.86603478634005
 30
0.0
 10
4.234443329784325
 20
-5.878024612728368
 30
0.0
 10
4.245146356431152
 20
-5.883436405132443
 30
0.0
 10
4.256643163391926
 20
-5.8861419840762
 30
0.0
 10
4.268139970352751
 20
-5.8861419840762
 30
0.0
 10
4.279636777313448
 20
-5.8861419840762
 30
0.0
 10
4.29113294975769
 20
-5.883436405132443
 30
0.0
 10
4.301836610921125
 20
-5.878024612728368
 30
0.0
 10
4.325551035743248
 20
-5.86603478634005
 30
0.0
 10
4.360701353928915
 20
-5.847494210182782
 30
0.0
 10
4.403579450246676
 20
-5.82263702089593
 30
0.0
 10
4.585999811038517
 20
-5.71688530545263
 30
0.0
 10
4.9089224599775
 20
-5.496211205599517
 30
0.0
 10
5.093132792204667
 20
-5.173633099194793
 30
0.0
 10
5.167546365422342
 20
-5.043324320834345
 30
0.0
 10
5.219358456000742
 20
-4.896421028844821
 30
0.0
 10
5.230055137481157
 20
-4.733711292890385
 30
0.0
 10
5.230213132124087
 20
-4.731307743866371
 30
0.0
 10
5.230285467020672
 20
-4.728885793859781
 30
0.0
 10
5.230285467020672
 20
-4.726475899669367
 30
0.0
 10
5.230285467020672
 20
-4.726475899669367
 30
0.0
 10
5.230285467020672
 20
-3.966042607649594
 30
0.0
 10
5.230285467020672
 20
-3.966042607649594
 30
0.0
 10
5.230285467020672
 20
-3.921442433176783
 30
0.0
 10
5.200178921589137
 20
-3.883794022987963
 30
0.0
 10
5.159999424532089
 20
-3.878150632011208
 30
0.0
  0
SPLINE
  5
96
330
1F
100
AcDbEntity
  8
Shield
370
     0
100
AcDbSpline
210
0.0
220
0.0
230
1.0
 70
    11
 71
     3
 72
    23
 73
    19
 74
     0
 42
0.0000000001
 43
0.0000000001
 12
1.0
 22
0.0
 32
0.0
 13
1.0
 23
0.0
 33
0.0
 40
0.0
 40
0.0
 40
0.0
 40
0.0
 40
1.0
 40
1.0
 40
1.0
 40
2.0
 40
2.0
 40
2.0
 40
3.0
 40
3.0
 40
3.0
 40
4.0
 40
4.0
 40
4.0
 40
5.0
 40
5.0
 40
5.0
 40
6.0
 40
6.0
 40
6.0
 40
6.0
 10
5.06395073751441
 20
-4.724703694699807
 30
0.0
 10
5.027966664466703
 20
-5.25236202006642
 30
0.0
 10
4.461840133415206
 20
-5.602937538598604
 30
0.0
 10
4.268139335836091
 20
-5.707889763078153
 30
0.0
 10
4.074441076323511
 20
-5.602938807631871
 30
0.0
 10
3.508312641722139
 20
-5.25236202006642
 30
0.0
 10
3.472328568674432
 20
-4.724702425666591
 30
0.0
 10
3.472328568674432
 20
-4.724702425666591
 30
0.0
 10
3.472328568674432
 20
-4.032626880073217
 30
0.0
 10
3.472328568674432
 20
-4.032626880073217
 30
0.0
 10
3.472328568674432
 20
-4.032626880073217
 30
0.0
 10
4.268139335836091
 20
-3.920843449470719
 30
0.0
 10
4.268139335836091
 20
-3.920843449470719
 30
0.0
 10
4.268139335836091
 20
-3.920843449470719
 30
0.0
 10
5.06395073751441
 20
-4.032626880073217
 30
0.0
 10
5.06395073751441
 20
-4.032626880073217
 30
0.0
 10
5.06395073751441
 20
-4.032626880073217
 30
0.0
 10
5.06395073751441
 20
-4.724703694699807
 30
0.0
 10
5.06395073751441
 20
-4.724703694699807
 30
0.0
  0
HATCH
  5
97
330
1F
100
AcDbEntity
  8
Shield
 62
   250
420
  2301728
100
AcDbHatch
 10
0.0
 20
0.0
 30
0.0
210
0.0
220
0.0
230
1.0
  2
SOLID
 70
     1
 71
     0
 91
        2
 92
        1
 93
        1
 72
     4
 94
        3
 73
     0
 74
     1
 95
       59
 96
       55
 40
0.0
 40
0.0
 40
0.0
 40
0.0
 40
1.0
 40
1.0
 40
1.0
 40
2.0
 40
2.0
 40
2.0
 40
3.0
 40
3.0
 40
3.0
 40
4.0
 40
4.0
 40
4.0
 40
5.0
 40
5.0
 40
5.0
 40
6.0
 40
6.0
 40
6.0
 40
7.0
 40
7.0
 40
7.0
 40
8.0
 40
8.0
 40
8.0
 40
9.0
 40
9.0
 40
9.0
 40
10.0
 40
10.0
 40
10.0
 40
11.0
 40
11.0
 40
11.0
 40
12.0
 40
12.0
 40
12.0
 40
13.0
 40
13.0
 40
13.0
 40
14.0
 40
14.0
 40
14.0
 40
15.0
 40
15.0
 40
15.0
 40
16.0
 40
16.0
 40
16.0
 40
17.0
 40
17.0
 40
17.0
 40
18.0
 40
18.0
 40
18.0
 40
18.0
 10
5.159999424532089
 20
-3.878150632011208
 10
5.159999424532089
 20
-3.878150632011208
 10
4.278322058839952
 20
-3.754305674640262
 10
4.278322058839952
 20
-3.754305674640262
 10
4.274941988710225
 20
-3.75383105619518
 10
4.271540979531437
 20
-3.753593746972633
 10
4.268139970352751
 20
-3.753593746972633
 10
4.264738961173963
 20
-3.753593746972633
 10
4.261337951995162
 20
-3.75383105619518
 10
4.257957247348953
 20
-3.754305674640262
 10
4.257957247348953
 20
-3.754305674640262
 10
3.376279881656703
 20
-3.878150632011208
 10
3.376279881656703
 20
-3.878150632011208
 10
3.336100384599717
 20
-3.883794022987963
 10
3.305993839168094
 20
-3.921442433176783
 10
3.305993839168094
 20
-3.966042607649594
 10
3.305993839168094
 20
-3.966042607649594
 10
3.305993839168094
 20
-4.726475899669367
 10
3.305993839168094
 20
-4.726475899669367
 10
3.305993839168094
 20
-4.728885793859781
 10
3.306066808581376
 20
-4.731307743866371
 10
3.306224803224243
 20
-4.733711292890385
 10
3.31318989235769
 20
-4.839659708491454
 10
3.337635914863249
 20
-4.938882247731461
 10
3.374340798811557
 20
-5.031219646934574
 10
3.533547368408487
 20
-5.431730355830319
 10
3.924573322602037
 20
-5.701982413179975
 10
4.132700490458697
 20
-5.82263702089593
 10
4.175578586776535
 20
-5.847494210182782
 10
4.21072827044553
 20
-5.86603478634005
 10
4.234443329784325
 20
-5.878024612728368
 10
4.245146356431152
 20
-5.883436405132443
 10
4.256643163391926
 20
-5.8861419840762
 10
4.268139970352751
 20
-5.8861419840762
 10
4.279636777313448
 20
-5.8861419840762
 10
4.29113294975769
 20
-5.883436405132443
 10
4.301836610921125
 20
-5.878024612728368
 10
4.325551035743248
 20
-5.86603478634005
 10
4.360701353928915
 20
-5.847494210182782
 10
4.403579450246676
 20
-5.82263702089593
 10
4.585999811038517
 20
-5.71688530545263
 10
4.9089224599775
 20
-5.496211205599517
 10
5.093132792204667
 20
-5.173633099194793
 10
5.167546365422342
 20
-5.043324320834345
 10
5.219358456000742
 20
-4.896421028844821
 10
5.230055137481157
 20
-4.733711292890385
 10
5.230213132124087
 20
-4.731307743866371
 10
5.230285467020672
 20
-4.728885793859781
 10
5.230285467020672
 20
-4.726475899669367
 10
5.230285467020672
 20
-4.726475899669367
 10
5.230285467020672
 20
-3.966042607649594
 10
5.230285467020672
 20
-3.966042607649594
 10
5.230285467020672
 20
-3.921442433176783
 10
5.200178921589137
 20
-3.883794022987963
 10
5.159999424532089
 20
-3.878150632011208
 97
        0
 97
        0
 92
        1
 93
        1
 72
     4
 94
        3
 73
     0
 74
     1
 95
       23
 96
       19
 40
0.0
 40
0.0
 40
0.0
 40
0.0
 40
1.0
 40
1.0
 40
1.0
 40
2.0
 40
2.0
 40
2.0
 40
3.0
 40
3.0
 40
3.0
 40
4.0
 40
4.0
 40
4.0
 40
5.0
 40
5.0
 40
5.0
 40
6.0
 40
6.0
 40
6.0
 40
6.0
 10
5.06395073751441
 20
-4.724703694699807
 10
5.027966664466703
 20
-5.25236202006642
 10
4.461840133415206
 20
-5.602937538598604
 10
4.268139335836091
 20
-5.707889763078153
 10
4.074441076323511
 20
-5.602938807631871
 10
3.508312641722139
 20
-5.25236202006642
 10
3.472328568674432
 20
-4.724702425666591
 10
3.472328568674432
 20
-4.724702425666591
 10
3.472328568674432
 20
-4.032626880073217
 10
3.472328568674432
 20
-4.032626880073217
 10
3.472328568674432
 20
-4.032626880073217
 10
4.268139335836091
 20
-3.920843449470719
 10
4.268139335836091
 20
-3.920843449470719
 10
4.268139335836091
 20
-3.920843449470719
 10
5.06395073751441
 20
-4.032626880073217
 10
5.06395073751441
 20
-4.032626880073217
 10
5.06395073751441
 20
-4.032626880073217
 10
5.06395073751441
 20
-4.724703694699807
 10
5.06395073751441
 20
-4.724703694699807
 97
        0
 97
        0
 75
     2
 76
     1
 98
        0
  0
INSERT
  5
99
330
1F
100
AcDbEntity
  8
Shield
100
AcDbBlockReference
  2
block 4
 10
0.0
 20
0.0
 30
0.0
  0
INSERT
  5
A1
330
1F
100
AcDbEntity
  8
Shield
100
AcDbBlockReference
  2
block 5
 10
0.0
 20
0.0
 30
0.0
  0
SPLINE
  5
A8
330
1F
100
AcDbEntity
  8
Shield
370
     0
100
AcDbSpline
210
0.0
220
0.0
230
1.0
 70
    11
 71
     3
 72
    20
 73
    16
 74
     0
 42
0.0000000001
 43
0.0000000001
 12
1.0
 22
0.0
 32
0.0
 13
1.0
 23
0.0
 33
0.0
 40
0.0
 40
0.0
 40
0.0
 40
0.0
 40
1.0
 40
1.0
 40
1.0
 40
2.0
 40
2.0
 40
2.0
 40
3.0
 40
3.0
 40
3.0
 40
4.0
 40
4.0
 40
4.0
 40
5.0
 40
5.0
 40
5.0
 40
5.0
 10
5.063950432671441
 20
-4.032626681857638
 30
0.0
 10
5.063950432671441
 20
-4.032626681857638
 30
0.0
 10
4.865063137478298
 20
-4.004690382215712
 30
0.0
 10
4.865063137478298
 20
-4.004690382215712
 30
0.0
 10
4.428105672200521
 20
-4.239039103190117
 30
0.0
 10
3.991147359212239
 20
-4.781873914930555
 30
0.0
 10
3.554189893934462
 20
-5.027046203613281
 30
0.0
 10
3.577386644151475
 20
-5.075610690646713
 30
0.0
 10
3.604328579372829
 20
-5.122090657552083
 30
0.0
 10
3.634362114800347
 20
-5.166154649522569
 30
0.0
 10
4.110891554090712
 20
-4.914903428819444
 30
0.0
 10
4.587420993381076
 20
-4.353781806098103
 30
0.0
 10
5.063950432671441
 20
-4.268944634331597
 30
0.0
 10
5.063950432671441
 20
-4.268944634331597
 30
0.0
 10
5.063950432671441
 20
-4.032626681857638
 30
0.0
 10
5.063950432671441
 20
-4.032626681857638
 30
0.0
  0
HATCH
  5
A9
330
1F
100
AcDbEntity
  8
Shield
 62
    41
420
 16768079
100
AcDbHatch
 10
0.0
 20
0.0
 30
0.0
210
0.0
220
0.0
230
1.0
  2
SOLID
 70
     1
 71
     0
 91
        1
 92
        1
 93
        1
 72
     4
 94
        3
 73
     0
 74
     1
 95
       20
 96
       16
 40
0.0
 40
0.0
 40
0.0
 40
0.0
 40
1.0
 40
1.0
 40
1.0
 40
2.0
 40
2.0
 40
2.0
 40
3.0
 40
3.0
 40
3.0
 40
4.0
 40
4.0
 40
4.0
 40
5.0
 40
5.0
 40
5.0
 40
5.0
 10
5.063950432671441
 20
-4.032626681857638
 10
5.063950432671441
 20
-4.032626681857638
 10
4.865063137478298
 20
-4.004690382215712
 10
4.865063137478298
 20
-4.004690382215712
 10
4.428105672200521
 20
-4.239039103190117
 10
3.991147359212239
 20
-4.781873914930555
 10
3.554189893934462
 20
-5.027046203613281
 10
3.577386644151475
 20
-5.075610690646713
 10
3.604328579372829
 20
-5.122090657552083
 10
3.634362114800347
 20
-5.166154649522569
 10
4.110891554090712
 20
-4.914903428819444
 10
4.587420993381076
 20
-4.353781806098103
 10
5.063950432671441
 20
-4.268944634331597
 10
5.063950432671441
 20
-4.268944634331597
 10
5.063950432671441
 20
-4.032626681857638
 10
5.063950432671441
 20
-4.032626681857638
 97
        0
 97
        0
 75
     2
 76
     1
 98
        0
  0
ENDSEC
  0
SECTION
  2
OBJECTS
  0
DICTIONARY
  5
C
330
0
100
AcDbDictionary
281
     1
  3
ACAD_GROUP
350
D
  3
ACAD_LAYOUT
350
1A
  3
ACAD_MATERIAL
350
3B
  3
ACAD_MLEADERSTYLE
350
AB
  3
ACAD_MLINESTYLE
350
17
  3
ACAD_PLOTSETTINGS
350
19
  3
ACAD_PLOTSTYLENAME
350
E
  3
ACAD_TABLESTYLE
350
AA
  3
ACAD_VISUALSTYLE
350
2A
  0
SUN
  5
3F
330
29
100
AcDbSun
 90
        1
290
     0
 63
     7
421
 16777215
 40
1.0
291
     1
 91
  2455826
 92
 54000000
292
     0
 70
     2
 71
   256
280
     1
  0
DICTIONARY
  5
D
102
{ACAD_REACTORS
330
C
102
}
330
C
100
AcDbDictionary
281
     1
  0
DICTIONARY
  5
1A
102
{ACAD_REACTORS
330
C
102
}
330
C
100
AcDbDictionary
281
     1
  3
Layout1
350
1E
  3
Layout2
350
26
  3
Model
350
22
  0
DICTIONARY
  5
3B
102
{ACAD_REACTORS
330
C
102
}
330
C
100
AcDbDictionary
281
     1
  3
ByBlock
350
3D
  3
ByLayer
350
3C
  3
Global
350
3E
  0
DICTIONARY
  5
AB
102
{ACAD_REACTORS
330
C
102
}
330
C
100
AcDbDictionary
281
     1
  0
DICTIONARY
  5
17
102
{ACAD_REACTORS
330
C
102
}
330
C
100
AcDbDictionary
281
     1
  3
Standard
350
18
  0
DICTIONARY
  5
19
102
{ACAD_REACTORS
330
C
102
}
330
C
100
AcDbDictionary
281
     1
  0
ACDBDICTIONARYWDFLT
  5
E
102
{ACAD_REACTORS
330
C
102
}
330
C
100
AcDbDictionary
281
     1
  3
Normal
350
F
100
AcDbDictionaryWithDefault
340
F
  0
DICTIONARY
  5
AA
102
{ACAD_REACTORS
330
C
102
}
330
C
100
AcDbDictionary
281
     1
  0
DICTIONARY
  5
2A
102
{ACAD_REACTORS
330
C
102
}
330
C
100
AcDbDictionary
281
     1
  3
2dWireframe
350
2F
  3
3D Hidden
350
31
  3
3dWireframe
350
30
  3
Basic
350
32
  3
Brighten
350
36
  3
ColorChange
350
3A
  3
Conceptual
350
34
  3
Dim
350
35
  3
Facepattern
350
39
  3
Flat
350
2B
  3
FlatWithEdges
350
2C
  3
Gouraud
350
2D
  3
GouraudWithEdges
350
2E
  3
Linepattern
350
38
  3
Realistic
350
33
  3
Thicken
350
37
  0
LAYOUT
  5
1E
102
{ACAD_REACTORS
330
1A
102
}
330
1A
100
AcDbPlotSettings
  1

  2
none_device
  4

  6

 40
0.0
 41
0.0
 42
0.0
 43
0.0
 44
0.0
 45
0.0
 46
0.0
 47
0.0
 48
0.0
 49
0.0
140
0.0
141
0.0
142
1.0
143
1.0
 70
   688
 72
     0
 73
     0
 74
     5
  7

 75
    16
 76
     0
 77
     2
 78
   300
147
1.0
148
0.0
149
0.0
100
AcDbLayout
  1
Layout1
 70
     1
 71
     1
 10
0.0
 20
0.0
 11
12.0
 21
9.0
 12
0.0
 22
0.0
 32
0.0
 14
1.000000000000000E+20
 24
1.000000000000000E+20
 34
1.000000000000000E+20
 15
-1.000000000000000E+20
 25
-1.000000000000000E+20
 35
-1.000000000000000E+20
146
0.0
 13
0.0
 23
0.0
 33
0.0
 16
1.0
 26
0.0
 36
0.0
 17
0.0
 27
1.0
 37
0.0
 76
     0
330
1B
  0
LAYOUT
  5
26
102
{ACAD_REACTORS
330
1A
102
}
330
1A
100
AcDbPlotSettings
  1

  2
none_device
  4

  6

 40
0.0
 41
0.0
 42
0.0
 43
0.0
 44
0.0
 45
0.0
 46
0.0
 47
0.0
 48
0.0
 49
0.0
140
0.0
141
0.0
142
1.0
143
1.0
 70
   688
 72
     0
 73
     0
 74
     5
  7

 75
    16
 76
     0
 77
     2
 78
   300
147
1.0
148
0.0
149
0.0
100
AcDbLayout
  1
Layout2
 70
     1
 71
     2
 10
0.0
 20
0.0
 11
0.0
 21
0.0
 12
0.0
 22
0.0
 32
0.0
 14
0.0
 24
0.0
 34
0.0
 15
0.0
 25
0.0
 35
0.0
146
0.0
 13
0.0
 23
0.0
 33
0.0
 16
1.0
 26
0.0
 36
0.0
 17
0.0
 27
1.0
 37
0.0
 76
     0
330
23
  0
LAYOUT
  5
22
102
{ACAD_REACTORS
330
1A
102
}
330
1A
100
AcDbPlotSettings
  1

  2
none_device
  4

  6

 40
0.0
 41
0.0
 42
0.0
 43
0.0
 44
0.0
 45
0.0
 46
0.0
 47
0.0
 48
0.0
 49
0.0
140
0.0
141
0.0
142
1.0
143
1.0
 70
  1712
 72
     0
 73
     0
 74
     0
  7

 75
     0
 76
     0
 77
     2
 78
   300
147
1.0
148
0.0
149
0.0
100
AcDbLayout
  1
Model
 70
     1
 71
     0
 10
0.0
 20
0.0
 11
12.0
 21
9.0
 12
0.0
 22
0.0
 32
0.0
 14
1.000000000000000E+20
 24
1.000000000000000E+20
 34
1.000000000000000E+20
 15
-1.000000000000000E+20
 25
-1.000000000000000E+20
 35
-1.000000000000000E+20
146
0.0
 13
0.0
 23
0.0
 33
0.0
 16
1.0
 26
0.0
 36
0.0
 17
0.0
 27
1.0
 37
0.0
 76
     0
330
1F
331
29
  0
MATERIAL
  5
3D
102
{ACAD_REACTORS
330
3B
102
}
330
3B
100
AcDbMaterial
  1
ByBlock
 72
     1
 94
      127
  0
MATERIAL
  5
3C
102
{ACAD_REACTORS
330
3B
102
}
330
3B
100
AcDbMaterial
  1
ByLayer
 72
     1
 94
      127
  0
MATERIAL
  5
3E
102
{ACAD_REACTORS
330
3B
102
}
330
3B
100
AcDbMaterial
  1
Global
 72
     1
 94
      127
  0
MLINESTYLE
  5
18
102
{ACAD_REACTORS
330
17
102
}
330
17
100
AcDbMlineStyle
  2
Standard
 70
     0
  3

 62
   256
 51
90.0
 52
90.0
 71
     2
 49
0.5
 62
   256
  6
BYLAYER
 49
-0.5
 62
   256
  6
BYLAYER
  0
ACDBPLACEHOLDER
  5
F
102
{ACAD_REACTORS
330
E
102
}
330
E
  0
VISUALSTYLE
  5
2F
102
{ACAD_REACTORS
330
2A
102
}
330
2A
100
AcDbVisualStyle
  2
2dWireframe
 70
     4
177
     2
291
     0
 71
     0
176
     1
 72
     2
176
     1
 73
     0
176
     1
 90
        0
176
     1
 40
-0.6
176
     1
 41
-30.0
176
     1
 62
     5
 63
     7
421
 16777215
176
     1
 74
     1
176
     1
 91
        4
176
     1
 64
     7
176
     1
 65
   257
176
     1
 75
     1
176
     1
175
     1
176
     1
 42
1.0
176
     1
 92
        0
176
     1
 66
   257
176
     1
 43
1.0
176
     1
 76
     1
176
     1
 77
     6
176
     1
 78
     2
176
     1
 67
     7
176
     1
 79
     5
176
     1
170
     0
176
     1
171
     0
176
     1
290
     0
176
     1
 93
        1
176
     1
 44
0.0
176
     1
173
     0
176
     1
  0
VISUALSTYLE
  5
31
102
{ACAD_REACTORS
330
2A
102
}
330
2A
100
AcDbVisualStyle
  2
3D Hidden
 70
     6
177
     2
291
     0
 71
     1
176
     1
 72
     2
176
     1
 73
     2
176
     1
 90
        0
176
     1
 40
-0.6
176
     1
 41
-30.0
176
     1
 62
     5
 63
     7
421
 16777215
176
     1
 74
     2
176
     1
 91
        2
176
     1
 64
     7
176
     1
 65
   257
176
     1
 75
     2
176
     1
175
     1
176
     1
 42
40.0
176
     1
 92
        0
176
     1
 66
   257
176
     1
 43
1.0
176
     1
 76
     1
176
     1
 77
     6
176
     1
 78
     2
176
     1
 67
     7
176
     1
 79
     3
176
     1
170
     0
176
     1
171
     0
176
     1
290
     0
176
     1
 93
        1
176
     1
 44
0.0
176
     1
173
     0
176
     1
  0
VISUALSTYLE
  5
30
102
{ACAD_REACTORS
330
2A
102
}
330
2A
100
AcDbVisualStyle
  2
3dWireframe
 70
     5
177
     2
291
     0
 71
     0
176
     1
 72
     2
176
     1
 73
     0
176
     1
 90
        0
176
     1
 40
-0.6
176
     1
 41
-30.0
176
     1
 62
     5
 63
     7
421
 16777215
176
     1
 74
     1
176
     1
 91
        4
176
     1
 64
     7
176
     1
 65
   257
176
     1
 75
     1
176
     1
175
     1
176
     1
 42
1.0
176
     1
 92
        0
176
     1
 66
   257
176
     1
 43
1.0
176
     1
 76
     1
176
     1
 77
     6
176
     1
 78
     2
176
     1
 67
     7
176
     1
 79
     5
176
     1
170
     0
176
     1
171
     0
176
     1
290
     0
176
     1
 93
        1
176
     1
 44
0.0
176
     1
173
     0
176
     1
  0
VISUALSTYLE
  5
32
102
{ACAD_REACTORS
330
2A
102
}
330
2A
100
AcDbVisualStyle
  2
Basic
 70
     7
177
     2
291
     1
 71
     1
176
     1
 72
     0
176
     1
 73
     1
176
     1
 90
        0
176
     1
 40
-0.6
176
     1
 41
-30.0
176
     1
 62
     5
 63
     7
421
 16777215
176
     1
 74
     0
176
     1
 91
        4
176
     1
 64
     7
176
     1
 65
   257
176
     1
 75
     1
176
     1
175
     1
176
     1
 42
1.0
176
     1
 92
        8
176
     1
 66
     7
176
     1
 43
1.0
176
     1
 76
     1
176
     1
 77
     6
176
     1
 78
     2
176
     1
 67
     7
176
     1
 79
     5
176
     1
170
     0
176
     1
171
     0
176
     1
290
     0
176
     1
 93
        1
176
     1
 44
0.0
176
     1
173
     0
176
     1
  0
VISUALSTYLE
  5
36
102
{ACAD_REACTORS
330
2A
102
}
330
2A
100
AcDbVisualStyle
  2
Brighten
 70
    12
177
     2
291
     1
 71
     2
176
     1
 72
     2
176
     1
 73
     0
176
     1
 90
        0
176
     1
 40
-0.6
176
     1
 41
-30.0
176
     1
 62
     5
 63
     7
421
 16777215
176
     1
 74
     1
176
     1
 91
        4
176
     1
 64
     7
176
     1
 65
   257
176
     1
 75
     1
176
     1
175
     1
176
     1
 42
1.0
176
     1
 92
        8
176
     1
 66
     7
176
     1
 43
1.0
176
     1
 76
     1
176
     1
 77
     6
176
     1
 78
     2
176
     1
 67
     7
176
     1
 79
     5
176
     1
170
     0
176
     1
171
     0
176
     1
290
     0
176
     1
 93
        1
176
     1
 44
50.0
176
     1
173
     0
176
     1
  0
VISUALSTYLE
  5
3A
102
{ACAD_REACTORS
330
2A
102
}
330
2A
100
AcDbVisualStyle
  2
ColorChange
 70
    16
177
     2
291
     1
 71
     2
176
     1
 72
     2
176
     1
 73
     3
176
     1
 90
        0
176
     1
 40
-0.6
176
     1
 41
-30.0
176
     1
 62
     5
 63
     8
421
  8421504
176
     1
 74
     1
176
     1
 91
        4
176
     1
 64
     7
176
     1
 65
   257
176
     1
 75
     1
176
     1
175
     1
176
     1
 42
1.0
176
     1
 92
        8
176
     1
 66
     8
424
  8421504
176
     1
 43
1.0
176
     1
 76
     1
176
     1
 77
     6
176
     1
 78
     2
176
     1
 67
     7
176
     1
 79
     5
176
     1
170
     0
176
     1
171
     0
176
     1
290
     0
176
     1
 93
        1
176
     1
 44
0.0
176
     1
173
     0
176
     1
  0
VISUALSTYLE
  5
34
102
{ACAD_REACTORS
330
2A
102
}
330
2A
100
AcDbVisualStyle
  2
Conceptual
 70
     9
177
     2
291
     0
 71
     3
176
     1
 72
     2
176
     1
 73
     0
176
     1
 90
        0
176
     1
 40
-0.6
176
     1
 41
-30.0
176
     1
 62
     5
 63
     7
421
 16777215
176
     1
 74
     2
176
     1
 91
        2
176
     1
 64
     7
176
     1
 65
   257
176
     1
 75
     1
176
     1
175
     1
176
     1
 42
40.0
176
     1
 92
        8
176
     1
 66
     7
176
     1
 43
1.0
176
     1
 76
     1
176
     1
 77
     6
176
     1
 78
     2
176
     1
 67
     7
176
     1
 79
     3
176
     1
170
     0
176
     1
171
     0
176
     1
290
     0
176
     1
 93
        1
176
     1
 44
0.0
176
     1
173
     0
176
     1
  0
VISUALSTYLE
  5
35
102
{ACAD_REACTORS
330
2A
102
}
330
2A
100
AcDbVisualStyle
  2
Dim
 70
    11
177
     2
291
     1
 71
     2
176
     1
 72
     2
176
     1
 73
     0
176
     1
 90
        0
176
     1
 40
-0.6
176
     1
 41
-30.0
176
     1
 62
     5
 63
     7
421
 16777215
176
     1
 74
     1
176
     1
 91
        4
176
     1
 64
     7
176
     1
 65
   257
176
     1
 75
     1
176
     1
175
     1
176
     1
 42
1.0
176
     1
 92
        8
176
     1
 66
     7
176
     1
 43
1.0
176
     1
 76
     1
176
     1
 77
     6
176
     1
 78
     2
176
     1
 67
     7
176
     1
 79
     5
176
     1
170
     0
176
     1
171
     0
176
     1
290
     0
176
     1
 93
        1
176
     1
 44
-50.0
176
     1
173
     0
176
     1
  0
VISUALSTYLE
  5
39
102
{ACAD_REACTORS
330
2A
102
}
330
2A
100
AcDbVisualStyle
  2
Facepattern
 70
    15
177
     2
291
     1
 71
     2
176
     1
 72
     2
176
     1
 73
     0
176
     1
 90
        0
176
     1
 40
-0.6
176
     1
 41
-30.0
176
     1
 62
     5
 63
     7
421
 16777215
176
     1
 74
     1
176
     1
 91
        4
176
     1
 64
     7
176
     1
 65
   257
176
     1
 75
     1
176
     1
175
     1
176
     1
 42
1.0
176
     1
 92
        8
176
     1
 66
     7
176
     1
 43
1.0
176
     1
 76
     1
176
     1
 77
     6
176
     1
 78
     2
176
     1
 67
     7
176
     1
 79
     5
176
     1
170
     0
176
     1
171
     0
176
     1
290
     0
176
     1
 93
        1
176
     1
 44
0.0
176
     1
173
     0
176
     1
  0
VISUALSTYLE
  5
2B
102
{ACAD_REACTORS
330
2A
102
}
330
2A
100
AcDbVisualStyle
  2
Flat
 70
     0
177
     2
291
     1
 71
     2
176
     1
 72
     1
176
     1
 73
     1
176
     1
 90
        2
176
     1
 40
-0.6
176
     1
 41
30.0
176
     1
 62
     5
 63
     7
421
 16777215
176
     1
 74
     0
176
     1
 91
        4
176
     1
 64
     7
176
     1
 65
   257
176
     1
 75
     1
176
     1
175
     1
176
     1
 42
1.0
176
     1
 92
        8
176
     1
 66
     7
176
     1
 43
1.0
176
     1
 76
     1
176
     1
 77
     6
176
     1
 78
     2
176
     1
 67
     7
176
     1
 79
     5
176
     1
170
     0
176
     1
171
     0
176
     1
290
     0
176
     1
 93
       13
176
     1
 44
0.0
176
     1
173
     0
176
     1
  0
VISUALSTYLE
  5
2C
102
{ACAD_REACTORS
330
2A
102
}
330
2A
100
AcDbVisualStyle
  2
FlatWithEdges
 70
     1
177
     2
291
     1
 71
     2
176
     1
 72
     1
176
     1
 73
     1
176
     1
 90
        2
176
     1
 40
-0.6
176
     1
 41
30.0
176
     1
 62
     5
 63
     7
421
 16777215
176
     1
 74
     1
176
     1
 91
        4
176
     1
 64
     7
176
     1
 65
   257
176
     1
 75
     1
176
     1
175
     1
176
     1
 42
1.0
176
     1
 92
        0
176
     1
 66
   257
176
     1
 43
1.0
176
     1
 76
     1
176
     1
 77
     6
176
     1
 78
     2
176
     1
 67
     7
176
     1
 79
     5
176
     1
170
     0
176
     1
171
     0
176
     1
290
     0
176
     1
 93
       13
176
     1
 44
0.0
176
     1
173
     0
176
     1
  0
VISUALSTYLE
  5
2D
102
{ACAD_REACTORS
330
2A
102
}
330
2A
100
AcDbVisualStyle
  2
Gouraud
 70
     2
177
     2
291
     1
 71
     2
176
     1
 72
     2
176
     1
 73
     1
176
     1
 90
        2
176
     1
 40
-0.6
176
     1
 41
30.0
176
     1
 62
     5
 63
     7
421
 16777215
176
     1
 74
     0
176
     1
 91
        4
176
     1
 64
     7
176
     1
 65
   257
176
     1
 75
     1
176
     1
175
     1
176
     1
 42
1.0
176
     1
 92
        0
176
     1
 66
     7
176
     1
 43
1.0
176
     1
 76
     1
176
     1
 77
     6
176
     1
 78
     2
176
     1
 67
     7
176
     1
 79
     5
176
     1
170
     0
176
     1
171
     0
176
     1
290
     0
176
     1
 93
       13
176
     1
 44
0.0
176
     1
173
     0
176
     1
  0
VISUALSTYLE
  5
2E
102
{ACAD_REACTORS
330
2A
102
}
330
2A
100
AcDbVisualStyle
  2
GouraudWithEdges
 70
     3
177
     2
291
     1
 71
     2
176
     1
 72
     2
176
     1
 73
     1
176
     1
 90
        2
176
     1
 40
-0.6
176
     1
 41
30.0
176
     1
 62
     5
 63
     7
421
 16777215
176
     1
 74
     1
176
     1
 91
        4
176
     1
 64
     7
176
     1
 65
   257
176
     1
 75
     1
176
     1
175
     1
176
     1
 42
1.0
176
     1
 92
        0
176
     1
 66
   257
176
     1
 43
1.0
176
     1
 76
     1
176
     1
 77
     6
176
     1
 78
     2
176
     1
 67
     7
176
     1
 79
     5
176
     1
170
     0
176
     1
171
     0
176
     1
290
     0
176
     1
 93
       13
176
     1
 44
0.0
176
     1
173
     0
176
     1
  0
VISUALSTYLE
  5
38
102
{ACAD_REACTORS
330
2A
102
}
330
2A
100
AcDbVisualStyle
  2
Linepattern
 70
    14
177
     2
291
     1
 71
     2
176
     1
 72
     2
176
     1
 73
     0
176
     1
 90
        0
176
     1
 40
-0.6
176
     1
 41
-30.0
176
     1
 62
     5
 63
     7
421
 16777215
176
     1
 74
     1
176
     1
 91
        4
176
     1
 64
     7
176
     1
 65
   257
176
     1
 75
     7
176
     1
175
     7
176
     1
 42
1.0
176
     1
 92
        8
176
     1
 66
     7
176
     1
 43
1.0
176
     1
 76
     1
176
     1
 77
     6
176
     1
 78
     2
176
     1
 67
     7
176
     1
 79
     5
176
     1
170
     0
176
     1
171
     0
176
     1
290
     0
176
     1
 93
        1
176
     1
 44
0.0
176
     1
173
     0
176
     1
  0
VISUALSTYLE
  5
33
102
{ACAD_REACTORS
330
2A
102
}
330
2A
100
AcDbVisualStyle
  2
Realistic
 70
     8
177
     2
291
     0
 71
     2
176
     1
 72
     2
176
     1
 73
     0
176
     1
 90
        0
176
     1
 40
-0.6
176
     1
 41
-30.0
176
     1
 62
     5
 63
     7
421
 16777215
176
     1
 74
     1
176
     1
 91
        0
176
     1
 64
     7
176
     1
 65
   257
176
     1
 75
     1
176
     1
175
     1
176
     1
 42
1.0
176
     1
 92
        8
176
     1
 66
     8
424
  7895160
176
     1
 43
1.0
176
     1
 76
     1
176
     1
 77
     6
176
     1
 78
     2
176
     1
 67
     7
176
     1
 79
     5
176
     1
170
     0
176
     1
171
     0
176
     1
290
     0
176
     1
 93
       13
176
     1
 44
0.0
176
     1
173
     0
176
     1
  0
VISUALSTYLE
  5
37
102
{ACAD_REACTORS
330
2A
102
}
330
2A
100
AcDbVisualStyle
  2
Thicken
 70
    13
177
     2
291
     1
 71
     2
176
     1
 72
     2
176
     1
 73
     0
176
     1
 90
        0
176
     1
 40
-0.6
176
     1
 41
-30.0
176
     1
 62
     5
 63
     7
421
 16777215
176
     1
 74
     1
176
     1
 91
        4
176
     1
 64
     7
176
     1
 65
   257
176
     1
 75
     1
176
     1
175
     1
176
     1
 42
1.0
176
     1
 92
       12
176
     1
 66
     7
176
     1
 43
1.0
176
     1
 76
     1
176
     1
 77
     6
176
     1
 78
     2
176
     1
 67
     7
176
     1
 79
     5
176
     1
170
     0
176
     1
171
     0
176
     1
290
     0
176
     1
 93
        1
176
     1
 44
0.0
176
     1
173
     0
176
     1
  0
ENDSEC
  0
EOF
